<svg id="Layer_1" data-name="Layer 1" xmlns="http://www.w3.org/2000/svg" xmlns:xlink="http://www.w3.org/1999/xlink" viewBox="0 0 76.52 48.33"><defs><style>.cls-1{fill:none;clip-rule:evenodd;}.cls-2,.cls-5{fill:#231f20;}.cls-2,.cls-4,.cls-5{fill-rule:evenodd;}.cls-3{clip-path:url(#clip-path);}.cls-4{fill:#a3a2a2;}.cls-5{stroke:#fff;stroke-miterlimit:2.61;stroke-width:0.5px;}</style><clipPath id="clip-path" transform="translate(-31.78 -5.16)"><path class="cls-1" d="M51.38,20.58a9,9,0,0,1,3.15.79A8.12,8.12,0,0,1,57,23.12a7.38,7.38,0,0,1,1.56,2.51,8.91,8.91,0,0,1,.54,3.18A13.44,13.44,0,0,1,58.5,33a6.27,6.27,0,0,1-1.72,2.72q-2.25,2.07-7.56,2.07H34.73a1.59,1.59,0,0,0,.83-1.1,11.82,11.82,0,0,0,.29-3.17V10.78a11.9,11.9,0,0,0-.29-3.15,1.63,1.63,0,0,0-.83-1.12H46.39A20,20,0,0,1,51,7a7.49,7.49,0,0,1,3,1.42c1.5,1.24,2.25,3.35,2.25,6.31A5.46,5.46,0,0,1,55,18.42a6,6,0,0,1-3.59,1.91l-1.08.17,1.08.08Zm-11.59-.12h9.75c.81,0,1.44-.51,1.92-1.54a9.05,9.05,0,0,0,.71-3.86,19.62,19.62,0,0,0-.32-3.86,6.79,6.79,0,0,0-1-2.53,5.08,5.08,0,0,0-4.45-1.91H39.79v13.7ZM53.45,35.37q1.34-2.13,1.33-7.06a10.55,10.55,0,0,0-1.29-5.53A4,4,0,0,0,50,20.67H39.79v16.9H49a4.77,4.77,0,0,0,4.41-2.2Zm18.27,2.32a6.28,6.28,0,0,0,3.76-1.24,8.63,8.63,0,0,0,2.76-3.53l.38.2-.13.21a8.61,8.61,0,0,1-2.86,3.47A6.75,6.75,0,0,1,71.72,38a11.32,11.32,0,0,1-7.53-2.32,10,10,0,0,1-3.3-6.77,3,3,0,0,0,0-.31,1.83,1.83,0,0,1,0-.35.24.24,0,0,0,0-.13.37.37,0,0,1,0-.12c0-.22,0-.45,0-.67s0-.44,0-.66c0-3.63.81-6.4,2.42-8.33a8.64,8.64,0,0,1,7-2.88q4.85,0,7.21,3.19c1.4,1.91,2.14,4.71,2.19,8.39H64.79v1c.14,3.15.79,5.55,2,7.2a5.74,5.74,0,0,0,5,2.47ZM64.79,26.81H75.92v-.08a18.83,18.83,0,0,0-1.33-7.89c-1-2-2.49-3-4.4-3a4.33,4.33,0,0,0-4,2.66q-1.45,2.78-1.45,8.22v.12Zm40.48-20.3a1.71,1.71,0,0,0-.81,1.1,11.21,11.21,0,0,0-.31,3.17V25.57q0,6.22-2.7,9.38c-1.82,2.1-4.51,3.16-8,3.16s-6.24-1-8-3.12-2.71-5.17-2.71-9.3V10.78a10.75,10.75,0,0,0-.32-3.17,1.65,1.65,0,0,0-.81-1.1h6.19a1.58,1.58,0,0,0-.83,1.1,11.82,11.82,0,0,0-.29,3.17V25q0,6.27,1.7,9.55a5.46,5.46,0,0,0,5.07,3.28c3.4,0,6-1.06,7.76-3.16s2.66-5.18,2.66-9.22V10.78a10.84,10.84,0,0,0-.31-3.17,1.65,1.65,0,0,0-.85-1.1Z"/></clipPath></defs><path class="cls-2" d="M51.38,20.58a9,9,0,0,1,3.15.79A8.12,8.12,0,0,1,57,23.12a7.38,7.38,0,0,1,1.56,2.51,8.91,8.91,0,0,1,.54,3.18A13.44,13.44,0,0,1,58.5,33a6.27,6.27,0,0,1-1.72,2.72q-2.25,2.07-7.56,2.07H34.73a1.59,1.59,0,0,0,.83-1.1,11.82,11.82,0,0,0,.29-3.17V10.78a11.9,11.9,0,0,0-.29-3.15,1.63,1.63,0,0,0-.83-1.12H46.39A20,20,0,0,1,51,7a7.49,7.49,0,0,1,3,1.42c1.5,1.24,2.25,3.35,2.25,6.31A5.46,5.46,0,0,1,55,18.42a6,6,0,0,1-3.59,1.91l-1.08.17,1.08.08Zm-11.59-.12h9.75c.81,0,1.44-.51,1.92-1.54a9.05,9.05,0,0,0,.71-3.86,19.62,19.62,0,0,0-.32-3.86,6.79,6.79,0,0,0-1-2.53,5.08,5.08,0,0,0-4.45-1.91H39.79v13.7ZM53.45,35.37q1.34-2.13,1.33-7.06a10.55,10.55,0,0,0-1.29-5.53A4,4,0,0,0,50,20.67H39.79v16.9H49a4.77,4.77,0,0,0,4.41-2.2Zm18.27,2.32a6.28,6.28,0,0,0,3.76-1.24,8.63,8.63,0,0,0,2.76-3.53l.38.2-.13.21a8.61,8.61,0,0,1-2.86,3.47A6.75,6.75,0,0,1,71.72,38a11.32,11.32,0,0,1-7.53-2.32,10,10,0,0,1-3.3-6.77,3,3,0,0,0,0-.31,1.83,1.83,0,0,1,0-.35.24.24,0,0,0,0-.13.37.37,0,0,1,0-.12c0-.22,0-.45,0-.67s0-.44,0-.66c0-3.63.81-6.4,2.42-8.33a8.64,8.64,0,0,1,7-2.88q4.85,0,7.21,3.19c1.4,1.91,2.14,4.71,2.19,8.39H64.79v1c.14,3.15.79,5.55,2,7.2a5.74,5.74,0,0,0,5,2.47ZM64.79,26.81H75.92v-.08a18.83,18.83,0,0,0-1.33-7.89c-1-2-2.49-3-4.4-3a4.33,4.33,0,0,0-4,2.66q-1.45,2.78-1.45,8.22v.12Zm40.48-20.3a1.71,1.71,0,0,0-.81,1.1,11.21,11.21,0,0,0-.31,3.17V25.57q0,6.22-2.7,9.38c-1.82,2.1-4.51,3.16-8,3.16s-6.24-1-8-3.12-2.71-5.17-2.71-9.3V10.78a10.75,10.75,0,0,0-.32-3.17,1.65,1.65,0,0,0-.81-1.1h6.19a1.58,1.58,0,0,0-.83,1.1,11.82,11.82,0,0,0-.29,3.17V25q0,6.27,1.7,9.55a5.46,5.46,0,0,0,5.07,3.28c3.4,0,6-1.06,7.76-3.16s2.66-5.18,2.66-9.22V10.78a10.84,10.84,0,0,0-.31-3.17,1.65,1.65,0,0,0-.85-1.1Z" transform="translate(-31.78 -5.16)"/><g class="cls-3"><polygon class="cls-4" points="0.96 33.51 76.52 0 74.2 32.61 71.11 33.8 1.15 34.37 0.96 33.51"/></g><path class="cls-2" d="M54.3,46.67a.19.19,0,0,0,.05.13.2.2,0,0,0,.14.06.59.59,0,0,0,.17,0l.19-.08.18-.11a.77.77,0,0,0,.13-.12.72.72,0,0,0,.17-.22.66.66,0,0,0,.06-.27.3.3,0,0,0-.09-.23.74.74,0,0,0-.21-.13,1.1,1.1,0,0,0-.26-.06h-.24l-.5,0a5.58,5.58,0,0,0-.57.08q-.29.06-.57.15a2.27,2.27,0,0,0-.49.26,1.27,1.27,0,0,0-.36.37A1.07,1.07,0,0,0,52,47a1.23,1.23,0,0,0,.17.62,2.6,2.6,0,0,0,.41.53,4.14,4.14,0,0,0,.54.47c.19.15.37.29.53.43a2.61,2.61,0,0,1,.41.4.61.61,0,0,1,.17.41.47.47,0,0,1-.12.32,1.22,1.22,0,0,1-.3.24,1.75,1.75,0,0,1-.42.16,4.52,4.52,0,0,1-.47.11l-.44,0-.34,0a1.49,1.49,0,0,1-.36-.05,1.49,1.49,0,0,0-.36,0l-.18,0s-.06.06-.06.14a.13.13,0,0,0,.07.12.44.44,0,0,0,.16.06l.19,0,.13,0,.4,0,.49,0c.18,0,.37,0,.57-.08a5.29,5.29,0,0,0,.57-.15,2,2,0,0,0,.51-.25,1,1,0,0,0,.36-.36.9.9,0,0,0,.13-.49,1.06,1.06,0,0,0-.15-.55,2.81,2.81,0,0,0-.38-.49,4.32,4.32,0,0,0-.5-.45c-.18-.15-.35-.29-.5-.43a3.55,3.55,0,0,1-.38-.43.78.78,0,0,1-.15-.45.6.6,0,0,1,.13-.38,1.18,1.18,0,0,1,.32-.31,2,2,0,0,1,.41-.22,2.33,2.33,0,0,1,.39-.11,2.13,2.13,0,0,1,.25,0h.47l.1,0a.11.11,0,0,1,0,.09.25.25,0,0,1-.08.17l-.17.17c-.06,0-.11.11-.17.17A.27.27,0,0,0,54.3,46.67Z" transform="translate(-31.78 -5.16)"/><path class="cls-2" d="M55.9,50.12a2.69,2.69,0,0,1,.05-.57,1.56,1.56,0,0,0,0-.16l.07-.18a1.21,1.21,0,0,0,0-.18.41.41,0,0,0,0-.15.13.13,0,0,0-.14-.14.35.35,0,0,0-.3.12.81.81,0,0,0-.16.29c0,.11-.06.24-.09.38a2,2,0,0,0,0,.4,1.89,1.89,0,0,0,0,.32,1.35,1.35,0,0,0,.08.36.78.78,0,0,0,.17.28A.41.41,0,0,0,56,51a.68.68,0,0,0,.35-.11,1.73,1.73,0,0,0,.35-.27q.16-.16.3-.33c.1-.12.17-.22.23-.3l0-.07.06-.09a.36.36,0,0,0,0-.09.12.12,0,0,0,0-.08.28.28,0,0,0,0-.09s0,0-.07,0a.1.1,0,0,0-.1.05l-.08.1-.18.28a2.5,2.5,0,0,1-.26.33,1.9,1.9,0,0,1-.29.28.5.5,0,0,1-.27.11.14.14,0,0,1-.13-.07.59.59,0,0,1-.07-.16,1.23,1.23,0,0,1,0-.19v-.15Zm.25-2.35a.25.25,0,0,0-.21.11.35.35,0,0,0-.09.23.27.27,0,0,0,.06.17.19.19,0,0,0,.16.07.26.26,0,0,0,.21-.1.35.35,0,0,0,.09-.23.25.25,0,0,0-.06-.17A.19.19,0,0,0,56.15,47.77Z" transform="translate(-31.78 -5.16)"/><path class="cls-2" d="M57.81,51.12A.67.67,0,0,0,58.2,51a1.74,1.74,0,0,0,.37-.3,2,2,0,0,0,.32-.38,3.72,3.72,0,0,0,.24-.35l.06-.11a.19.19,0,0,0,0-.12.24.24,0,0,0,0-.08.09.09,0,0,0-.07,0l-.08,0-.06.07-.08.13-.08.13-.17.22a1.79,1.79,0,0,1-.23.25,1,1,0,0,1-.25.21.45.45,0,0,1-.25.09.24.24,0,0,1-.21-.12,1.1,1.1,0,0,1-.12-.29,1.91,1.91,0,0,1-.06-.33c0-.11,0-.2,0-.26V49.6a.42.42,0,0,1,0-.14l0-.1.06-.08.16-.25.15-.24a5.43,5.43,0,0,0,.28-.59c.1-.22.18-.45.26-.68s.13-.46.18-.69a3.14,3.14,0,0,0,.07-.65,1.37,1.37,0,0,0,0-.19.6.6,0,0,0-.06-.19.49.49,0,0,0-.11-.14.36.36,0,0,0-.19,0,.48.48,0,0,0-.28.1,1.7,1.7,0,0,0-.45.56,1.76,1.76,0,0,0-.14.27,5.22,5.22,0,0,0-.38,1.26,8.29,8.29,0,0,0-.1,1.32v.31c0,.13,0,.27,0,.42a3.54,3.54,0,0,0,.08.45,2.19,2.19,0,0,0,.13.41.82.82,0,0,0,.22.29.41.41,0,0,0,.3.12Zm.6-5.21a.09.09,0,0,1,.06,0,.14.14,0,0,1,0,.07.19.19,0,0,1,0,.08v.06a2.88,2.88,0,0,1-.09.67,5.77,5.77,0,0,1-.24.74c-.09.24-.2.48-.31.71l-.33.61a.34.34,0,0,1,0-.09v-.1a4.62,4.62,0,0,1,.11-.95c.08-.33.16-.64.25-.93,0-.05,0-.13.07-.23s.07-.2.11-.3a1.64,1.64,0,0,1,.16-.26A.26.26,0,0,1,58.41,45.91Z" transform="translate(-31.78 -5.16)"/><path class="cls-2" d="M58.83,48.84a.11.11,0,0,0,0,.07l.06.06a1.7,1.7,0,0,1,.23.37,4.49,4.49,0,0,1,.22.49c.06.17.12.34.17.51a4,4,0,0,1,.1.42.61.61,0,0,0,0,.17s.06.07.15.07.12,0,.14-.07a1.31,1.31,0,0,0,.05-.15,1.68,1.68,0,0,1,.09-.22l.19-.36.25-.43c.09-.16.17-.3.26-.44S61,49.07,61,49a1,1,0,0,1,.15-.22l0,0a.07.07,0,0,0,0-.05.16.16,0,0,0,0-.11.28.28,0,0,0-.12,0,.11.11,0,0,0-.09,0l-.07.09a7.85,7.85,0,0,0-.49.78c-.14.27-.29.54-.44.81a3.75,3.75,0,0,0-.1-.39,3.69,3.69,0,0,0-.17-.42,3,3,0,0,0-.2-.4,2,2,0,0,0-.23-.32l-.08-.08a.2.2,0,0,0-.11,0,.24.24,0,0,0-.16.08A.24.24,0,0,0,58.83,48.84Z" transform="translate(-31.78 -5.16)"/><path class="cls-2" d="M62.12,51a1.69,1.69,0,0,0,.5-.08,2,2,0,0,0,.45-.24,2.05,2.05,0,0,0,.38-.34,2.26,2.26,0,0,0,.3-.41l0-.09a.31.31,0,0,0,0-.1.05.05,0,0,0,0,0s0,0-.06,0a.16.16,0,0,0-.11.05,1,1,0,0,1-.08.11,2,2,0,0,1-.22.32,1.48,1.48,0,0,1-.28.28,1.55,1.55,0,0,1-.32.2.84.84,0,0,1-.38.08.38.38,0,0,1-.32-.12.57.57,0,0,1-.1-.34.93.93,0,0,1,0-.27,1.08,1.08,0,0,0,.31-.19,1.94,1.94,0,0,0,.32-.32,2.19,2.19,0,0,0,.25-.37.89.89,0,0,0,.1-.36.4.4,0,0,0-.09-.27.35.35,0,0,0-.27-.11.66.66,0,0,0-.46.2,1.8,1.8,0,0,0-.37.48,2.6,2.6,0,0,0-.23.58,1.88,1.88,0,0,0-.08.52,1.76,1.76,0,0,0,0,.33.84.84,0,0,0,.13.27.59.59,0,0,0,.22.19.63.63,0,0,0,.32.07Zm.41-2.35a.11.11,0,0,1,.09,0,.36.36,0,0,1,0,.1.51.51,0,0,1-.07.26,1.24,1.24,0,0,1-.17.27,1.7,1.7,0,0,1-.22.24,2.68,2.68,0,0,1-.23.17c0-.06,0-.15.07-.27s.09-.24.14-.36a3,3,0,0,1,.18-.32A.26.26,0,0,1,62.53,48.6Z" transform="translate(-31.78 -5.16)"/><path class="cls-2" d="M64.46,49.53c0,.12,0,.23,0,.35s0,.23,0,.35,0,.16,0,.26a1.36,1.36,0,0,0,.06.29.65.65,0,0,0,.13.23.34.34,0,0,0,.25.1.61.61,0,0,0,.34-.13,2.29,2.29,0,0,0,.36-.29c.11-.11.22-.23.32-.35a2.73,2.73,0,0,0,.22-.3l0-.07a.15.15,0,0,0,0-.07.28.28,0,0,0,0-.09.07.07,0,0,0-.07,0,.14.14,0,0,0-.1,0l-.07.1-.18.24a3.58,3.58,0,0,1-.26.29,3.32,3.32,0,0,1-.28.26.45.45,0,0,1-.25.1c-.06,0-.1,0-.11-.08a.86.86,0,0,1,0-.15,3.4,3.4,0,0,1,0-.45l.09-.44a1.29,1.29,0,0,0,0-.25.54.54,0,0,0-.08-.33.88.88,0,0,0-.22-.21l-.25-.16a.61.61,0,0,1-.2-.19c0-.1,0-.2,0-.3a.66.66,0,0,0,0-.13.41.41,0,0,0,0-.16.45.45,0,0,0-.06-.14.13.13,0,0,0-.11-.06.18.18,0,0,0-.16.08.62.62,0,0,0-.12.19,1.09,1.09,0,0,0-.07.24,1.68,1.68,0,0,0,0,.2.9.9,0,0,0,0,.28.64.64,0,0,0,.12.25,1.47,1.47,0,0,1-.2.6,6.1,6.1,0,0,1-.34.54.25.25,0,0,0,0,.07.19.19,0,0,0,0,.07c0,.06,0,.08.08.08a.17.17,0,0,0,.1,0l.07-.06a1,1,0,0,0,.2-.25c.06-.09.11-.19.17-.29s.09-.2.13-.3.08-.2.11-.29a.73.73,0,0,1,.26.14A.29.29,0,0,1,64.46,49.53Z" transform="translate(-31.78 -5.16)"/><path class="cls-2" d="M69.74,49.16a7,7,0,0,0,.2-.88,4.6,4.6,0,0,0,.08-.91c0-.1,0-.23,0-.37a1.84,1.84,0,0,0-.07-.42.78.78,0,0,0-.17-.34.4.4,0,0,0-.34-.14,1,1,0,0,0-.45.12,1.94,1.94,0,0,0-.44.31,3.51,3.51,0,0,0-.37.41,2.38,2.38,0,0,0-.25.41,3.61,3.61,0,0,0-.17.46,1.84,1.84,0,0,0-.07.47s0,.1,0,.17a.65.65,0,0,0,0,.19.28.28,0,0,0,.08.15.16.16,0,0,0,.15.07c.08,0,.12,0,.12-.14a.16.16,0,0,0,0-.1l0-.09a.49.49,0,0,1,0-.11.59.59,0,0,1,0-.14.82.82,0,0,1,0-.22,2,2,0,0,1,0-.24,2.09,2.09,0,0,1,.08-.23.84.84,0,0,1,.08-.19,2.29,2.29,0,0,1,.17-.27,3.47,3.47,0,0,1,.25-.29,1.54,1.54,0,0,1,.29-.23.57.57,0,0,1,.29-.09.21.21,0,0,1,.18.07.6.6,0,0,1,.08.2,1.57,1.57,0,0,1,0,.23v.19a5.49,5.49,0,0,1-.11,1.08c-.08.35-.16.7-.25,1.06a4.24,4.24,0,0,0-.55.52,5.48,5.48,0,0,0-.55.7,4.47,4.47,0,0,0-.42.77,1.92,1.92,0,0,0-.17.73v.09c0,.07,0,.15,0,.24a1.55,1.55,0,0,0,0,.23.46.46,0,0,0,.13.18.32.32,0,0,0,.23.07.53.53,0,0,0,.24-.06,1.16,1.16,0,0,0,.21-.16,2.24,2.24,0,0,0,.47-.62,6.8,6.8,0,0,0,.37-.82c.11-.29.2-.58.28-.87s.13-.54.19-.77l.12-.06.13-.08a.52.52,0,0,0,.1-.11.28.28,0,0,0,0-.13.06.06,0,0,0,0-.06h-.07l-.08,0h-.09Zm-.71.62c0,.06,0,.17-.1.33s-.1.33-.17.53-.13.4-.21.61-.17.4-.25.58a2.36,2.36,0,0,1-.24.43c-.07.11-.14.17-.2.17a.08.08,0,0,1-.07,0,.19.19,0,0,1,0-.08s0-.06,0-.1v-.07a1.59,1.59,0,0,1,.13-.6,6.94,6.94,0,0,1,.32-.68,5.6,5.6,0,0,1,.42-.62A2.8,2.8,0,0,1,69,49.78Z" transform="translate(-31.78 -5.16)"/><path class="cls-2" d="M71.16,51a1.69,1.69,0,0,0,.5-.08,2,2,0,0,0,.45-.24,2.05,2.05,0,0,0,.38-.34,2.26,2.26,0,0,0,.3-.41l0-.09a.31.31,0,0,0,0-.1.08.08,0,0,0,0,0,.07.07,0,0,0-.06,0,.17.17,0,0,0-.12.05l-.07.11a3.19,3.19,0,0,1-.23.32,1.79,1.79,0,0,1-.27.28,1.94,1.94,0,0,1-.33.2.84.84,0,0,1-.38.08.38.38,0,0,1-.32-.12.57.57,0,0,1-.1-.34,1.47,1.47,0,0,1,0-.27,1.08,1.08,0,0,0,.31-.19,1.94,1.94,0,0,0,.32-.32,2.19,2.19,0,0,0,.25-.37.76.76,0,0,0,.1-.36.4.4,0,0,0-.09-.27.35.35,0,0,0-.27-.11.66.66,0,0,0-.46.2,2,2,0,0,0-.37.48,2.6,2.6,0,0,0-.23.58,1.88,1.88,0,0,0-.08.52,1.19,1.19,0,0,0,0,.33.66.66,0,0,0,.12.27.67.67,0,0,0,.22.19.63.63,0,0,0,.32.07Zm.41-2.35a.11.11,0,0,1,.09,0,.36.36,0,0,1,0,.1.51.51,0,0,1-.07.26,1.24,1.24,0,0,1-.17.27,1.7,1.7,0,0,1-.22.24l-.22.17a1.06,1.06,0,0,1,.07-.27,2.6,2.6,0,0,1,.13-.36,3,3,0,0,1,.18-.32C71.45,48.65,71.51,48.6,71.57,48.6Z" transform="translate(-31.78 -5.16)"/><path class="cls-2" d="M75.71,49.38v-.19a2.17,2.17,0,0,0,0-.25.71.71,0,0,0-.07-.22c0-.06-.08-.1-.14-.1a.13.13,0,0,0-.11.06.28.28,0,0,0,0,.12.23.23,0,0,0,0,.14.35.35,0,0,1,.08.11s0,0,0,.08,0,.07,0,.11v.21c0,.07,0,.17,0,.32s0,.29-.08.44a3.54,3.54,0,0,1-.14.39c-.06.11-.13.17-.21.17s-.08,0-.12-.09a1.54,1.54,0,0,1-.09-.24c0-.09,0-.2-.07-.31s0-.22,0-.33,0-.21,0-.29,0-.15,0-.18a.65.65,0,0,0,0-.2.15.15,0,0,0-.16-.1l-.13,0a.14.14,0,0,0-.1.07,1.11,1.11,0,0,0-.11.16l-.11.19a5.21,5.21,0,0,1-.6.72l-.07.07-.1.09-.11.08a.16.16,0,0,1-.09,0s0,0,0,0v-.05a2.64,2.64,0,0,1,0-.38c0-.13.06-.26.1-.4l.14-.39a3.68,3.68,0,0,1,.16-.34l0-.07a.14.14,0,0,0,0-.06.12.12,0,0,0-.07-.11.32.32,0,0,0-.14,0l-.15,0a.27.27,0,0,0-.13.1,1.7,1.7,0,0,0-.16.33,5,5,0,0,0-.28.9,1.82,1.82,0,0,0,0,.35,1.28,1.28,0,0,0,0,.19.48.48,0,0,0,0,.18.28.28,0,0,0,.1.14.24.24,0,0,0,.18,0,.59.59,0,0,0,.35-.14,2.75,2.75,0,0,0,.37-.33,4.36,4.36,0,0,0,.35-.4l.26-.31c0,.08,0,.17,0,.3a2.58,2.58,0,0,0,.06.37,2,2,0,0,0,.09.35.66.66,0,0,0,.14.25.52.52,0,0,0,.17.12.46.46,0,0,0,.2,0,.54.54,0,0,0,.43-.2,1.24,1.24,0,0,0,.26-.48,2.9,2.9,0,0,0,.12-.57C75.7,49.67,75.71,49.51,75.71,49.38Z" transform="translate(-31.78 -5.16)"/><path class="cls-2" d="M76.85,51a1.69,1.69,0,0,0,.5-.08,2,2,0,0,0,.45-.24,2.05,2.05,0,0,0,.38-.34,2.26,2.26,0,0,0,.3-.41l0-.09a.3.3,0,0,0,0-.1.05.05,0,0,0,0,0,.07.07,0,0,0-.06,0,.17.17,0,0,0-.12.05l-.07.11L78,50.1a2.47,2.47,0,0,1-.28.28,1.38,1.38,0,0,1-.33.2.84.84,0,0,1-.38.08.38.38,0,0,1-.32-.12.57.57,0,0,1-.09-.34,1.39,1.39,0,0,1,0-.27,1,1,0,0,0,.31-.19,1.62,1.62,0,0,0,.32-.32,1.72,1.72,0,0,0,.25-.37.76.76,0,0,0,.1-.36.4.4,0,0,0-.09-.27.33.33,0,0,0-.26-.11.69.69,0,0,0-.47.2,1.78,1.78,0,0,0-.36.48,2.63,2.63,0,0,0-.24.58,2.36,2.36,0,0,0-.08.52,1.19,1.19,0,0,0,0,.33.66.66,0,0,0,.12.27.67.67,0,0,0,.22.19.66.66,0,0,0,.32.07Zm.41-2.35a.09.09,0,0,1,.09,0,.36.36,0,0,1,0,.1.51.51,0,0,1-.07.26,1.24,1.24,0,0,1-.17.27,1.7,1.7,0,0,1-.22.24l-.22.17a2.84,2.84,0,0,1,.21-.63,1.91,1.91,0,0,1,.17-.32C77.14,48.65,77.2,48.6,77.26,48.6Z" transform="translate(-31.78 -5.16)"/><path class="cls-2" d="M79,51.12a.67.67,0,0,0,.39-.13,1.79,1.79,0,0,0,.38-.3,2.38,2.38,0,0,0,.32-.38l.24-.35.06-.11a.27.27,0,0,0,0-.12.24.24,0,0,0,0-.08s0,0-.07,0l-.08,0,0,.07a.57.57,0,0,0-.08.13L80,50l-.16.22a2.73,2.73,0,0,1-.23.25,1,1,0,0,1-.26.21.45.45,0,0,1-.25.09.23.23,0,0,1-.2-.12,1.1,1.1,0,0,1-.12-.29,1.91,1.91,0,0,1-.06-.33c0-.11,0-.2,0-.26V49.6a.46.46,0,0,1,0-.14l0-.1.06-.08L79,49a1.58,1.58,0,0,0,.15-.24c.1-.18.19-.37.29-.59s.17-.45.25-.68a4.39,4.39,0,0,0,.18-.69,3.14,3.14,0,0,0,.07-.65,1.28,1.28,0,0,0,0-.19l-.06-.19a.53.53,0,0,0-.12-.14.36.36,0,0,0-.19,0,.43.43,0,0,0-.27.1,1.18,1.18,0,0,0-.25.25,2.11,2.11,0,0,0-.21.31,1.76,1.76,0,0,0-.14.27,5.19,5.19,0,0,0-.37,1.26,8.3,8.3,0,0,0-.11,1.32c0,.08,0,.18,0,.31l0,.42c0,.15,0,.3.08.45a1.65,1.65,0,0,0,.14.41.94.94,0,0,0,.21.29.41.41,0,0,0,.3.12Zm.6-5.21a.06.06,0,0,1,.06,0l0,.07a.19.19,0,0,1,0,.08v.06a2.47,2.47,0,0,1-.1.67c-.06.24-.14.49-.23.74s-.2.48-.32.71l-.33.61v-.19a4,4,0,0,1,.11-.95q.11-.5.24-.93c0-.05,0-.13.07-.23s.07-.2.12-.3A1.1,1.1,0,0,1,79.4,46,.27.27,0,0,1,79.59,45.91Z" transform="translate(-31.78 -5.16)"/><path class="cls-2" d="M80.88,51.12a.68.68,0,0,0,.4-.13,2,2,0,0,0,.37-.3,2,2,0,0,0,.32-.38c.1-.13.17-.25.24-.35l.06-.11a.27.27,0,0,0,0-.12.12.12,0,0,0,0-.08s0,0-.07,0l-.07,0-.06.07a.57.57,0,0,0-.08.13l-.08.13c0,.05-.1.13-.17.22a2.73,2.73,0,0,1-.23.25,1,1,0,0,1-.26.21.42.42,0,0,1-.24.09.24.24,0,0,1-.21-.12,1.1,1.1,0,0,1-.12-.29,1.91,1.91,0,0,1-.06-.33c0-.11,0-.2,0-.26V49.6a.46.46,0,0,1,0-.14l0-.1.06-.08a2.13,2.13,0,0,1,.16-.25l.15-.24c.09-.18.19-.37.28-.59s.18-.45.25-.68a5.91,5.91,0,0,0,.19-.69,4,4,0,0,0,.07-.65,1.37,1.37,0,0,0,0-.19.6.6,0,0,0-.06-.19.53.53,0,0,0-.12-.14.32.32,0,0,0-.18,0,.44.44,0,0,0-.28.1,1.48,1.48,0,0,0-.25.25,2.11,2.11,0,0,0-.21.31c-.06.1-.1.19-.14.27a5.68,5.68,0,0,0-.37,1.26,8.3,8.3,0,0,0-.11,1.32c0,.08,0,.18,0,.31s0,.27,0,.42a3.5,3.5,0,0,0,.07.45,2.19,2.19,0,0,0,.14.41.94.94,0,0,0,.21.29.44.44,0,0,0,.3.12Zm.61-5.21a.05.05,0,0,1,.05,0,.09.09,0,0,1,0,.07.19.19,0,0,1,0,.08v.06a2.88,2.88,0,0,1-.09.67c-.07.24-.15.49-.24.74s-.2.48-.32.71-.22.43-.32.61a.34.34,0,0,1,0-.09v-.1a4.62,4.62,0,0,1,.11-.95c.07-.33.16-.64.24-.93,0-.05,0-.13.08-.23s.07-.2.11-.3A1.64,1.64,0,0,1,81.3,46,.26.26,0,0,1,81.49,45.91Z" transform="translate(-31.78 -5.16)"/><path class="cls-2" d="M82.67,51a1.69,1.69,0,0,0,.5-.08,2,2,0,0,0,.45-.24,2.05,2.05,0,0,0,.38-.34,2.26,2.26,0,0,0,.3-.41l0-.09a.31.31,0,0,0,0-.1.08.08,0,0,0,0,0,.07.07,0,0,0-.06,0,.17.17,0,0,0-.12.05l-.07.11a3.19,3.19,0,0,1-.23.32,1.79,1.79,0,0,1-.27.28,1.94,1.94,0,0,1-.33.2.84.84,0,0,1-.38.08.38.38,0,0,1-.32-.12.57.57,0,0,1-.1-.34,1.47,1.47,0,0,1,0-.27,1.08,1.08,0,0,0,.31-.19,1.94,1.94,0,0,0,.32-.32,2.19,2.19,0,0,0,.25-.37.76.76,0,0,0,.1-.36.4.4,0,0,0-.09-.27.35.35,0,0,0-.27-.11.66.66,0,0,0-.46.2,2,2,0,0,0-.37.48,2.6,2.6,0,0,0-.23.58,1.88,1.88,0,0,0-.08.52,1.19,1.19,0,0,0,0,.33.66.66,0,0,0,.12.27.67.67,0,0,0,.22.19.63.63,0,0,0,.32.07Zm.41-2.35a.11.11,0,0,1,.09,0,.36.36,0,0,1,0,.1.51.51,0,0,1-.07.26,1.24,1.24,0,0,1-.17.27,1.7,1.7,0,0,1-.22.24l-.22.17a1.06,1.06,0,0,1,.07-.27,2.6,2.6,0,0,1,.13-.36,3,3,0,0,1,.18-.32C83,48.65,83,48.6,83.08,48.6Z" transform="translate(-31.78 -5.16)"/><path class="cls-2" d="M85,49.53c0,.12,0,.23,0,.35s0,.23,0,.35,0,.16,0,.26a1.36,1.36,0,0,0,.06.29.65.65,0,0,0,.13.23.34.34,0,0,0,.25.1.61.61,0,0,0,.34-.13,2.29,2.29,0,0,0,.36-.29c.11-.11.22-.23.32-.35s.17-.22.23-.3l0-.07a.14.14,0,0,0,0-.07.29.29,0,0,0,0-.09s0,0-.07,0a.14.14,0,0,0-.1,0l-.07.1-.18.24a3.58,3.58,0,0,1-.26.29,3.32,3.32,0,0,1-.28.26.45.45,0,0,1-.25.1c-.06,0-.1,0-.11-.08a.86.86,0,0,1,0-.15,2.28,2.28,0,0,1,0-.45c0-.15,0-.3.08-.44a.85.85,0,0,0,0-.25.54.54,0,0,0-.09-.33.88.88,0,0,0-.22-.21L85,48.74a.61.61,0,0,1-.2-.19c0-.1,0-.2,0-.3a.66.66,0,0,0,0-.13.41.41,0,0,0,0-.16.3.3,0,0,0-.06-.14.13.13,0,0,0-.11-.06.18.18,0,0,0-.16.08.62.62,0,0,0-.12.19,2.17,2.17,0,0,0-.07.24,1.68,1.68,0,0,0,0,.2.9.9,0,0,0,0,.28.64.64,0,0,0,.12.25,1.47,1.47,0,0,1-.2.6,6.1,6.1,0,0,1-.34.54.25.25,0,0,0,0,.07.19.19,0,0,0,0,.07c0,.06,0,.08.08.08a.17.17,0,0,0,.1,0l.08-.06a1.26,1.26,0,0,0,.19-.25,2.75,2.75,0,0,0,.17-.29c0-.1.09-.2.13-.3s.08-.2.11-.29a.66.66,0,0,1,.26.14A.29.29,0,0,1,85,49.53Z" transform="translate(-31.78 -5.16)"/><path class="cls-2" d="M87.15,53.49a.93.93,0,0,0,.29-.05,1.1,1.1,0,0,0,.26-.15,1.51,1.51,0,0,0,.23-.21,1.3,1.3,0,0,0,.18-.23,3.08,3.08,0,0,0,.36-.78,6.31,6.31,0,0,0,.2-.86,8.65,8.65,0,0,0,.08-.89c0-.29,0-.58,0-.86V49.3c0-.07,0-.14,0-.22l0-.22c0-.06,0-.11-.06-.12a.27.27,0,0,0-.13-.05.16.16,0,0,0-.13.07l-.1.11-.45.59a6.06,6.06,0,0,1-.47.56l-.09.08-.13.11-.12.1a.25.25,0,0,1-.11,0,0,0,0,0,1,0,0,.28.28,0,0,1,0-.08,1.11,1.11,0,0,1,0-.23,2.68,2.68,0,0,1,.07-.27l.09-.28.08-.22a2.05,2.05,0,0,1,.08-.19.49.49,0,0,0,0-.19.25.25,0,0,0-.08-.18.29.29,0,0,0-.19-.08.25.25,0,0,0-.15,0,.38.38,0,0,0-.09.13.61.61,0,0,0,0,.12.56.56,0,0,1,0,.12,5.12,5.12,0,0,0-.15.56,2.36,2.36,0,0,0-.07.58,1.11,1.11,0,0,0,0,.17.34.34,0,0,0,0,.17.29.29,0,0,0,.1.12.29.29,0,0,0,.17,0,.71.71,0,0,0,.38-.16,2.92,2.92,0,0,0,.43-.37,4,4,0,0,0,.4-.43,2.36,2.36,0,0,0,.26-.35c0,.33,0,.66,0,1v.19c0,.06,0,.11,0,.17-.17.11-.34.24-.54.4a3.64,3.64,0,0,0-.53.51,2.59,2.59,0,0,0-.42.58,1.35,1.35,0,0,0-.17.63,1.07,1.07,0,0,0,0,.25.85.85,0,0,0,.09.22.5.5,0,0,0,.17.15.45.45,0,0,0,.24.06ZM88.25,51c0,.14,0,.29-.07.46s-.08.34-.13.52a2.58,2.58,0,0,1-.17.49,1.75,1.75,0,0,1-.22.41l-.1.12a.74.74,0,0,1-.13.12l-.13.1a.42.42,0,0,1-.15,0,.19.19,0,0,1-.13,0,.26.26,0,0,1-.07-.1.5.5,0,0,1,0-.13.62.62,0,0,1,0-.13,1.06,1.06,0,0,1,.14-.54,2.78,2.78,0,0,1,.33-.51,4.57,4.57,0,0,1,.44-.44Z" transform="translate(-31.78 -5.16)"/><polygon class="cls-5" points="0 44.33 17.66 44.06 17.63 44.45 0 44.33"/><polygon class="cls-5" points="76.44 44.33 58.79 44.06 58.82 44.45 76.44 44.33"/></svg>