<svg id="Layer_1" data-name="Layer 1" xmlns="http://www.w3.org/2000/svg" xmlns:xlink="http://www.w3.org/1999/xlink" viewBox="0 0 129.25 32.35"><defs><style>.cls-1{fill:none;clip-rule:evenodd;}.cls-160,.cls-2{fill:#820b0d;}.cls-3{clip-path:url(#clip-path);}.cls-4{fill:#d1aa67;}.cls-10,.cls-100,.cls-101,.cls-102,.cls-103,.cls-104,.cls-105,.cls-106,.cls-107,.cls-108,.cls-109,.cls-11,.cls-110,.cls-111,.cls-112,.cls-113,.cls-114,.cls-115,.cls-116,.cls-117,.cls-118,.cls-119,.cls-12,.cls-120,.cls-121,.cls-122,.cls-123,.cls-124,.cls-125,.cls-126,.cls-127,.cls-128,.cls-129,.cls-13,.cls-130,.cls-131,.cls-132,.cls-133,.cls-134,.cls-135,.cls-136,.cls-137,.cls-138,.cls-139,.cls-14,.cls-140,.cls-141,.cls-142,.cls-143,.cls-144,.cls-145,.cls-146,.cls-147,.cls-148,.cls-149,.cls-15,.cls-150,.cls-151,.cls-152,.cls-153,.cls-154,.cls-155,.cls-156,.cls-157,.cls-158,.cls-159,.cls-16,.cls-160,.cls-17,.cls-18,.cls-19,.cls-20,.cls-21,.cls-22,.cls-23,.cls-24,.cls-25,.cls-26,.cls-27,.cls-28,.cls-29,.cls-30,.cls-31,.cls-32,.cls-33,.cls-34,.cls-35,.cls-36,.cls-37,.cls-38,.cls-39,.cls-4,.cls-40,.cls-41,.cls-42,.cls-43,.cls-44,.cls-45,.cls-46,.cls-47,.cls-48,.cls-49,.cls-5,.cls-50,.cls-51,.cls-52,.cls-53,.cls-54,.cls-55,.cls-56,.cls-57,.cls-58,.cls-59,.cls-6,.cls-60,.cls-61,.cls-62,.cls-63,.cls-64,.cls-65,.cls-66,.cls-67,.cls-68,.cls-69,.cls-7,.cls-70,.cls-71,.cls-72,.cls-73,.cls-74,.cls-75,.cls-76,.cls-77,.cls-78,.cls-79,.cls-8,.cls-80,.cls-81,.cls-82,.cls-83,.cls-84,.cls-85,.cls-86,.cls-87,.cls-88,.cls-89,.cls-9,.cls-90,.cls-91,.cls-92,.cls-93,.cls-94,.cls-95,.cls-96,.cls-97,.cls-98,.cls-99{fill-rule:evenodd;}.cls-5{fill:#d3ac69;}.cls-6{fill:#d3ae6b;}.cls-7{fill:#d5af6c;}.cls-8{fill:#d2af6e;}.cls-9{fill:#d2af6f;}.cls-10{fill:#d5b171;}.cls-11{fill:#d5b273;}.cls-12{fill:#d7b474;}.cls-13{fill:#d4b375;}.cls-14{fill:#d6b476;}.cls-15{fill:#d6b578;}.cls-16{fill:#d6b67a;}.cls-17{fill:#d8b97d;}.cls-18{fill:#daba7e;}.cls-19{fill:#d8b97f;}.cls-20{fill:#d8bb81;}.cls-21{fill:#dbbd82;}.cls-22{fill:#dbbd84;}.cls-23{fill:#dabe86;}.cls-24{fill:#dabf88;}.cls-25{fill:#dcc18a;}.cls-26{fill:#dcc18b;}.cls-27{fill:#dec38c;}.cls-28{fill:#dec38e;}.cls-29{fill:#e0c58f;}.cls-30{fill:#e0c591;}.cls-31{fill:#e1c895;}.cls-32{fill:#e1c997;}.cls-33{fill:#e2ca99;}.cls-34{fill:#e2cb9a;}.cls-35{fill:#e5cd9d;}.cls-36{fill:#e2cd9e;}.cls-37{fill:#e4ce9f;}.cls-38{fill:#e4d0a2;}.cls-39{fill:#e4d0a4;}.cls-40{fill:#e6d2a5;}.cls-41{fill:#e6d2a7;}.cls-42{fill:#e8d4a9;}.cls-43{fill:#e6d5a9;}.cls-44{fill:#e6d5ab;}.cls-45{fill:#e9d8af;}.cls-46{fill:#ecdbb3;}.cls-47{fill:#ecdbb5;}.cls-48{fill:#eadab1;}.cls-49{fill:#e9d8b0;}.cls-50{fill:#ead8ae;}.cls-51{fill:#e7d7ae;}.cls-52{fill:#e7d5ac;}.cls-53{fill:#e7d5aa;}.cls-54{fill:#e7d3a9;}.cls-55{fill:#e5d3a8;}.cls-56{fill:#e5d2a5;}.cls-57{fill:#e2cfa3;}.cls-58{fill:#e2cfa1;}.cls-59{fill:#e2cea1;}.cls-60{fill:#e2ce9f;}.cls-61{fill:#e1cd9d;}.cls-62{fill:#e0cb9c;}.cls-63{fill:#e0cb9a;}.cls-64{fill:#dec898;}.cls-65{fill:#dec896;}.cls-66{fill:#dec694;}.cls-67{fill:#dcc491;}.cls-68{fill:#dcc390;}.cls-69{fill:#d9c28e;}.cls-70{fill:#d9c18e;}.cls-71{fill:#d9c18c;}.cls-72{fill:#d9c18a;}.cls-73{fill:#d9bf8a;}.cls-74{fill:#d8be88;}.cls-75{fill:#d8be87;}.cls-76{fill:#d8bd86;}.cls-77{fill:#d8bd84;}.cls-78{fill:#d7bb84;}.cls-79{fill:#d5ba82;}.cls-80{fill:#d5ba80;}.cls-81{fill:#d2b780;}.cls-82{fill:#d3b77e;}.cls-83{fill:#d1b57b;}.cls-84{fill:#d1b57a;}.cls-85{fill:#d1b37a;}.cls-86{fill:#d1b378;}.cls-87{fill:#ceb276;}.cls-88{fill:#ceb074;}.cls-89{fill:#ceae72;}.cls-90{fill:#cdae72;}.cls-91{fill:#ceb076;}.cls-92{fill:#d3b57b;}.cls-93{fill:#d5b87f;}.cls-94{fill:#d8bb82;}.cls-95{fill:#d9bf87;}.cls-96{fill:#d9bf88;}.cls-97{fill:#dcc28a;}.cls-98{fill:#dec48e;}.cls-99{fill:#dec490;}.cls-100{fill:#dec692;}.cls-101{fill:#e2c996;}.cls-102{fill:#e2cb99;}.cls-103{fill:#e5cf9d;}.cls-104{fill:#e7cf9f;}.cls-105{fill:#e7d1a1;}.cls-106{fill:#ead4a4;}.cls-107{fill:#e9d4a8;}.cls-108{fill:#ecd7aa;}.cls-109{fill:#ecd9ad;}.cls-110{fill:#eedbaf;}.cls-111{fill:#f1dcb1;}.cls-112{fill:#f1dfb4;}.cls-113{fill:#f1dfb6;}.cls-114{fill:#eedbb3;}.cls-115{fill:#ecdbb1;}.cls-116{fill:#ecd9b0;}.cls-117{fill:#ead8ad;}.cls-118{fill:#e9d6ac;}.cls-119{fill:#ead6aa;}.cls-120{fill:#e7d5a8;}.cls-121{fill:#e7d3a8;}.cls-122{fill:#e7d3a5;}.cls-123{fill:#e7d1a5;}.cls-124{fill:#e7d1a3;}.cls-125{fill:#e5d0a1;}.cls-126{fill:#e5cf9f;}.cls-127{fill:#e2cd9b;}.cls-128{fill:#e0c996;}.cls-129{fill:#e0c792;}.cls-130{fill:#e1c791;}.cls-131{fill:#dec48c;}.cls-132{fill:#dec48b;}.cls-133{fill:#dec28a;}.cls-134{fill:#dcc288;}.cls-135{fill:#dcc287;}.cls-136{fill:#dcc086;}.cls-137{fill:#dcbf84;}.cls-138{fill:#dabf83;}.cls-139{fill:#d9bd83;}.cls-140{fill:#dabd81;}.cls-141{fill:#d9bb80;}.cls-142{fill:#d8ba7e;}.cls-143{fill:#d8b87c;}.cls-144{fill:#d8b87a;}.cls-145{fill:#d8b878;}.cls-146{fill:#d5b678;}.cls-147{fill:#d5b677;}.cls-148{fill:#d5b474;}.cls-149{fill:#d3b373;}.cls-150{fill:#d3b270;}.cls-151{fill:#d3af6f;}.cls-152{fill:#d3af6d;}.cls-153{fill:#d1af6d;}.cls-154{fill:#d1af6b;}.cls-155{fill:#d1ad6a;}.cls-156{fill:#d1ad69;}.cls-157{fill:#cfad69;}.cls-158{fill:#cfab66;}.cls-159{fill:#fff;}</style><clipPath id="clip-path" transform="translate(-4.28 -14.05)"><path class="cls-1" d="M17.68,29a.2.2,0,0,0-.08.13.18.18,0,0,0,.16.19.2.2,0,0,0,.11,0,.2.2,0,0,0,.08-.13.18.18,0,0,0-.16-.2.15.15,0,0,0-.11,0Zm2.76-10,1.49,1.94.57.74a1.33,1.33,0,0,0-1.13.39c-.94,1-.73,2.77-.15,3.85A17,17,0,0,0,25.07,30l-.23.26.16.14a29.45,29.45,0,0,1,2.13-2.05,2.92,2.92,0,0,0-.37-.17,5.07,5.07,0,0,1-.52.55c-2.61-2.51-4.74-4.17-5-5.28s1-1.95,1.55-1.34a.73.73,0,0,0-1.06.67c-.1,1.12,1.61,1.21,1.72.06v0l.8,1,.52.69,6.82,5.68-1.35,1-1.34,1-.26.18a1.29,1.29,0,0,0-.37-1.23c-.95-.94-2.77-.73-3.84-.15a16.8,16.8,0,0,0-4.15,3.86L20,34.61l-.15.16A27.59,27.59,0,0,1,21.9,36.9a2,2,0,0,0,.17-.37,3.72,3.72,0,0,1-.55-.52c2.51-2.61,4.16-4.74,5.28-5s1.95,1,1.34,1.55a.73.73,0,0,0-.67-1.05.86.86,0,1,0-.06,1.71h.08l0,0-.82.6-.82.6L20,41.09l-1.48-1.94L18,38.41A1.33,1.33,0,0,0,19.09,38c.94-1,.73-2.77.14-3.85A16.37,16.37,0,0,0,15.38,30a3.08,3.08,0,0,1,.24-.27l-.16-.14a27.67,27.67,0,0,1-2.14,2.05,2.48,2.48,0,0,0,.38.17,6,6,0,0,1,.51-.55c2.62,2.51,4.75,4.17,5,5.28s-1,2-1.55,1.34a.73.73,0,0,0,1.05-.67c.1-1.12-1.61-1.21-1.71-.06v0l-.57-.74-.76-1L8.89,29.79l1.62-1.19,1.08-.79.25-.18a1.29,1.29,0,0,0,.37,1.23c.95.94,2.77.73,3.84.15a16.46,16.46,0,0,0,4.15-3.86l.26.24.15-.16a27.46,27.46,0,0,1-2.05-2.13,1.57,1.57,0,0,0-.18.37,4.31,4.31,0,0,1,.56.52c-2.51,2.61-4.17,4.74-5.28,5s-1.95-1-1.34-1.55A.72.72,0,0,0,13,28.52.86.86,0,1,0,13,26.81H13l0,0,.81-.6.82-.6,5.81-6.67Zm-2.09,11.4a.39.39,0,0,0,.18.22A1,1,0,0,1,19,31a.5.5,0,0,1,0,.43.39.39,0,0,0,.28.06.92.92,0,0,1,.68.09.54.54,0,0,1,.29.31.38.38,0,0,0,.25-.13,1,1,0,0,1,.58-.37.55.55,0,0,1,.43,0,.37.37,0,0,0,.1-.26,1,1,0,0,1,.21-.66.54.54,0,0,1,.36-.23.4.4,0,0,0-.09-.27.93.93,0,0,1-.26-.63A.52.52,0,0,1,22,29a.36.36,0,0,0-.24-.15,1,1,0,0,1-.61-.32.57.57,0,0,1-.17-.39.33.33,0,0,0-.28,0,1,1,0,0,1-.66.15.54.54,0,0,1-.39-.2.37.37,0,0,0-.18.22,1,1,0,0,1-.42.54.53.53,0,0,1-.42.09.4.4,0,0,0,0,.29,1,1,0,0,1,0,.68.54.54,0,0,1-.26.35Zm-.3-.74-.05.25a.11.11,0,0,0-.17.09c0,.16.2.27.4.16a.4.4,0,0,0,.15-.5,1.13,1.13,0,0,1,0-.68.82.82,0,0,1-.21-.25.42.42,0,0,1,.37-.61c.16,0,.3.21.3.21l-.2.15s-.05-.13-.19,0,0,.33.2.38a.43.43,0,0,0,.45-.29,1.4,1.4,0,0,1,.42-.53.74.74,0,0,1,0-.33.41.41,0,0,1,.67-.22c.12.1.09.35.09.35H20s0-.14-.12-.15-.23.24-.09.42a.41.41,0,0,0,.52.07,1.17,1.17,0,0,1,.67-.14.7.7,0,0,1,.21-.24.41.41,0,0,1,.66.25c0,.16-.15.33-.15.33l-.19-.16s.13-.08,0-.2-.32,0-.33.26.11.33.36.39a1.12,1.12,0,0,1,.59.33.74.74,0,0,1,.32-.05.41.41,0,0,1,.34.62c-.08.14-.33.15-.33.15l0-.24s.14,0,.12-.15-.27-.18-.42,0a.42.42,0,0,0,0,.53,1.15,1.15,0,0,1,.25.63.78.78,0,0,1,.28.17.41.41,0,0,1-.14.69c-.15.06-.35-.09-.35-.09l.13-.21a.11.11,0,0,0,.19,0c.08-.13-.09-.32-.31-.29a.41.41,0,0,0-.32.42,1.17,1.17,0,0,1-.22.64.75.75,0,0,1,.1.31.4.4,0,0,1-.55.44c-.15,0-.21-.29-.21-.29l.24-.08a.12.12,0,0,0,.17.1c.15,0,.13-.3-.06-.42a.41.41,0,0,0-.52.11,1.09,1.09,0,0,1-.58.35.64.64,0,0,1-.11.31.41.41,0,0,1-.71,0c-.08-.14,0-.36,0-.36l.23.09s-.09.12.07.18.29-.14.22-.35a.41.41,0,0,0-.47-.25,1.06,1.06,0,0,1-.67-.1.66.66,0,0,1-.28.16.41.41,0,0,1-.53-.47c0-.16.25-.26.25-.26l.12.22s-.14,0-.06.19.31.07.4-.14a.4.4,0,0,0-.2-.48,1.13,1.13,0,0,1-.45-.51.66.66,0,0,1-.32-.07.4.4,0,0,1-.11-.69c.12-.11.36,0,.36,0Zm.9-2a.16.16,0,0,0-.14.05.17.17,0,0,0,0,.24.14.14,0,0,0,.1,0,.18.18,0,0,0,.14,0,.2.2,0,0,0,0-.26.15.15,0,0,0-.11,0Zm1.87-.25a.18.18,0,0,0-.14-.06.18.18,0,0,0-.16.19.14.14,0,0,0,.05.11.2.2,0,0,0,.14.05.18.18,0,0,0,.16-.19.14.14,0,0,0-.05-.1Zm1.59,1a.21.21,0,0,0-.07-.14.19.19,0,0,0-.24.05.15.15,0,0,0,0,.11.21.21,0,0,0,.07.13.17.17,0,0,0,.25,0,.11.11,0,0,0,0-.11Zm.57,1.8A.2.2,0,0,0,23,30a.16.16,0,0,0-.21-.12.13.13,0,0,0-.1.06.19.19,0,0,0,0,.15.2.2,0,0,0,.22.13.22.22,0,0,0,.09-.07Zm-.72,1.74a.19.19,0,0,0,.12-.1.18.18,0,0,0-.08-.23.17.17,0,0,0-.12,0,.18.18,0,0,0-.12.09.19.19,0,0,0,.08.24.17.17,0,0,0,.12,0Zm-1.67.87a.17.17,0,0,0,.24-.23.2.2,0,0,0-.08-.08.26.26,0,0,0-.15,0,.19.19,0,0,0-.09.24.11.11,0,0,0,.08.08Zm-1.84-.41a.17.17,0,0,0,.33,0,.14.14,0,0,0,0-.11.17.17,0,0,0-.33,0,.14.14,0,0,0,0,.11ZM17.6,30.83a.19.19,0,0,0,0,.15.18.18,0,0,0,.25,0,.15.15,0,0,0,.06-.09.16.16,0,0,0,0-.15.19.19,0,0,0-.25-.05A.21.21,0,0,0,17.6,30.83Z"/></clipPath></defs><rect class="cls-2" x="2.19" y="2.2" width="27.51" height="27.51" rx="13.75"/><g class="cls-3"><polygon class="cls-4" points="16.18 16.18 16.23 32.35 16.52 32.35 16.18 16.18"/><polygon class="cls-5" points="16.18 16.18 16.47 32.35 16.72 32.34 16.18 16.18"/><polygon class="cls-5" points="16.18 16.18 16.67 32.34 16.92 32.33 16.18 16.18"/><polygon class="cls-6" points="16.18 16.18 16.87 32.34 17.12 32.32 16.18 16.18"/><polygon class="cls-7" points="16.18 16.18 17.07 32.33 17.32 32.31 16.18 16.18"/><polygon class="cls-7" points="16.18 16.18 17.27 32.31 17.52 32.29 16.18 16.18"/><polygon class="cls-8" points="16.18 16.18 17.47 32.3 17.72 32.28 16.18 16.18"/><polygon class="cls-8" points="16.18 16.18 17.67 32.28 17.91 32.26 16.18 16.18"/><polygon class="cls-9" points="16.18 16.18 17.87 32.26 18.11 32.23 16.18 16.18"/><polygon class="cls-10" points="16.18 16.18 18.06 32.24 18.31 32.21 16.18 16.18"/><polygon class="cls-10" points="16.18 16.18 18.26 32.22 18.51 32.18 16.18 16.18"/><polygon class="cls-11" points="16.18 16.18 18.46 32.19 18.7 32.15 16.18 16.18"/><polygon class="cls-12" points="16.18 16.18 18.66 32.16 18.9 32.12 16.18 16.18"/><polygon class="cls-12" points="16.18 16.18 18.85 32.13 19.1 32.08 16.18 16.18"/><polygon class="cls-13" points="16.18 16.18 19.05 32.09 19.29 32.05 16.18 16.18"/><polygon class="cls-14" points="16.18 16.18 19.25 32.06 19.49 32.01 16.18 16.18"/><polygon class="cls-15" points="16.18 16.18 19.44 32.02 19.68 31.96 16.18 16.18"/><polygon class="cls-15" points="16.18 16.18 19.64 31.98 19.88 31.92 16.18 16.18"/><polygon class="cls-15" points="16.18 16.18 19.83 31.93 20.07 31.87 16.18 16.18"/><polygon class="cls-16" points="16.18 16.18 20.02 31.89 20.27 31.82 16.18 16.18"/><polygon class="cls-16" points="16.18 16.18 20.22 31.84 20.46 31.77 16.18 16.18"/><polygon class="cls-17" points="16.18 16.18 20.41 31.79 20.65 31.72 16.18 16.18"/><polygon class="cls-17" points="16.18 16.18 20.6 31.73 20.84 31.66 16.18 16.18"/><polygon class="cls-18" points="16.18 16.18 20.79 31.68 21.03 31.6 16.18 16.18"/><polygon class="cls-19" points="16.18 16.18 20.98 31.62 21.22 31.54 16.18 16.18"/><polygon class="cls-19" points="16.18 16.18 21.17 31.56 21.41 31.48 16.18 16.18"/><polygon class="cls-20" points="16.18 16.18 21.36 31.5 21.6 31.41 16.18 16.18"/><polygon class="cls-21" points="16.18 16.18 21.55 31.43 21.79 31.35 16.18 16.18"/><polygon class="cls-21" points="16.18 16.18 21.74 31.36 21.97 31.28 16.18 16.18"/><polygon class="cls-22" points="16.18 16.18 21.93 31.29 22.16 31.2 16.18 16.18"/><polygon class="cls-22" points="16.18 16.18 22.11 31.22 22.34 31.13 16.18 16.18"/><polygon class="cls-23" points="16.18 16.18 22.3 31.15 22.53 31.05 16.18 16.18"/><polygon class="cls-23" points="16.18 16.18 22.48 31.07 22.71 30.97 16.18 16.18"/><polygon class="cls-23" points="16.18 16.18 22.66 30.99 22.89 30.89 16.18 16.18"/><polygon class="cls-24" points="16.18 16.18 22.84 30.91 23.07 30.81 16.18 16.18"/><polygon class="cls-25" points="16.18 16.18 23.03 30.83 23.25 30.72 16.18 16.18"/><polygon class="cls-26" points="16.18 16.18 23.21 30.74 23.43 30.63 16.18 16.18"/><polygon class="cls-27" points="16.18 16.18 23.39 30.65 23.61 30.54 16.18 16.18"/><polygon class="cls-28" points="16.18 16.18 23.56 30.56 23.78 30.45 16.18 16.18"/><polygon class="cls-28" points="16.18 16.18 23.74 30.47 23.96 30.35 16.18 16.18"/><polygon class="cls-29" points="16.18 16.18 23.91 30.38 24.13 30.26 16.18 16.18"/><polygon class="cls-30" points="16.18 16.18 24.09 30.28 24.31 30.16 16.18 16.18"/><polygon class="cls-31" points="16.18 16.18 24.26 30.18 24.48 30.06 16.18 16.18"/><polygon class="cls-31" points="16.18 16.18 24.43 30.08 24.65 29.95 16.18 16.18"/><polygon class="cls-32" points="16.18 16.18 24.61 29.98 24.82 29.85 16.18 16.18"/><polygon class="cls-32" points="16.18 16.18 24.77 29.88 24.98 29.74 16.18 16.18"/><polygon class="cls-33" points="16.18 16.18 24.94 29.77 25.15 29.63 16.18 16.18"/><polygon class="cls-34" points="16.18 16.18 25.11 29.66 25.32 29.52 16.18 16.18"/><polygon class="cls-35" points="16.18 16.18 25.27 29.55 25.48 29.41 16.18 16.18"/><polygon class="cls-36" points="16.18 16.18 25.44 29.43 25.64 29.29 16.18 16.18"/><polygon class="cls-36" points="16.18 16.18 25.6 29.32 25.8 29.17 16.18 16.18"/><polygon class="cls-37" points="16.18 16.18 25.76 29.2 25.96 29.05 16.18 16.18"/><polygon class="cls-38" points="16.18 16.18 25.92 29.08 26.12 28.93 16.18 16.18"/><polygon class="cls-39" points="16.18 16.18 26.08 28.96 26.28 28.81 16.18 16.18"/><polygon class="cls-40" points="16.18 16.18 26.24 28.84 26.43 28.68 16.18 16.18"/><polygon class="cls-41" points="16.18 16.18 26.39 28.71 26.59 28.56 16.18 16.18"/><polygon class="cls-42" points="16.18 16.18 26.55 28.59 26.74 28.43 16.18 16.18"/><polygon class="cls-43" points="16.18 16.18 26.7 28.46 26.89 28.3 16.18 16.18"/><polygon class="cls-44" points="16.18 16.18 26.85 28.33 27.04 28.16 16.18 16.18"/><polygon class="cls-45" points="16.18 16.18 27 28.2 27.18 28.03 16.18 16.18"/><polygon class="cls-45" points="16.18 16.18 27.14 28.06 27.33 27.89 16.18 16.18"/><polygon class="cls-46" points="16.18 16.18 27.29 27.93 27.47 27.75 16.18 16.18"/><polygon class="cls-46" points="16.18 16.18 27.43 27.79 27.61 27.61 16.18 16.18"/><polygon class="cls-47" points="16.18 16.18 27.58 27.65 27.75 27.47 16.18 16.18"/><polygon class="cls-46" points="16.18 16.18 27.72 27.51 27.89 27.33 16.18 16.18"/><polygon class="cls-48" points="16.18 16.18 27.86 27.36 28.03 27.18 16.18 16.18"/><polygon class="cls-49" points="16.18 16.18 27.99 27.22 28.16 27.04 16.18 16.18"/><polygon class="cls-50" points="16.18 16.18 28.13 27.07 28.3 26.89 16.18 16.18"/><polygon class="cls-51" points="16.18 16.18 28.26 26.92 28.43 26.74 16.18 16.18"/><polygon class="cls-52" points="16.18 16.18 28.39 26.77 28.56 26.59 16.18 16.18"/><polygon class="cls-52" points="16.18 16.18 28.52 26.62 28.68 26.43 16.18 16.18"/><polygon class="cls-53" points="16.18 16.18 28.65 26.47 28.81 26.28 16.18 16.18"/><polygon class="cls-53" points="16.18 16.18 28.78 26.32 28.93 26.12 16.18 16.18"/><polygon class="cls-54" points="16.18 16.18 28.9 26.16 29.05 25.96 16.18 16.18"/><polygon class="cls-55" points="16.18 16.18 29.02 26 29.17 25.8 16.18 16.18"/><polygon class="cls-56" points="16.18 16.18 29.14 25.84 29.29 25.64 16.18 16.18"/><polygon class="cls-56" points="16.18 16.18 29.26 25.68 29.41 25.48 16.18 16.18"/><polygon class="cls-57" points="16.18 16.18 29.38 25.52 29.52 25.32 16.18 16.18"/><polygon class="cls-57" points="16.18 16.18 29.49 25.36 29.63 25.15 16.18 16.18"/><polygon class="cls-58" points="16.18 16.18 29.6 25.19 29.74 24.98 16.18 16.18"/><polygon class="cls-59" points="16.18 16.18 29.71 25.03 29.85 24.82 16.18 16.18"/><polygon class="cls-60" points="16.18 16.18 29.82 24.86 29.95 24.65 16.18 16.18"/><polygon class="cls-61" points="16.18 16.18 29.93 24.69 30.06 24.48 16.18 16.18"/><polygon class="cls-61" points="16.18 16.18 30.03 24.52 30.16 24.31 16.18 16.18"/><polygon class="cls-62" points="16.18 16.18 30.13 24.35 30.26 24.13 16.18 16.18"/><polygon class="cls-63" points="16.18 16.18 30.23 24.18 30.35 23.96 16.18 16.18"/><polygon class="cls-63" points="16.18 16.18 30.33 24 30.45 23.78 16.18 16.18"/><polygon class="cls-64" points="16.18 16.18 30.43 23.83 30.54 23.61 16.18 16.18"/><polygon class="cls-65" points="16.18 16.18 30.52 23.65 30.63 23.43 16.18 16.18"/><polygon class="cls-65" points="16.18 16.18 30.61 23.47 30.72 23.25 16.18 16.18"/><polygon class="cls-65" points="16.18 16.18 30.7 23.3 30.81 23.07 16.18 16.18"/><polygon class="cls-66" points="16.18 16.18 30.79 23.12 30.89 22.89 16.18 16.18"/><polygon class="cls-66" points="16.18 16.18 30.87 22.94 30.97 22.71 16.18 16.18"/><polygon class="cls-67" points="16.18 16.18 30.95 22.75 31.05 22.53 16.18 16.18"/><polygon class="cls-67" points="16.18 16.18 31.03 22.57 31.13 22.34 16.18 16.18"/><polygon class="cls-68" points="16.18 16.18 31.11 22.39 31.2 22.16 16.18 16.18"/><polygon class="cls-69" points="16.18 16.18 31.18 22.2 31.28 21.97 16.18 16.18"/><polygon class="cls-69" points="16.18 16.18 31.26 22.02 31.35 21.79 16.18 16.18"/><polygon class="cls-70" points="16.18 16.18 31.33 21.83 31.41 21.6 16.18 16.18"/><polygon class="cls-71" points="16.18 16.18 31.4 21.64 31.48 21.41 16.18 16.18"/><polygon class="cls-72" points="16.18 16.18 31.46 21.46 31.54 21.22 16.18 16.18"/><polygon class="cls-73" points="16.18 16.18 31.53 21.27 31.6 21.03 16.18 16.18"/><polygon class="cls-74" points="16.18 16.18 31.59 21.08 31.66 20.84 16.18 16.18"/><polygon class="cls-74" points="16.18 16.18 31.65 20.89 31.72 20.65 16.18 16.18"/><polygon class="cls-75" points="16.18 16.18 31.7 20.7 31.77 20.46 16.18 16.18"/><polygon class="cls-76" points="16.18 16.18 31.76 20.51 31.82 20.27 16.18 16.18"/><polygon class="cls-77" points="16.18 16.18 31.81 20.31 31.87 20.07 16.18 16.18"/><polygon class="cls-78" points="16.18 16.18 31.86 20.12 31.92 19.88 16.18 16.18"/><polygon class="cls-79" points="16.18 16.18 31.91 19.93 31.96 19.68 16.18 16.18"/><polygon class="cls-79" points="16.18 16.18 31.95 19.73 32.01 19.49 16.18 16.18"/><polygon class="cls-80" points="16.18 16.18 32 19.54 32.05 19.29 16.18 16.18"/><polygon class="cls-81" points="16.18 16.18 32.04 19.34 32.08 19.1 16.18 16.18"/><polygon class="cls-81" points="16.18 16.18 32.08 19.15 32.12 18.9 16.18 16.18"/><polygon class="cls-81" points="16.18 16.18 32.11 18.95 32.15 18.71 16.18 16.18"/><polygon class="cls-82" points="16.18 16.18 32.14 18.75 32.18 18.51 16.18 16.18"/><polygon class="cls-82" points="16.18 16.18 32.17 18.56 32.21 18.31 16.18 16.18"/><polygon class="cls-83" points="16.18 16.18 32.2 18.36 32.23 18.11 16.18 16.18"/><polygon class="cls-84" points="16.18 16.18 32.23 18.16 32.26 17.92 16.18 16.18"/><polygon class="cls-84" points="16.18 16.18 32.25 17.96 32.28 17.72 16.18 16.18"/><polygon class="cls-85" points="16.18 16.18 32.27 17.77 32.3 17.52 16.18 16.18"/><polygon class="cls-86" points="16.18 16.18 32.29 17.57 32.31 17.32 16.18 16.18"/><polygon class="cls-87" points="16.18 16.18 32.31 17.37 32.32 17.12 16.18 16.18"/><polygon class="cls-87" points="16.18 16.18 32.32 17.17 32.33 16.92 16.18 16.18"/><polygon class="cls-88" points="16.18 16.18 32.33 16.97 32.34 16.72 16.18 16.18"/><polygon class="cls-88" points="16.18 16.18 32.34 16.77 32.35 16.52 16.18 16.18"/><polygon class="cls-89" points="16.18 16.18 32.34 16.57 32.35 16.32 16.18 16.18"/><polygon class="cls-90" points="16.18 16.18 32.35 16.38 32.35 16.13 16.18 16.18"/><polygon class="cls-89" points="16.18 16.18 32.35 16.18 32.35 15.93 16.18 16.18"/><polygon class="cls-91" points="16.18 16.18 32.35 15.98 32.34 15.73 16.18 16.18"/><polygon class="cls-86" points="16.18 16.18 32.34 15.78 32.34 15.53 16.18 16.18"/><polygon class="cls-85" points="16.18 16.18 32.34 15.58 32.33 15.33 16.18 16.18"/><polygon class="cls-92" points="16.18 16.18 32.33 15.38 32.32 15.13 16.18 16.18"/><polygon class="cls-82" points="16.18 16.18 32.32 15.18 32.3 14.93 16.18 16.18"/><polygon class="cls-93" points="16.18 16.18 32.31 14.98 32.29 14.73 16.18 16.18"/><polygon class="cls-94" points="16.18 16.18 32.29 14.78 32.27 14.53 16.18 16.18"/><polygon class="cls-77" points="16.18 16.18 32.27 14.58 32.24 14.34 16.18 16.18"/><polygon class="cls-95" points="16.18 16.18 32.25 14.38 32.22 14.14 16.18 16.18"/><polygon class="cls-96" points="16.18 16.18 32.23 14.19 32.2 13.94 16.18 16.18"/><polygon class="cls-97" points="16.18 16.18 32.2 13.99 32.17 13.74 16.18 16.18"/><polygon class="cls-98" points="16.18 16.18 32.17 13.79 32.13 13.55 16.18 16.18"/><polygon class="cls-99" points="16.18 16.18 32.14 13.6 32.1 13.35 16.18 16.18"/><polygon class="cls-100" points="16.18 16.18 32.11 13.4 32.07 13.15 16.18 16.18"/><polygon class="cls-31" points="16.18 16.18 32.08 13.2 32.03 12.96 16.18 16.18"/><polygon class="cls-101" points="16.18 16.18 32.04 13.01 31.99 12.76 16.18 16.18"/><polygon class="cls-102" points="16.18 16.18 32 12.81 31.94 12.57 16.18 16.18"/><polygon class="cls-103" points="16.18 16.18 31.95 12.62 31.9 12.38 16.18 16.18"/><polygon class="cls-104" points="16.18 16.18 31.91 12.42 31.85 12.18 16.18 16.18"/><polygon class="cls-105" points="16.18 16.18 31.86 12.23 31.8 11.99 16.18 16.18"/><polygon class="cls-106" points="16.18 16.18 31.81 12.04 31.75 11.8 16.18 16.18"/><polygon class="cls-107" points="16.18 16.18 31.76 11.85 31.69 11.61 16.18 16.18"/><polygon class="cls-108" points="16.18 16.18 31.7 11.65 31.63 11.41 16.18 16.18"/><polygon class="cls-109" points="16.18 16.18 31.65 11.46 31.57 11.22 16.18 16.18"/><polygon class="cls-110" points="16.18 16.18 31.59 11.27 31.51 11.04 16.18 16.18"/><polygon class="cls-111" points="16.18 16.18 31.53 11.08 31.45 10.85 16.18 16.18"/><polygon class="cls-112" points="16.18 16.18 31.46 10.89 31.38 10.66 16.18 16.18"/><polygon class="cls-113" points="16.18 16.18 31.4 10.71 31.31 10.47 16.18 16.18"/><polygon class="cls-113" points="16.18 16.18 31.33 10.52 31.24 10.29 16.18 16.18"/><polygon class="cls-113" points="16.18 16.18 31.26 10.33 31.17 10.1 16.18 16.18"/><polygon class="cls-113" points="16.18 16.18 31.18 10.15 31.09 9.92 16.18 16.18"/><polygon class="cls-113" points="16.18 16.18 31.11 9.96 31.01 9.73 16.18 16.18"/><polygon class="cls-113" points="16.18 16.18 31.03 9.78 30.93 9.55 16.18 16.18"/><polygon class="cls-113" points="16.18 16.18 30.95 9.6 30.85 9.37 16.18 16.18"/><polygon class="cls-113" points="16.18 16.18 30.87 9.41 30.76 9.19 16.18 16.18"/><polygon class="cls-113" points="16.18 16.18 30.79 9.23 30.68 9.01 16.18 16.18"/><polygon class="cls-113" points="16.18 16.18 30.7 9.05 30.59 8.83 16.18 16.18"/><polygon class="cls-113" points="16.18 16.18 30.61 8.88 30.5 8.65 16.18 16.18"/><polygon class="cls-113" points="16.18 16.18 30.52 8.7 30.4 8.48 16.18 16.18"/><polygon class="cls-113" points="16.18 16.18 30.43 8.52 30.31 8.3 16.18 16.18"/><polygon class="cls-113" points="16.18 16.18 30.33 8.35 30.21 8.13 16.18 16.18"/><polygon class="cls-112" points="16.18 16.18 30.23 8.17 30.11 7.96 16.18 16.18"/><polygon class="cls-112" points="16.18 16.18 30.13 8 30.01 7.79 16.18 16.18"/><polygon class="cls-112" points="16.18 16.18 30.03 7.83 29.9 7.62 16.18 16.18"/><polygon class="cls-112" points="16.18 16.18 29.93 7.66 29.8 7.45 16.18 16.18"/><polygon class="cls-112" points="16.18 16.18 29.82 7.49 29.69 7.28 16.18 16.18"/><polygon class="cls-114" points="16.18 16.18 29.71 7.32 29.58 7.12 16.18 16.18"/><polygon class="cls-114" points="16.18 16.18 29.6 7.16 29.46 6.95 16.18 16.18"/><polygon class="cls-114" points="16.18 16.18 29.49 6.99 29.35 6.79 16.18 16.18"/><polygon class="cls-114" points="16.18 16.18 29.38 6.83 29.23 6.63 16.18 16.18"/><polygon class="cls-114" points="16.18 16.18 29.26 6.67 29.11 6.47 16.18 16.18"/><polygon class="cls-114" points="16.18 16.18 29.14 6.51 28.99 6.31 16.18 16.18"/><polygon class="cls-114" points="16.18 16.18 29.02 6.35 28.87 6.15 16.18 16.18"/><polygon class="cls-114" points="16.18 16.18 28.9 6.19 28.75 6 16.18 16.18"/><polygon class="cls-114" points="16.18 16.18 28.78 6.04 28.62 5.84 16.18 16.18"/><polygon class="cls-114" points="16.18 16.18 28.65 5.88 28.49 5.69 16.18 16.18"/><polygon class="cls-115" points="16.18 16.18 28.52 5.73 28.36 5.54 16.18 16.18"/><polygon class="cls-115" points="16.18 16.18 28.39 5.58 28.23 5.39 16.18 16.18"/><polygon class="cls-115" points="16.18 16.18 28.26 5.43 28.09 5.24 16.18 16.18"/><polygon class="cls-115" points="16.18 16.18 28.13 5.28 27.96 5.09 16.18 16.18"/><polygon class="cls-115" points="16.18 16.18 27.99 5.13 27.82 4.95 16.18 16.18"/><polygon class="cls-115" points="16.18 16.18 27.86 4.99 27.68 4.81 16.18 16.18"/><polygon class="cls-115" points="16.18 16.18 27.72 4.84 27.54 4.67 16.18 16.18"/><polygon class="cls-116" points="16.18 16.18 27.58 4.7 27.4 4.53 16.18 16.18"/><polygon class="cls-50" points="16.18 16.18 27.43 4.56 27.25 4.39 16.18 16.18"/><polygon class="cls-117" points="16.18 16.18 27.29 4.42 27.11 4.25 16.18 16.18"/><polygon class="cls-118" points="16.18 16.18 27.14 4.29 26.96 4.12 16.18 16.18"/><polygon class="cls-119" points="16.18 16.18 27 4.16 26.81 3.99 16.18 16.18"/><polygon class="cls-53" points="16.18 16.18 26.85 4.02 26.66 3.86 16.18 16.18"/><polygon class="cls-120" points="16.18 16.18 26.7 3.89 26.51 3.73 16.18 16.18"/><polygon class="cls-121" points="16.18 16.18 26.55 3.76 26.36 3.6 16.18 16.18"/><polygon class="cls-122" points="16.18 16.18 26.39 3.64 26.2 3.48 16.18 16.18"/><polygon class="cls-123" points="16.18 16.18 26.24 3.51 26.04 3.36 16.18 16.18"/><polygon class="cls-124" points="16.18 16.18 26.08 3.39 25.88 3.24 16.18 16.18"/><polygon class="cls-125" points="16.18 16.18 25.92 3.27 25.72 3.12 16.18 16.18"/><polygon class="cls-125" points="16.18 16.18 25.76 3.15 25.56 3 16.18 16.18"/><polygon class="cls-126" points="16.18 16.18 25.6 3.03 25.4 2.89 16.18 16.18"/><polygon class="cls-103" points="16.18 16.18 25.44 2.92 25.23 2.77 16.18 16.18"/><polygon class="cls-103" points="16.18 16.18 25.27 2.8 25.07 2.66 16.18 16.18"/><polygon class="cls-127" points="16.18 16.18 25.11 2.69 24.9 2.56 16.18 16.18"/><polygon class="cls-102" points="16.18 16.18 24.94 2.58 24.73 2.45 16.18 16.18"/><polygon class="cls-102" points="16.18 16.18 24.77 2.48 24.56 2.35 16.18 16.18"/><polygon class="cls-102" points="16.18 16.18 24.61 2.37 24.39 2.24 16.18 16.18"/><polygon class="cls-101" points="16.18 16.18 24.43 2.27 24.22 2.14 16.18 16.18"/><polygon class="cls-128" points="16.18 16.18 24.26 2.17 24.05 2.04 16.18 16.18"/><polygon class="cls-31" points="16.18 16.18 24.09 2.07 23.87 1.95 16.18 16.18"/><polygon class="cls-129" points="16.18 16.18 23.91 1.97 23.7 1.85 16.18 16.18"/><polygon class="cls-129" points="16.18 16.18 23.74 1.88 23.52 1.76 16.18 16.18"/><polygon class="cls-130" points="16.18 16.18 23.56 1.79 23.34 1.67 16.18 16.18"/><polygon class="cls-98" points="16.18 16.18 23.39 1.7 23.16 1.59 16.18 16.18"/><polygon class="cls-98" points="16.18 16.18 23.21 1.61 22.98 1.5 16.18 16.18"/><polygon class="cls-131" points="16.18 16.18 23.03 1.52 22.8 1.42 16.18 16.18"/><polygon class="cls-132" points="16.18 16.18 22.84 1.44 22.62 1.34 16.18 16.18"/><polygon class="cls-133" points="16.18 16.18 22.66 1.36 22.43 1.26 16.18 16.18"/><polygon class="cls-133" points="16.18 16.18 22.48 1.28 22.25 1.18 16.18 16.18"/><polygon class="cls-134" points="16.18 16.18 22.3 1.2 22.07 1.11 16.18 16.18"/><polygon class="cls-135" points="16.18 16.18 22.11 1.13 21.88 1.04 16.18 16.18"/><polygon class="cls-136" points="16.18 16.18 21.93 1.06 21.69 0.97 16.18 16.18"/><polygon class="cls-137" points="16.18 16.18 21.74 0.99 21.5 0.9 16.18 16.18"/><polygon class="cls-138" points="16.18 16.18 21.55 0.92 21.32 0.84 16.18 16.18"/><polygon class="cls-139" points="16.18 16.18 21.36 0.85 21.13 0.78 16.18 16.18"/><polygon class="cls-140" points="16.18 16.18 21.17 0.79 20.94 0.72 16.18 16.18"/><polygon class="cls-140" points="16.18 16.18 20.98 0.73 20.75 0.66 16.18 16.18"/><polygon class="cls-141" points="16.18 16.18 20.79 0.67 20.55 0.6 16.18 16.18"/><polygon class="cls-141" points="16.18 16.18 20.6 0.62 20.36 0.55 16.18 16.18"/><polygon class="cls-142" points="16.18 16.18 20.41 0.56 20.17 0.5 16.18 16.18"/><polygon class="cls-142" points="16.18 16.18 20.22 0.51 19.98 0.45 16.18 16.18"/><polygon class="cls-143" points="16.18 16.18 20.02 0.47 19.78 0.41 16.18 16.18"/><polygon class="cls-144" points="16.18 16.18 19.83 0.42 19.59 0.36 16.18 16.18"/><polygon class="cls-144" points="16.18 16.18 19.64 0.38 19.39 0.32 16.18 16.18"/><polygon class="cls-145" points="16.18 16.18 19.44 0.33 19.2 0.28 16.18 16.18"/><polygon class="cls-146" points="16.18 16.18 19.25 0.29 19 0.25 16.18 16.18"/><polygon class="cls-147" points="16.18 16.18 19.05 0.26 18.8 0.21 16.18 16.18"/><polygon class="cls-148" points="16.18 16.18 18.85 0.22 18.61 0.18 16.18 16.18"/><polygon class="cls-148" points="16.18 16.18 18.66 0.19 18.41 0.15 16.18 16.18"/><polygon class="cls-149" points="16.18 16.18 18.46 0.16 18.21 0.13 16.18 16.18"/><polygon class="cls-149" points="16.18 16.18 18.26 0.14 18.02 0.1 16.18 16.18"/><polygon class="cls-150" points="16.18 16.18 18.06 0.11 17.82 0.08 16.18 16.18"/><polygon class="cls-150" points="16.18 16.18 17.87 0.09 17.62 0.06 16.18 16.18"/><polygon class="cls-151" points="16.18 16.18 17.67 0.07 17.42 0.05 16.18 16.18"/><polygon class="cls-152" points="16.18 16.18 17.47 0.05 17.22 0.03 16.18 16.18"/><polygon class="cls-153" points="16.18 16.18 17.27 0.04 17.02 0.02 16.18 16.18"/><polygon class="cls-154" points="16.18 16.18 17.07 0.03 16.82 0.01 16.18 16.18"/><polygon class="cls-155" points="16.18 16.18 16.87 0.01 16.62 0.01 16.18 16.18"/><polygon class="cls-156" points="16.18 16.18 16.67 0.01 16.42 0 16.18 16.18"/><polygon class="cls-157" points="16.18 16.18 16.47 0 16.23 0 16.18 16.18"/><polygon class="cls-158" points="16.18 16.18 16.27 0 16.03 0 16.18 16.18"/><polygon class="cls-157" points="16.18 16.18 16.07 0 15.83 0 16.18 16.18"/><polygon class="cls-156" points="16.18 16.18 15.88 0 15.63 0.01 16.18 16.18"/><polygon class="cls-155" points="16.18 16.18 15.68 0.01 15.43 0.02 16.18 16.18"/><polygon class="cls-154" points="16.18 16.18 15.48 0.01 15.23 0.03 16.18 16.18"/><polygon class="cls-153" points="16.18 16.18 15.28 0.03 15.03 0.04 16.18 16.18"/><polygon class="cls-152" points="16.18 16.18 15.08 0.04 14.83 0.06 16.18 16.18"/><polygon class="cls-151" points="16.18 16.18 14.88 0.05 14.63 0.07 16.18 16.18"/><polygon class="cls-150" points="16.18 16.18 14.68 0.07 14.44 0.09 16.18 16.18"/><polygon class="cls-150" points="16.18 16.18 14.48 0.09 14.24 0.12 16.18 16.18"/><polygon class="cls-149" points="16.18 16.18 14.29 0.11 14.04 0.14 16.18 16.18"/><polygon class="cls-149" points="16.18 16.18 14.09 0.14 13.84 0.17 16.18 16.18"/><polygon class="cls-148" points="16.18 16.18 13.89 0.16 13.64 0.2 16.18 16.18"/><polygon class="cls-148" points="16.18 16.18 13.69 0.19 13.45 0.23 16.18 16.18"/><polygon class="cls-147" points="16.18 16.18 13.5 0.22 13.25 0.27 16.18 16.18"/><polygon class="cls-146" points="16.18 16.18 13.3 0.26 13.06 0.3 16.18 16.18"/><polygon class="cls-145" points="16.18 16.18 13.11 0.29 12.86 0.34 16.18 16.18"/><polygon class="cls-144" points="16.18 16.18 12.91 0.33 12.67 0.39 16.18 16.18"/><polygon class="cls-144" points="16.18 16.18 12.71 0.38 12.47 0.43 16.18 16.18"/><polygon class="cls-143" points="16.18 16.18 12.52 0.42 12.28 0.48 16.18 16.18"/><polygon class="cls-142" points="16.18 16.18 12.33 0.47 12.09 0.53 16.18 16.18"/><polygon class="cls-142" points="16.18 16.18 12.13 0.51 11.89 0.58 16.18 16.18"/><polygon class="cls-141" points="16.18 16.18 11.94 0.56 11.7 0.63 16.18 16.18"/><polygon class="cls-141" points="16.18 16.18 11.75 0.62 11.51 0.69 16.18 16.18"/><polygon class="cls-140" points="16.18 16.18 11.56 0.67 11.32 0.75 16.18 16.18"/><polygon class="cls-140" points="16.18 16.18 11.37 0.73 11.13 0.81 16.18 16.18"/><polygon class="cls-139" points="16.18 16.18 11.18 0.79 10.94 0.87 16.18 16.18"/><polygon class="cls-138" points="16.18 16.18 10.99 0.85 10.75 0.94 16.18 16.18"/><polygon class="cls-137" points="16.18 16.18 10.8 0.92 10.56 1 16.18 16.18"/><polygon class="cls-136" points="16.18 16.18 10.61 0.99 10.38 1.07 16.18 16.18"/><polygon class="cls-135" points="16.18 16.18 10.43 1.06 10.19 1.15 16.18 16.18"/><polygon class="cls-134" points="16.18 16.18 10.24 1.13 10.01 1.22 16.18 16.18"/><polygon class="cls-133" points="16.18 16.18 10.05 1.2 9.82 1.3 16.18 16.18"/><polygon class="cls-133" points="16.18 16.18 9.87 1.28 9.64 1.38 16.18 16.18"/><polygon class="cls-132" points="16.18 16.18 9.69 1.36 9.46 1.46 16.18 16.18"/><polygon class="cls-131" points="16.18 16.18 9.51 1.44 9.28 1.54 16.18 16.18"/><polygon class="cls-98" points="16.18 16.18 9.32 1.52 9.1 1.63 16.18 16.18"/><polygon class="cls-98" points="16.18 16.18 9.14 1.61 8.92 1.72 16.18 16.18"/><polygon class="cls-130" points="16.18 16.18 8.96 1.7 8.74 1.81 16.18 16.18"/><polygon class="cls-129" points="16.18 16.18 8.79 1.79 8.57 1.9 16.18 16.18"/><polygon class="cls-129" points="16.18 16.18 8.61 1.88 8.39 2 16.18 16.18"/><polygon class="cls-31" points="16.18 16.18 8.44 1.97 8.22 2.09 16.18 16.18"/><polygon class="cls-128" points="16.18 16.18 8.26 2.07 8.04 2.19 16.18 16.18"/><polygon class="cls-101" points="16.18 16.18 8.09 2.17 7.87 2.29 16.18 16.18"/><polygon class="cls-102" points="16.18 16.18 7.92 2.27 7.7 2.4 16.18 16.18"/><polygon class="cls-102" points="16.18 16.18 7.75 2.37 7.53 2.5 16.18 16.18"/><polygon class="cls-102" points="16.18 16.18 7.58 2.48 7.37 2.61 16.18 16.18"/><polygon class="cls-127" points="16.18 16.18 7.41 2.58 7.2 2.72 16.18 16.18"/><polygon class="cls-103" points="16.18 16.18 7.24 2.69 7.03 2.83 16.18 16.18"/><polygon class="cls-103" points="16.18 16.18 7.08 2.8 6.87 2.94 16.18 16.18"/><polygon class="cls-126" points="16.18 16.18 6.91 2.92 6.71 3.06 16.18 16.18"/><polygon class="cls-125" points="16.18 16.18 6.75 3.03 6.55 3.18 16.18 16.18"/><polygon class="cls-125" points="16.18 16.18 6.59 3.15 6.39 3.3 16.18 16.18"/><polygon class="cls-124" points="16.18 16.18 6.43 3.27 6.23 3.42 16.18 16.18"/><polygon class="cls-123" points="16.18 16.18 6.27 3.39 6.07 3.54 16.18 16.18"/><polygon class="cls-122" points="16.18 16.18 6.11 3.51 5.92 3.67 16.18 16.18"/><polygon class="cls-121" points="16.18 16.18 5.96 3.64 5.76 3.79 16.18 16.18"/><polygon class="cls-120" points="16.18 16.18 5.8 3.76 5.61 3.92 16.18 16.18"/><polygon class="cls-53" points="16.18 16.18 5.65 3.89 5.46 4.05 16.18 16.18"/><polygon class="cls-119" points="16.18 16.18 5.5 4.02 5.32 4.19 16.18 16.18"/><polygon class="cls-118" points="16.18 16.18 5.35 4.16 5.17 4.32 16.18 16.18"/><polygon class="cls-117" points="16.18 16.18 5.21 4.29 5.02 4.46 16.18 16.18"/><polygon class="cls-50" points="16.18 16.18 5.06 4.42 4.88 4.6 16.18 16.18"/><polygon class="cls-116" points="16.18 16.18 4.92 4.56 4.74 4.74 16.18 16.18"/><polygon class="cls-115" points="16.18 16.18 4.77 4.7 4.6 4.88 16.18 16.18"/><polygon class="cls-115" points="16.18 16.18 4.63 4.84 4.46 5.02 16.18 16.18"/><polygon class="cls-115" points="16.18 16.18 4.49 4.99 4.32 5.17 16.18 16.18"/><polygon class="cls-115" points="16.18 16.18 4.36 5.13 4.19 5.32 16.18 16.18"/><polygon class="cls-115" points="16.18 16.18 4.22 5.28 4.05 5.46 16.18 16.18"/><polygon class="cls-115" points="16.18 16.18 4.09 5.43 3.92 5.61 16.18 16.18"/><polygon class="cls-115" points="16.18 16.18 3.96 5.58 3.79 5.76 16.18 16.18"/><polygon class="cls-114" points="16.18 16.18 3.83 5.73 3.67 5.92 16.18 16.18"/><polygon class="cls-114" points="16.18 16.18 3.7 5.88 3.54 6.07 16.18 16.18"/><polygon class="cls-114" points="16.18 16.18 3.57 6.04 3.42 6.23 16.18 16.18"/><polygon class="cls-114" points="16.18 16.18 3.45 6.19 3.3 6.39 16.18 16.18"/><polygon class="cls-114" points="16.18 16.18 3.33 6.35 3.18 6.55 16.18 16.18"/><polygon class="cls-114" points="16.18 16.18 3.21 6.51 3.06 6.71 16.18 16.18"/><polygon class="cls-114" points="16.18 16.18 3.09 6.67 2.94 6.87 16.18 16.18"/><polygon class="cls-114" points="16.18 16.18 2.97 6.83 2.83 7.03 16.18 16.18"/><polygon class="cls-114" points="16.18 16.18 2.86 6.99 2.72 7.2 16.18 16.18"/><polygon class="cls-114" points="16.18 16.18 2.75 7.16 2.61 7.37 16.18 16.18"/><polygon class="cls-112" points="16.18 16.18 2.64 7.32 2.5 7.53 16.18 16.18"/><polygon class="cls-112" points="16.18 16.18 2.53 7.49 2.4 7.7 16.18 16.18"/><polygon class="cls-112" points="16.18 16.18 2.42 7.66 2.29 7.87 16.18 16.18"/><polygon class="cls-112" points="16.18 16.18 2.32 7.83 2.19 8.04 16.18 16.18"/><polygon class="cls-112" points="16.18 16.18 2.22 8 2.09 8.22 16.18 16.18"/><polygon class="cls-113" points="16.18 16.18 2.12 8.17 2 8.39 16.18 16.18"/><polygon class="cls-113" points="16.18 16.18 2.02 8.35 1.9 8.57 16.18 16.18"/><polygon class="cls-113" points="16.18 16.18 1.93 8.52 1.81 8.74 16.18 16.18"/><polygon class="cls-113" points="16.18 16.18 1.83 8.7 1.72 8.92 16.18 16.18"/><polygon class="cls-113" points="16.18 16.18 1.74 8.88 1.63 9.1 16.18 16.18"/><polygon class="cls-113" points="16.18 16.18 1.65 9.05 1.54 9.28 16.18 16.18"/><polygon class="cls-113" points="16.18 16.18 1.56 9.23 1.46 9.46 16.18 16.18"/><polygon class="cls-113" points="16.18 16.18 1.48 9.41 1.38 9.64 16.18 16.18"/><polygon class="cls-113" points="16.18 16.18 1.4 9.6 1.3 9.82 16.18 16.18"/><polygon class="cls-113" points="16.18 16.18 1.32 9.78 1.22 10.01 16.18 16.18"/><polygon class="cls-113" points="16.18 16.18 1.24 9.96 1.15 10.19 16.18 16.18"/><polygon class="cls-113" points="16.18 16.18 1.17 10.15 1.07 10.38 16.18 16.18"/><polygon class="cls-113" points="16.18 16.18 1.09 10.33 1 10.56 16.18 16.18"/><polygon class="cls-113" points="16.18 16.18 1.02 10.52 0.94 10.75 16.18 16.18"/><polygon class="cls-112" points="16.18 16.18 0.95 10.71 0.87 10.94 16.18 16.18"/><polygon class="cls-111" points="16.18 16.18 0.89 10.89 0.81 11.13 16.18 16.18"/><polygon class="cls-110" points="16.18 16.18 0.82 11.08 0.75 11.32 16.18 16.18"/><polygon class="cls-109" points="16.18 16.18 0.76 11.27 0.69 11.51 16.18 16.18"/><polygon class="cls-108" points="16.18 16.18 0.7 11.46 0.63 11.7 16.18 16.18"/><polygon class="cls-107" points="16.18 16.18 0.65 11.65 0.58 11.89 16.18 16.18"/><polygon class="cls-106" points="16.18 16.18 0.59 11.85 0.53 12.09 16.18 16.18"/><polygon class="cls-105" points="16.18 16.18 0.54 12.04 0.48 12.28 16.18 16.18"/><polygon class="cls-104" points="16.18 16.18 0.49 12.23 0.43 12.47 16.18 16.18"/><polygon class="cls-103" points="16.18 16.18 0.44 12.42 0.39 12.67 16.18 16.18"/><polygon class="cls-102" points="16.18 16.18 0.4 12.62 0.34 12.86 16.18 16.18"/><polygon class="cls-101" points="16.18 16.18 0.35 12.81 0.3 13.06 16.18 16.18"/><polygon class="cls-31" points="16.18 16.18 0.31 13.01 0.27 13.25 16.18 16.18"/><polygon class="cls-100" points="16.18 16.18 0.28 13.2 0.23 13.45 16.18 16.18"/><polygon class="cls-99" points="16.18 16.18 0.24 13.4 0.2 13.64 16.18 16.18"/><polygon class="cls-98" points="16.18 16.18 0.21 13.6 0.17 13.84 16.18 16.18"/><polygon class="cls-97" points="16.18 16.18 0.18 13.79 0.14 14.04 16.18 16.18"/><polygon class="cls-96" points="16.18 16.18 0.15 13.99 0.12 14.24 16.18 16.18"/><polygon class="cls-95" points="16.18 16.18 0.12 14.19 0.09 14.44 16.18 16.18"/><polygon class="cls-77" points="16.18 16.18 0.1 14.38 0.07 14.63 16.18 16.18"/><polygon class="cls-94" points="16.18 16.18 0.08 14.58 0.06 14.83 16.18 16.18"/><polygon class="cls-93" points="16.18 16.18 0.06 14.78 0.04 15.03 16.18 16.18"/><polygon class="cls-82" points="16.18 16.18 0.04 14.98 0.03 15.23 16.18 16.18"/><polygon class="cls-92" points="16.18 16.18 0.03 15.18 0.02 15.43 16.18 16.18"/><polygon class="cls-85" points="16.18 16.18 0.02 15.38 0.01 15.63 16.18 16.18"/><polygon class="cls-86" points="16.18 16.18 0.01 15.58 0 15.83 16.18 16.18"/><polygon class="cls-91" points="16.18 16.18 0.01 15.78 0 16.03 16.18 16.18"/><polygon class="cls-89" points="16.18 16.18 0 15.98 0 16.23 16.18 16.18"/><polygon class="cls-90" points="16.18 16.18 0 16.18 0 16.42 16.18 16.18"/><polygon class="cls-89" points="16.18 16.18 0 16.38 0.01 16.62 16.18 16.18"/><polygon class="cls-88" points="16.18 16.18 0.01 16.57 0.01 16.82 16.18 16.18"/><polygon class="cls-88" points="16.18 16.18 0.01 16.77 0.02 17.02 16.18 16.18"/><polygon class="cls-87" points="16.18 16.18 0.02 16.97 0.03 17.22 16.18 16.18"/><polygon class="cls-87" points="16.18 16.18 0.03 17.17 0.05 17.42 16.18 16.18"/><polygon class="cls-86" points="16.18 16.18 0.04 17.37 0.06 17.62 16.18 16.18"/><polygon class="cls-85" points="16.18 16.18 0.06 17.57 0.08 17.82 16.18 16.18"/><polygon class="cls-84" points="16.18 16.18 0.08 17.77 0.1 18.01 16.18 16.18"/><polygon class="cls-84" points="16.18 16.18 0.1 17.96 0.13 18.21 16.18 16.18"/><polygon class="cls-83" points="16.18 16.18 0.12 18.16 0.15 18.41 16.18 16.18"/><polygon class="cls-82" points="16.18 16.18 0.15 18.36 0.18 18.61 16.18 16.18"/><polygon class="cls-82" points="16.18 16.18 0.18 18.56 0.21 18.8 16.18 16.18"/><polygon class="cls-81" points="16.18 16.18 0.21 18.75 0.25 19 16.18 16.18"/><polygon class="cls-81" points="16.18 16.18 0.24 18.95 0.28 19.2 16.18 16.18"/><polygon class="cls-81" points="16.18 16.18 0.28 19.15 0.32 19.39 16.18 16.18"/><polygon class="cls-80" points="16.18 16.18 0.31 19.34 0.36 19.59 16.18 16.18"/><polygon class="cls-79" points="16.18 16.18 0.35 19.54 0.41 19.78 16.18 16.18"/><polygon class="cls-79" points="16.18 16.18 0.4 19.73 0.45 19.98 16.18 16.18"/><polygon class="cls-78" points="16.18 16.18 0.44 19.93 0.5 20.17 16.18 16.18"/><polygon class="cls-77" points="16.18 16.18 0.49 20.12 0.55 20.36 16.18 16.18"/><polygon class="cls-76" points="16.18 16.18 0.54 20.31 0.6 20.55 16.18 16.18"/><polygon class="cls-75" points="16.18 16.18 0.59 20.51 0.66 20.75 16.18 16.18"/><polygon class="cls-74" points="16.18 16.18 0.65 20.7 0.72 20.94 16.18 16.18"/><polygon class="cls-74" points="16.18 16.18 0.7 20.89 0.78 21.13 16.18 16.18"/><polygon class="cls-73" points="16.18 16.18 0.76 21.08 0.84 21.32 16.18 16.18"/><polygon class="cls-72" points="16.18 16.18 0.82 21.27 0.9 21.5 16.18 16.18"/><polygon class="cls-71" points="16.18 16.18 0.89 21.46 0.97 21.69 16.18 16.18"/><polygon class="cls-70" points="16.18 16.18 0.95 21.64 1.04 21.88 16.18 16.18"/><polygon class="cls-69" points="16.18 16.18 1.02 21.83 1.11 22.07 16.18 16.18"/><polygon class="cls-69" points="16.18 16.18 1.09 22.02 1.18 22.25 16.18 16.18"/><polygon class="cls-68" points="16.18 16.18 1.17 22.2 1.26 22.43 16.18 16.18"/><polygon class="cls-67" points="16.18 16.18 1.24 22.39 1.34 22.62 16.18 16.18"/><polygon class="cls-67" points="16.18 16.18 1.32 22.57 1.42 22.8 16.18 16.18"/><polygon class="cls-66" points="16.18 16.18 1.4 22.75 1.5 22.98 16.18 16.18"/><polygon class="cls-66" points="16.18 16.18 1.48 22.94 1.59 23.16 16.18 16.18"/><polygon class="cls-65" points="16.18 16.18 1.56 23.12 1.67 23.34 16.18 16.18"/><polygon class="cls-65" points="16.18 16.18 1.65 23.3 1.76 23.52 16.18 16.18"/><polygon class="cls-65" points="16.18 16.18 1.74 23.47 1.85 23.7 16.18 16.18"/><polygon class="cls-64" points="16.18 16.18 1.83 23.65 1.95 23.87 16.18 16.18"/><polygon class="cls-63" points="16.18 16.18 1.93 23.83 2.04 24.05 16.18 16.18"/><polygon class="cls-63" points="16.18 16.18 2.02 24 2.14 24.22 16.18 16.18"/><polygon class="cls-62" points="16.18 16.18 2.12 24.18 2.24 24.39 16.18 16.18"/><polygon class="cls-61" points="16.18 16.18 2.22 24.35 2.35 24.56 16.18 16.18"/><polygon class="cls-61" points="16.18 16.18 2.32 24.52 2.45 24.73 16.18 16.18"/><polygon class="cls-60" points="16.18 16.18 2.42 24.69 2.56 24.9 16.18 16.18"/><polygon class="cls-59" points="16.18 16.18 2.53 24.86 2.66 25.07 16.18 16.18"/><polygon class="cls-58" points="16.18 16.18 2.64 25.03 2.77 25.23 16.18 16.18"/><polygon class="cls-57" points="16.18 16.18 2.75 25.19 2.89 25.4 16.18 16.18"/><polygon class="cls-57" points="16.18 16.18 2.86 25.36 3 25.56 16.18 16.18"/><polygon class="cls-56" points="16.18 16.18 2.97 25.52 3.12 25.72 16.18 16.18"/><polygon class="cls-56" points="16.18 16.18 3.09 25.68 3.24 25.88 16.18 16.18"/><polygon class="cls-55" points="16.18 16.18 3.21 25.84 3.36 26.04 16.18 16.18"/><polygon class="cls-54" points="16.18 16.18 3.33 26 3.48 26.2 16.18 16.18"/><polygon class="cls-53" points="16.18 16.18 3.45 26.16 3.6 26.36 16.18 16.18"/><polygon class="cls-53" points="16.18 16.18 3.57 26.32 3.73 26.51 16.18 16.18"/><polygon class="cls-52" points="16.18 16.18 3.7 26.47 3.86 26.66 16.18 16.18"/><polygon class="cls-52" points="16.18 16.18 3.83 26.62 3.99 26.81 16.18 16.18"/><polygon class="cls-51" points="16.18 16.18 3.96 26.77 4.12 26.96 16.18 16.18"/><polygon class="cls-50" points="16.18 16.18 4.09 26.92 4.25 27.11 16.18 16.18"/><polygon class="cls-49" points="16.18 16.18 4.22 27.07 4.39 27.25 16.18 16.18"/><polygon class="cls-48" points="16.18 16.18 4.36 27.22 4.53 27.4 16.18 16.18"/><polygon class="cls-46" points="16.18 16.18 4.49 27.36 4.67 27.54 16.18 16.18"/><polygon class="cls-47" points="16.18 16.18 4.63 27.51 4.81 27.68 16.18 16.18"/><polygon class="cls-46" points="16.18 16.18 4.77 27.65 4.95 27.82 16.18 16.18"/><polygon class="cls-46" points="16.18 16.18 4.92 27.79 5.09 27.96 16.18 16.18"/><polygon class="cls-45" points="16.18 16.18 5.06 27.93 5.24 28.09 16.18 16.18"/><polygon class="cls-45" points="16.18 16.18 5.21 28.06 5.39 28.23 16.18 16.18"/><polygon class="cls-44" points="16.18 16.18 5.35 28.2 5.54 28.36 16.18 16.18"/><polygon class="cls-43" points="16.18 16.18 5.5 28.33 5.69 28.49 16.18 16.18"/><polygon class="cls-42" points="16.18 16.18 5.65 28.46 5.84 28.62 16.18 16.18"/><polygon class="cls-41" points="16.18 16.18 5.8 28.59 6 28.75 16.18 16.18"/><polygon class="cls-40" points="16.18 16.18 5.96 28.71 6.15 28.87 16.18 16.18"/><polygon class="cls-39" points="16.18 16.18 6.11 28.84 6.31 28.99 16.18 16.18"/><polygon class="cls-38" points="16.18 16.18 6.27 28.96 6.47 29.11 16.18 16.18"/><polygon class="cls-37" points="16.18 16.18 6.43 29.08 6.63 29.23 16.18 16.18"/><polygon class="cls-36" points="16.18 16.18 6.59 29.2 6.79 29.35 16.18 16.18"/><polygon class="cls-36" points="16.18 16.18 6.75 29.32 6.95 29.46 16.18 16.18"/><polygon class="cls-35" points="16.18 16.18 6.91 29.43 7.12 29.58 16.18 16.18"/><polygon class="cls-34" points="16.18 16.18 7.08 29.55 7.28 29.69 16.18 16.18"/><polygon class="cls-33" points="16.18 16.18 7.24 29.66 7.45 29.8 16.18 16.18"/><polygon class="cls-32" points="16.18 16.18 7.41 29.77 7.62 29.9 16.18 16.18"/><polygon class="cls-32" points="16.18 16.18 7.58 29.88 7.79 30.01 16.18 16.18"/><polygon class="cls-31" points="16.18 16.18 7.75 29.98 7.96 30.11 16.18 16.18"/><polygon class="cls-31" points="16.18 16.18 7.92 30.08 8.13 30.21 16.18 16.18"/><polygon class="cls-30" points="16.18 16.18 8.09 30.18 8.3 30.31 16.18 16.18"/><polygon class="cls-29" points="16.18 16.18 8.26 30.28 8.48 30.4 16.18 16.18"/><polygon class="cls-28" points="16.18 16.18 8.44 30.38 8.65 30.5 16.18 16.18"/><polygon class="cls-28" points="16.18 16.18 8.61 30.47 8.83 30.59 16.18 16.18"/><polygon class="cls-27" points="16.18 16.18 8.79 30.56 9.01 30.68 16.18 16.18"/><polygon class="cls-26" points="16.18 16.18 8.96 30.65 9.19 30.76 16.18 16.18"/><polygon class="cls-25" points="16.18 16.18 9.14 30.74 9.37 30.85 16.18 16.18"/><polygon class="cls-24" points="16.18 16.18 9.32 30.83 9.55 30.93 16.18 16.18"/><polygon class="cls-23" points="16.18 16.18 9.51 30.91 9.73 31.01 16.18 16.18"/><polygon class="cls-23" points="16.18 16.18 9.69 30.99 9.92 31.09 16.18 16.18"/><polygon class="cls-23" points="16.18 16.18 9.87 31.07 10.1 31.17 16.18 16.18"/><polygon class="cls-22" points="16.18 16.18 10.05 31.15 10.29 31.24 16.18 16.18"/><polygon class="cls-22" points="16.18 16.18 10.24 31.22 10.47 31.31 16.18 16.18"/><polygon class="cls-21" points="16.18 16.18 10.43 31.29 10.66 31.38 16.18 16.18"/><polygon class="cls-21" points="16.18 16.18 10.61 31.36 10.85 31.45 16.18 16.18"/><polygon class="cls-20" points="16.18 16.18 10.8 31.43 11.04 31.51 16.18 16.18"/><polygon class="cls-19" points="16.18 16.18 10.99 31.5 11.22 31.57 16.18 16.18"/><polygon class="cls-19" points="16.18 16.18 11.18 31.56 11.41 31.63 16.18 16.18"/><polygon class="cls-18" points="16.18 16.18 11.37 31.62 11.61 31.69 16.18 16.18"/><polygon class="cls-17" points="16.18 16.18 11.56 31.68 11.8 31.75 16.18 16.18"/><polygon class="cls-17" points="16.18 16.18 11.75 31.73 11.99 31.8 16.18 16.18"/><polygon class="cls-16" points="16.18 16.18 11.94 31.79 12.18 31.85 16.18 16.18"/><polygon class="cls-16" points="16.18 16.18 12.13 31.84 12.38 31.9 16.18 16.18"/><polygon class="cls-15" points="16.18 16.18 12.33 31.89 12.57 31.94 16.18 16.18"/><polygon class="cls-15" points="16.18 16.18 12.52 31.93 12.76 31.99 16.18 16.18"/><polygon class="cls-15" points="16.18 16.18 12.71 31.98 12.96 32.03 16.18 16.18"/><polygon class="cls-14" points="16.18 16.18 12.91 32.02 13.15 32.07 16.18 16.18"/><polygon class="cls-13" points="16.18 16.18 13.11 32.06 13.35 32.1 16.18 16.18"/><polygon class="cls-12" points="16.18 16.18 13.3 32.09 13.55 32.13 16.18 16.18"/><polygon class="cls-12" points="16.18 16.18 13.5 32.13 13.74 32.17 16.18 16.18"/><polygon class="cls-11" points="16.18 16.18 13.69 32.16 13.94 32.2 16.18 16.18"/><polygon class="cls-10" points="16.18 16.18 13.89 32.19 14.14 32.22 16.18 16.18"/><polygon class="cls-10" points="16.18 16.18 14.09 32.22 14.34 32.25 16.18 16.18"/><polygon class="cls-9" points="16.18 16.18 14.29 32.24 14.53 32.27 16.18 16.18"/><polygon class="cls-8" points="16.18 16.18 14.48 32.26 14.73 32.29 16.18 16.18"/><polygon class="cls-8" points="16.18 16.18 14.68 32.28 14.93 32.3 16.18 16.18"/><polygon class="cls-7" points="16.18 16.18 14.88 32.3 15.13 32.32 16.18 16.18"/><polygon class="cls-7" points="16.18 16.18 15.08 32.31 15.33 32.33 16.18 16.18"/><polygon class="cls-6" points="16.18 16.18 15.28 32.33 15.53 32.34 16.18 16.18"/><polygon class="cls-5" points="16.18 16.18 15.48 32.34 15.73 32.34 16.18 16.18"/><polygon class="cls-5" points="16.18 16.18 15.68 32.34 15.93 32.35 16.18 16.18"/><polygon class="cls-4" points="16.18 16.18 15.88 32.35 16.13 32.35 16.18 16.18"/><polygon class="cls-4" points="16.18 16.18 16.07 32.35 16.27 32.35 16.18 16.18"/></g><path class="cls-159" d="M20.23,43.75a13.79,13.79,0,1,1,9.71-4,13.71,13.71,0,0,1-9.71,4Zm0-.54a13.25,13.25,0,1,0-9.33-3.88A13.2,13.2,0,0,0,20.23,43.21Z" transform="translate(-4.28 -14.05)"/><path class="cls-160" d="M127.64,29.18l0,.06a2.5,2.5,0,0,0,2.11.86,5.67,5.67,0,0,0,2.45-.69,4.34,4.34,0,0,0,.46-.28l.54-.37.29.58-.1.12a7.33,7.33,0,0,1-1,1,9.52,9.52,0,0,1-1.25.91,4.89,4.89,0,0,1-1.31.54,6,6,0,0,1-1.47.18,5.1,5.1,0,0,1-1.51-.2,3,3,0,0,1-1.14-.62,4.44,4.44,0,0,1-.73-.83,3.79,3.79,0,0,1-.48-.94,5.86,5.86,0,0,1-.16-3.24,5.65,5.65,0,0,1,1.55-2.81,5.86,5.86,0,0,1,1.84-1.2,5.58,5.58,0,0,1,2.14-.41,3.68,3.68,0,0,1,1.86.5,8.38,8.38,0,0,1,1.53,1.19l.19.18-5.85,5.46ZM127.22,28l2.13-2a1.52,1.52,0,0,0,.45-.93,1.49,1.49,0,0,0,0-.63,1,1,0,0,0-.27-.47,1,1,0,0,0-.54-.24,1.16,1.16,0,0,0-.49,0,1.55,1.55,0,0,0-.82.83,4.74,4.74,0,0,0-.43,1.51A6.24,6.24,0,0,0,127.22,28Z" transform="translate(-4.28 -14.05)"/><path class="cls-160" d="M119.38,24.45h0c-.38,0-.81.44-1,.7A10,10,0,0,0,117,27.33l0,2.6a2.07,2.07,0,0,1-.13.89,1.83,1.83,0,0,1-.68.7h0a2.73,2.73,0,0,1-.73.35,4.1,4.1,0,0,1-.91.19l-.3,0V24.42h0v-.05a.2.2,0,0,0,0-.18.21.21,0,0,0-.15-.05h0a1.17,1.17,0,0,0-.57.18l-.29-.9A20.42,20.42,0,0,1,115,22.08a1.49,1.49,0,0,1,.36-.17,1,1,0,0,1,.36-.07,1.07,1.07,0,0,1,.62.2,1.1,1.1,0,0,1,.38.52h0a8.41,8.41,0,0,1,.24,1.49c0,.33,0,.65,0,1,.12-.19.25-.37.38-.55s.32-.41.49-.61h0c.17-.2.34-.39.53-.58s.38-.37.57-.54a3.63,3.63,0,0,1,.64-.47,2.83,2.83,0,0,1,.66-.31h0l.18,0,.17-.05h0a2.43,2.43,0,0,1,.38,0,1.4,1.4,0,0,1,1.1.49,2.36,2.36,0,0,1,.47,1,3.83,3.83,0,0,1,.08.83v5.9c0,.23.09.3.31.22a4,4,0,0,0,1-.6l.33.69c-.67.7-1.58,1.67-2.67,1.67a1.6,1.6,0,0,1-1.19-.53,1.85,1.85,0,0,1-.49-1.26V25.43a1.34,1.34,0,0,0-.17-.67.65.65,0,0,0-.35-.3Z" transform="translate(-4.28 -14.05)"/><path class="cls-160" d="M110.59,30.24a8.6,8.6,0,0,1-6.19,2.16,9.39,9.39,0,0,1-5.81-1.82,6.46,6.46,0,0,1-2.37-4.79c0-.24,0-.49,0-.73a8.12,8.12,0,0,1,2.27-5.9,8.32,8.32,0,0,1,5.5-2.31l.58,0c5.11,0,8.2,2.37,8.2,7.32a8.33,8.33,0,0,1-2.16,6.09Zm-11.4-5.63c0,3.28,2.21,6.41,5.41,6.41S110,27.89,110,24.61s-2.22-6.4-5.42-6.4S99.19,21.34,99.19,24.61Z" transform="translate(-4.28 -14.05)"/><path class="cls-160" d="M56.54,29.18l.05.06a2.48,2.48,0,0,0,2.1.86,5.63,5.63,0,0,0,2.45-.69,3.64,3.64,0,0,0,.47-.28l.54-.37.28.58-.09.12a7.34,7.34,0,0,1-1,1,8.69,8.69,0,0,1-1.25.91,5.17,5.17,0,0,1-1.31.54,5.64,5.64,0,0,1-1.47.18,5.1,5.1,0,0,1-1.51-.2,2.94,2.94,0,0,1-1.14-.62,4.34,4.34,0,0,1-.73-.82,4.08,4.08,0,0,1-.49-.95,5.91,5.91,0,0,1-.15-3.23,5.74,5.74,0,0,1,1.54-2.82,6,6,0,0,1,1.84-1.2,5.58,5.58,0,0,1,2.14-.41,3.65,3.65,0,0,1,1.86.5,8.12,8.12,0,0,1,1.54,1.19l.19.18-5.86,5.46ZM56.13,28l2.13-2a1.52,1.52,0,0,0,.45-.93,1.44,1.44,0,0,0,0-.62A1.09,1.09,0,0,0,58.4,24a.91.91,0,0,0-.54-.23,1.14,1.14,0,0,0-.49,0,1.55,1.55,0,0,0-.82.83,4.49,4.49,0,0,0-.43,1.52A6.17,6.17,0,0,0,56.13,28Z" transform="translate(-4.28 -14.05)"/><path class="cls-160" d="M71.05,26.83l-1.88,3.44L68,32.41l-3.6-6.6,0,0-.64-1.1v0l-1-1.4.2-.2a7.21,7.21,0,0,1,.86-.8,1.92,1.92,0,0,1,.81-.45,1,1,0,0,1,.68.35,4.63,4.63,0,0,1,.61.86c.45.79.87,1.59,1.29,2.39s.73,1.38,1.11,2.06a8.48,8.48,0,0,0,.48.74s.09.11.14.17l1.45-2.72A8.18,8.18,0,0,0,68.91,24a1.67,1.67,0,0,1-.28-.18l-.23-.16.19-.2a12.84,12.84,0,0,1,1.21-1.12,1.81,1.81,0,0,1,.81-.45,1,1,0,0,1,.67.35,4.69,4.69,0,0,1,.62.86c.45.79.87,1.59,1.29,2.39s.73,1.38,1.11,2.06a6.66,6.66,0,0,0,.48.74,2.12,2.12,0,0,0,.2.24,9.31,9.31,0,0,0,.67-1.34,5.58,5.58,0,0,0,.48-1.5,2.38,2.38,0,0,0-.47-1.27,3.75,3.75,0,0,0-1.19-1.12l-.13-.07v-.3l.11-.07a5.21,5.21,0,0,0,.73-.68,10.59,10.59,0,0,1,.85-.79c.09-.06.18-.13.27-.18a.62.62,0,0,1,.29-.09.71.71,0,0,1,.26.07l.26.14a3.19,3.19,0,0,1,.92.91,4.4,4.4,0,0,1,.61,1.32l0,.09L74,32.41,73.77,32Z" transform="translate(-4.28 -14.05)"/><path class="cls-160" d="M91.67,31.51l-.39.24-.38.19-.39.12a1.58,1.58,0,0,1-.38,0,1.86,1.86,0,0,1-.77-.15,1.15,1.15,0,0,1-.52-.48,2.6,2.6,0,0,1-.26-.65A4.23,4.23,0,0,1,88.5,30V20.86a6.51,6.51,0,0,1,.22-1.75,3.72,3.72,0,0,1,.64-1.31,2.4,2.4,0,0,1,1.27-.8,5.61,5.61,0,0,1,1.53-.17l2.59,0-.21.36a2.8,2.8,0,0,1-1.18,1.18,4.13,4.13,0,0,1-1.52.36h0l-.27,0-.18,0a.17.17,0,0,0,0,.07L91.3,29.52a.34.34,0,0,0,0,.17.19.19,0,0,0,.18.08,1.41,1.41,0,0,0,.5-.07,4.65,4.65,0,0,0,1.24-.62l0,0,0,0,.62.5.06,0-.19.19a8,8,0,0,1-.82.7c-.43.34-.88.68-1.33,1Z" transform="translate(-4.28 -14.05)"/><path class="cls-160" d="M81.66,29.18l0,.06a2.5,2.5,0,0,0,2.11.86,5.67,5.67,0,0,0,2.45-.69,3.52,3.52,0,0,0,.46-.28l.54-.37.29.58-.1.12a6.82,6.82,0,0,1-1,1,8.69,8.69,0,0,1-1.25.91,4.89,4.89,0,0,1-1.31.54,5.59,5.59,0,0,1-1.47.18,5.1,5.1,0,0,1-1.51-.2,3,3,0,0,1-1.14-.62,5.16,5.16,0,0,1-.73-.82,4,4,0,0,1-.48-.95,5.82,5.82,0,0,1-.16-3.23A5.68,5.68,0,0,1,80,23.46a5.86,5.86,0,0,1,1.84-1.2,5.58,5.58,0,0,1,2.14-.41,3.68,3.68,0,0,1,1.86.5,8.38,8.38,0,0,1,1.53,1.19l.19.18-5.85,5.46ZM81.24,28l2.13-2a1.52,1.52,0,0,0,.45-.93,1.44,1.44,0,0,0,0-.62,1,1,0,0,0-.27-.48.88.88,0,0,0-.54-.23,1.15,1.15,0,0,0-.49,0,1.58,1.58,0,0,0-.82.83,4.73,4.73,0,0,0-.43,1.52A6.17,6.17,0,0,0,81.24,28Z" transform="translate(-4.28 -14.05)"/><path class="cls-160" d="M51.38,29.15V19.2a1.26,1.26,0,0,1,.43-1,3.45,3.45,0,0,1,1.07-.53l.58-.22V17.1l-.26-.1a2.18,2.18,0,0,0-.44-.11,3.17,3.17,0,0,0-.53-.05,5.23,5.23,0,0,0-.56,0,4.85,4.85,0,0,0-.55.08h0a4.08,4.08,0,0,0-1.14.41,3.72,3.72,0,0,0-.91.71,3.13,3.13,0,0,0-.57,1,3.2,3.2,0,0,0-.19,1.11v10A4.35,4.35,0,0,1,48,31.81c-.71,1.35-2.55,2-4.35,2-4.07,0-5.63-3.65-2.72-5.36l-.08-.29h-.47a2,2,0,0,0-1.33.49A2.92,2.92,0,0,0,38.14,30a3.57,3.57,0,0,0-.16.72v1.09a4,4,0,0,0,.09.48,4.32,4.32,0,0,0,.25.77,4.37,4.37,0,0,0,1.93,2.06,6.4,6.4,0,0,0,3.11.71h0a11.18,11.18,0,0,0,3.2-.49A7.84,7.84,0,0,0,49.15,34a6,6,0,0,0,1.64-2.11,6.29,6.29,0,0,0,.59-2.66v0Z" transform="translate(-4.28 -14.05)"/><path class="cls-160" d="M38.69,41.54a1.61,1.61,0,0,0,1.64,1.65,1.46,1.46,0,0,0,1-.34h0a1.09,1.09,0,0,0,0,.13v.16h.52V41.46H40.76V42h.51v.38a1.27,1.27,0,0,1-.83.33,1.09,1.09,0,0,1-1.12-1.14,1.06,1.06,0,0,1,1.14-1.1,1.44,1.44,0,0,1,.89.31l.3-.43a1.84,1.84,0,0,0-1.24-.41,1.65,1.65,0,0,0-1.72,1.65Zm3.8,0a1.73,1.73,0,0,0,3.45,0,1.73,1.73,0,0,0-3.45,0Zm.63,0a1.1,1.1,0,1,1,2.2,0,1.1,1.1,0,1,1-2.2,0Zm3.67,1.62h2.05v-.5H47.4V40h-.61v3.19Zm2.77,0h1.13a1.6,1.6,0,1,0,0-3.19H49.56v3.19Zm.6-.5v-2.2h.5a1.1,1.1,0,1,1,0,2.2Zm4.19-.54h1.41v-.5H54.35v.5Zm3.58,1h1.14a1.6,1.6,0,1,0,0-3.19H57.93v3.19Zm.61-.5v-2.2H59a1.1,1.1,0,1,1,0,2.2Zm3.1.5h.6V40h-.6v3.19Zm3.62,0h.63L64.71,40h-.63L62.9,43.14h.63l.28-.82H65l.28.82ZM64.4,40.5s.07.31.13.49l.3.86H64l.29-.86a4.46,4.46,0,0,0,.14-.49Zm2,2.64h.61l.14-1.79a4.76,4.76,0,0,0,0-.5h0s.1.32.18.5l.53,1.24h.54L69,41.35a5,5,0,0,0,.17-.49h0a4.57,4.57,0,0,0,0,.49l.14,1.79h.6L69.66,40H69l-.66,1.57c-.07.19-.16.47-.16.47h0L68,41.52,67.37,40h-.65l-.28,3.19Zm4.24-1.62a1.73,1.73,0,1,0,1.72-1.63,1.67,1.67,0,0,0-1.72,1.63Zm.62,0a1.1,1.1,0,1,1,2.2,0,1.1,1.1,0,1,1-2.2,0ZM75,43.14h.6V41.3c0-.19,0-.5,0-.5h0a4.84,4.84,0,0,0,.28.5l1.26,1.84h.6V40h-.6v1.84c0,.19,0,.49,0,.49h0a5.25,5.25,0,0,0-.27-.49L75.58,40H75v3.19Zm3.8,0h1.14a1.6,1.6,0,1,0,0-3.19H78.78v3.19Zm.61-.5v-2.2h.5a1.1,1.1,0,0,1,0,2.2Zm4.18-.54H85v-.5H83.57v.5Zm3.58,1h.61V42h.68A1,1,0,0,0,89.5,41a1,1,0,0,0-1.06-1H87.15v3.19Zm.61-1.61V40.44h.58a.55.55,0,1,1,0,1.09Zm2.51,1.61h2v-.5H90.88V40h-.61v3.19Zm4.82,0h.62L94.54,40H93.9l-1.17,3.19h.62l.28-.82H94.8l.29.82Zm-.86-2.64s.07.31.13.49l.29.86h-.87l.3-.86c.06-.18.14-.49.14-.49Zm2.64,2.64h.61v-2.7h1.09V40H95.78v.49h1.09v2.7Zm2.38,0h.6V40h-.6v3.19Zm1.68,0h.61V41.3c0-.19,0-.5,0-.5h0a4.84,4.84,0,0,0,.28.5l1.27,1.84h.6V40h-.6v1.84c0,.19,0,.49,0,.49h0a4.12,4.12,0,0,0-.28-.49L101.54,40h-.61v3.19ZM104.69,42a1.35,1.35,0,0,0,2.69,0V40h-.6v2a.66.66,0,0,1-.75.67.65.65,0,0,1-.73-.67V40h-.61v2Zm3.62,1.15h.61l.14-1.79c0-.21,0-.5,0-.5h0s.11.32.19.5l.53,1.24h.53l.54-1.24c.08-.18.18-.49.18-.49h0a4.57,4.57,0,0,0,0,.49l.14,1.79h.6L111.53,40h-.65l-.65,1.57c-.08.19-.17.47-.17.47h0l-.17-.47L109.23,40h-.65l-.27,3.19Zm5.55-1h1.42v-.5h-1.42v.5Zm3.33.66a1.63,1.63,0,0,0,1.15.43,1,1,0,0,0,1.1-.93c0-1-1.57-.88-1.57-1.45,0-.23.22-.38.5-.38a1.25,1.25,0,0,1,.74.28l.26-.48a1.45,1.45,0,0,0-1-.34,1,1,0,0,0-1.12.93c0,1,1.57.88,1.57,1.45,0,.26-.23.39-.48.39a1.39,1.39,0,0,1-.84-.34l-.32.44Zm3.09.38h.6V40h-.6v3.19Zm1.68,0H124v-.5h-1.44V40H122v3.19Zm3.32,0h.6L127.1,40h-.65L125.71,42c-.07.18-.12.46-.13.46h0s-.06-.28-.12-.46L124.71,40h-.65l1.22,3.19Zm2.47,0h2.07v-.5h-1.47v-.86h1.13v-.5h-1.13v-.84h1.4V40h-2v3.19Zm2.93,0h.61V42h.58l.67,1.19h.67L132.53,42a.62.62,0,0,0-.12-.16h0a.91.91,0,0,0,.57-.87.88.88,0,0,0-.55-.87,1.48,1.48,0,0,0-.67-.09h-1.08v3.19Zm.61-1.7v-1h.46c.47,0,.61.19.61.5a.47.47,0,0,1-.52.5Z" transform="translate(-4.28 -14.05)"/></svg>