<svg id="Layer_1" data-name="Layer 1" xmlns="http://www.w3.org/2000/svg" xmlns:xlink="http://www.w3.org/1999/xlink" viewBox="0 0 43.04 50.32"><defs><style>.cls-1{fill-rule:evenodd;fill:url(#GradientFill_1);}</style><linearGradient id="GradientFill_1" x1="57.18" y1="17.43" x2="80.02" y2="42.43" gradientUnits="userSpaceOnUse"><stop offset="0" stop-color="#b57029"/><stop offset="0.05" stop-color="#b57029"/><stop offset="0.27" stop-color="#fad770"/><stop offset="0.47" stop-color="#c0802b"/><stop offset="0.75" stop-color="#fad770"/><stop offset="0.99" stop-color="#b57029"/><stop offset="1" stop-color="#b57029"/></linearGradient></defs><path class="cls-1" d="M85.25,18.48h0ZM70.63,55.16h-.3A21.88,21.88,0,0,1,67.19,55c-.6-.08-1.13-.18-1.71-.29a18.87,18.87,0,0,1-3.06-.9,22.2,22.2,0,0,1-2.29-1c-.23-.11-.43-.23-.65-.35l-1.24-.75-.2-.13-.2-.14L57.27,51,55.8,49.81a.34.34,0,0,1-.09-.08l-.61-.55c-.09-.07-.58-.57-.65-.66L54,48.08A.27.27,0,0,1,54,48l-.31-.35-1.17-1.49L52.35,46a22.25,22.25,0,0,1-1.82-3.15c-.17-.38-.35-.76-.5-1.15a21.42,21.42,0,0,1-1.19-4.1c-.07-.37-.14-.75-.18-1.14a21.3,21.3,0,0,1-.18-3.11h0c0-.1,0-.83,0-1l0-.3a22.08,22.08,0,0,1,.29-2.31,21.49,21.49,0,0,1,1.35-4.51c.13-.31.26-.61.4-.9l.22-.44.28-.54c.13-.24.27-.48.41-.72,0-.07.08-.14.13-.21l.12-.19L53,20.42l.07-.09.22-.27.07-.09.15-.18.37-.43.08-.09c.07-.09.16-.16.24-.25s.16-.17.23-.26a1.21,1.21,0,0,1,.16-.16s-.46.59-.47.61c-.23.3-.46.61-.67.92l-.52.81-.1.17a19.86,19.86,0,0,0-1.09,2.1c-.17.37-.32.75-.46,1.13a16.31,16.31,0,0,0-.64,2,17.36,17.36,0,0,0-.37,1.77l-.13.93c0,.25-.08.73-.08,1,0,.07,0,.07,0,.12l0,.64A19.5,19.5,0,0,0,50.37,35a16.86,16.86,0,0,0,.69,2.69,18.93,18.93,0,0,0,.83,2.09l.79,1.51c.19.32.38.64.58,1l.51.73c.23.33.48.64.73,1l.49.58.08.09.51.55a2.91,2.91,0,0,0,.3.31c.11.11.2.21.32.31l.15.15c.13.13.28.24.41.36a.27.27,0,0,0,.08.07l.59.5q.72.58,1.5,1.11l2.34,1.34.41.2a19.38,19.38,0,0,0,4.17,1.38l.51.1c.35.06.7.12,1.06.16l.56.07.57,0,1.17,0,1.45,0,.28,0a2.83,2.83,0,0,0,.29,0l.83-.09c.36,0,.72-.11,1.06-.17a19.56,19.56,0,0,0,5.1-1.67,19.86,19.86,0,0,0,2-1.1l.18-.12.92-.63L82,47.3l.18-.13,1-.83a5,5,0,0,0,.48-.44,1.14,1.14,0,0,1,.16-.15,7.15,7.15,0,0,0,.61-.62l.3-.31.08-.09.21-.24c0-.05.1-.1.14-.16l.56-.68.14-.17.64-.89.13-.19.12-.18.47-.76.11-.19.17-.31,0-.09.22-.4a21.66,21.66,0,0,0,1.18-2.81l.08-.24A20.39,20.39,0,0,0,89.62,35,20.17,20.17,0,0,0,90,31.06v-.28c0-.24,0-.52,0-.75s-.06-.78-.09-1l-.06-.49c-.06-.44-.15-.92-.24-1.36,0-.14-.06-.29-.1-.44-.14-.57-.29-1.13-.47-1.68l-.28-.79A19.94,19.94,0,0,0,87.09,21a15.24,15.24,0,0,0-.85-1.3L86,19.42l-.41-.52-.06-.08a2.17,2.17,0,0,1-.23-.3c.12.09.42.44.57.59L87,20.45c.2.24.37.5.55.75.33.45.63.92.91,1.39l.12.21a1.51,1.51,0,0,1,.12.2,2.39,2.39,0,0,1,.12.22,1.09,1.09,0,0,1,.06.11l.18.32c.23.43.42.87.63,1.32a19.09,19.09,0,0,1,1,2.65l.33,1.3a18.44,18.44,0,0,1,.41,2.56,5.63,5.63,0,0,1,0,.59L91.52,34v0c0,.29,0,.82,0,1.11l-.07.76c0,.09,0,.2,0,.3-.07.48-.13,1-.22,1.45a20.94,20.94,0,0,1-1,3.62l-.38.94c-.19.46-.41.9-.64,1.35s-.34.65-.53,1l-.44.72c-.3.46-.61.92-1,1.36l-.14.19-.51.64-.08.09c0,.07-.1.12-.15.18l-.08.09-.07.09c-.17.17-.31.36-.48.52s-.63.69-.82.83-.38.37-.51.48l-.1.08-.53.46q-.4.34-.84.66l-.38.28a23.68,23.68,0,0,1-2,1.28l-.54.3c-.48.24-1,.48-1.45.69l-1,.38c-.49.19-1,.35-1.48.5s-1,.29-1.59.4-1.11.21-1.69.29l-.59.07-.61,0c-.2,0-.44,0-.63,0ZM85.27,18.5h0Zm0,0Zm0,0h0Zm-30.66.08h0Zm0,0Zm0,0h0Zm0,0h0Zm15.4,7a.7.7,0,0,0,.09.24c.09.22.23.46.34.67s.24.42.37.63.6.93.81,1.21.37.53.55.79l.83,1.18a3.92,3.92,0,0,1,.58,1.11,4.8,4.8,0,0,1,0,2.63,9.6,9.6,0,0,1-1.1,2.52l-.15.25c-.1.16-.23.31-.34.47.13.09.54.26.82.45a.56.56,0,0,1,.32.5.8.8,0,0,1-.09.14l-.2.27c-.32.48-.42.62-.73,1.14a2.26,2.26,0,0,0-.34.84v.2a4.33,4.33,0,0,0,1.51-1l.1-.09c.18-.16.33-.33.5-.48l.1-.1.4-.39c.24-.25.17-.24.45-.31a2.49,2.49,0,0,1,1.86.17c.2.13.2.22.31.5s.27.67.43,1l.26.54a8.51,8.51,0,0,0,.43.78l.25.35c.06.06.15.17.24.17s0-.13,0-.22a6.08,6.08,0,0,0-.08-1.06,17.71,17.71,0,0,0-.42-1.78,2.33,2.33,0,0,1-.08-.36l.19,0,.85-.1c.3,0,.4,0,.34-.09-.18-.28-.54-.93-.69-1.23-.24-.48-.5-.93-.71-1.43a4.24,4.24,0,0,1-.37-1.54,3,3,0,0,1,.21-1.24,3.25,3.25,0,0,1,.33-.57,2.57,2.57,0,0,1,.35-.39s0,0,.08-.07a2.87,2.87,0,0,1,.92-.58c.22-.07.43-.17.65-.25l.2-.09.62-.29.59-.31c.32-.16.64-.35,1-.53l.18-.11a1.36,1.36,0,0,1,.2-.11.48.48,0,0,0-.09-.19,2,2,0,0,0-.22.09c-.56.18-1.08.35-1.66.48A10.48,10.48,0,0,1,76.7,30l-1-.25a9,9,0,0,1-1.43-.59,7.74,7.74,0,0,1-.8-.44,14,14,0,0,1-1.18-.84l-.38-.33s0,0,0-.05L70.7,26.25l-.53-.71c-.06,0,0,0-.1,0Zm-11.48,9.3a9.67,9.67,0,0,0,1.33-.16l.6-.14.58-.18a4.46,4.46,0,0,0,.55-.2,10.45,10.45,0,0,0,1-.46l.24-.13.27-.12a2.69,2.69,0,0,1,.17.34,6.42,6.42,0,0,1,.13,2.62c-.14,1.23-.39,1.89-.57,3l-.09.5a15.29,15.29,0,0,0-.21,1.87c0,.07,0,.07,0,.14,0,.23,0,.49,0,.72V43a4,4,0,0,0,0,.7.68.68,0,0,1,0,.14l0,0,0-.05.19-.26.24-.36c.15-.25.29-.5.42-.77l.19-.4c.06-.15.13-.27.18-.42l.18-.43a25.42,25.42,0,0,0,.8-2.47,1.55,1.55,0,0,1,.07-.23c.15-.31.48-.92.88-.92h.28a2.09,2.09,0,0,1,.48.27,4.81,4.81,0,0,1,1,1.09c.3.42.54.86.81,1.3l.23.35c.12.16.25.11.25-.12a3.47,3.47,0,0,0-.12-1.12l-.29-1L68,36.57a12.8,12.8,0,0,1-.78-3,6.35,6.35,0,0,1,0-1.63,5.8,5.8,0,0,1,.36-1.39,1.83,1.83,0,0,0,.11-.26.39.39,0,0,1-.17-.11.89.89,0,0,1-.16-.4,3.61,3.61,0,0,1,.18-1.42c0-.12,0-.24.09-.37l.25-1.1c0-.13,0-.25.08-.38s0-.25.08-.38,0-.26.07-.38a11.46,11.46,0,0,0,.27-3,1.33,1.33,0,0,0-.09-.31c-.13,0-.12.09-.14.2,0,.29-.09.6-.15.88l-.28,1.11c-.1.35-.23.68-.36,1a2.6,2.6,0,0,1-.1.25.61.61,0,0,1,0,.12l-.29.65a.09.09,0,0,0,0,.05.6.6,0,0,0-.06.11,2.53,2.53,0,0,1-.12.23l-1.06,1.71-.29.4-.31.38-.79.93c0,.06-.11.11-.17.17a9,9,0,0,1-.69.69l-.45.42A17.51,17.51,0,0,1,61.54,33l-1,.72-.2.14-.21.13c-.36.23-.72.45-1.09.65l-.39.2c-.06,0,0,0,0,0Zm3.62-13.95a.72.72,0,0,0,.39.69.93.93,0,0,0,1.07-.23,3.4,3.4,0,0,0,.26-.74l.71-2.32.06-.19.06-.2c.11-.38.23-.77.35-1.15a4.67,4.67,0,0,1,.23-.66l.06-.07c0,.1.1.59.12.71a18.11,18.11,0,0,1,.22,2.08l0,.59c0,.12,0,.29,0,.41,0,.47-.14,1.07.23,1.44a.88.88,0,0,0,1.38-.21,3.69,3.69,0,0,0,0-.68c0-.15,0-.3,0-.46,0-.42.12-.86.19-1.28a11.64,11.64,0,0,1,.4-1.57,7.37,7.37,0,0,1,.5-1.23s.09-.09.11-.15.14.52.16.68,0,.53,0,.79l0,.6c0,.18,0,.39,0,.58l.07,1.19c0,.12,0,.26,0,.39l0,.4a1,1,0,0,0,.06.35.58.58,0,0,0,.44.41,1,1,0,0,0,.9-.07c.34-.25.22-.68.22-.95l-.13-2.17a.77.77,0,0,1,0-.15c0-.1,0-.18,0-.29s0-.22,0-.3l0-.58a4.52,4.52,0,0,0-.18-1,2.8,2.8,0,0,0-.19-.43,1.7,1.7,0,0,0-2.43-.66l-.21.16a4.09,4.09,0,0,0-.4.53c-.07.12-.12.25-.18.37h0a1.85,1.85,0,0,0-.5-.84,1.38,1.38,0,0,0-1-.38,1.75,1.75,0,0,0-1.39.9l0,.05,0,0v0c0-.33,0-.62,0-.95a1,1,0,0,0-.06-.31,1.2,1.2,0,0,0-.15-.24.83.83,0,0,0-1.26.08c-.2.23-.14.52-.17.89s0,.84,0,1,0,.36,0,.51,0,.85,0,1,0,.91,0,1,0,.92,0,1,0,.36,0,.52,0,.36,0,.52a4.68,4.68,0,0,0,0,.53ZM84.52,40.83c0,.13.06.12.18.15l.11,0a.58.58,0,0,1,.11,0l-.43.59c-.25.31-.73.75-1,1l-.18.16c-.06.07-.12.11-.18.17l-.45.4c-.15.14-.31.26-.47.39s-.51.4-.78.59l-.4.28a20.29,20.29,0,0,1-1.94,1.16l-.23.12a20.17,20.17,0,0,1-15,1.13A19.75,19.75,0,0,1,61.15,46c-.16-.08-.29-.16-.45-.23l-1.49-.88c-.2-.12-.41-.28-.6-.42l-.2-.14-.2-.14L58,44.06l-1-.84c-.14-.14-.3-.26-.44-.4l-.1-.08c-.26-.25-.5-.51-.76-.77l-.16-.17-.08-.09-.36-.5a.85.85,0,0,1,.22-.09c.12,0,.23,0,.2-.16a.75.75,0,0,0-.78.35c-.21.35,0,.5.07.32A.73.73,0,0,1,55,41.3c.1.07.6.78.7.91l1.39,1.67a9.71,9.71,0,0,0,.72.71.76.76,0,0,1,.09.09c.14.14.42.36.57.5l.1.09.2.16.2.16.2.16a19.73,19.73,0,0,0,1.93,1.3l.69.39.48.23.24.12c.26.1.5.23.75.33A18.63,18.63,0,0,0,66,49a16,16,0,0,0,2.3.39c.28,0,.56.06.84.07h.16c.37,0,.85,0,1.21,0h.17l1.18-.09.32,0,.64-.1c.4-.06.82-.15,1.21-.24s.76-.2,1.13-.32A19,19,0,0,0,77,48l.38-.17.12-.06.84-.43c.28-.14.55-.3.82-.47l.44-.28a20.42,20.42,0,0,0,1.67-1.22l.49-.42c.36-.31.69-.64,1-1,.07-.06.11-.12.17-.18l.18-.19c.35-.36,1.09-1.32,1.3-1.61.07-.09.54-.77.63-.83a.61.61,0,0,1,.19.32c0,.12.17.11.17,0a.62.62,0,0,0-.09-.32.73.73,0,0,0-.59-.37.41.41,0,0,0-.19,0ZM80.77,18a1.83,1.83,0,0,1,.42-.79,1.16,1.16,0,0,1,1-.38,1.2,1.2,0,0,1,.57.17.78.78,0,0,1,.26.21.44.44,0,0,1,0,.47.62.62,0,0,1-.12.19,1,1,0,0,1-.56.34A3.77,3.77,0,0,1,80.9,18l-.13,0Zm-1.7,0A5.64,5.64,0,0,0,80,21l.11.18c.1.13.2.29.32.42s0,.05.06.08a.27.27,0,0,1,.07.08s0,0,.07.07l.14.15a4.6,4.6,0,0,0,.73.59l.7.33a2.65,2.65,0,0,0,2.27,0,3,3,0,0,0,.34-.26c.43-.51-.13-1.35-.51-1.56-.22-.12-.5-.25-.72-.06l-.07.09-.09.08a1,1,0,0,1-.44.24,2.11,2.11,0,0,1-.62,0,1.89,1.89,0,0,1-.85-.5l-.15-.19a3.32,3.32,0,0,1-.47-1l0-.14c.32.08.6.17,1,.25a2.78,2.78,0,0,0,2.14-.18,1.49,1.49,0,0,0,.7-1.05,2,2,0,0,0-.07-1.06,2.78,2.78,0,0,0-.18-.48l-.18-.31a3.42,3.42,0,0,0-2.67-1.61,2.14,2.14,0,0,0-1.5.56,2.61,2.61,0,0,0-.32.34,3.28,3.28,0,0,0-.61,2Zm-24-.89a1.58,1.58,0,0,0,1.46,1.64l.65.1.35,0,.35,0a1.83,1.83,0,0,1,.69.16l.06,0a.65.65,0,0,1,.28.31,1.34,1.34,0,0,1-.12,1.21,2.16,2.16,0,0,1-.75.78,1.24,1.24,0,0,1-1,.22c-.08,0,0,0-.13-.06l-.22-.17c-.13-.17-.14-.53-.63-.53a.84.84,0,0,0-.37.1,1.16,1.16,0,0,0-.49.44,1.27,1.27,0,0,0-.09.47,1.52,1.52,0,0,0,.64.95,1.61,1.61,0,0,0,.69.27,3.35,3.35,0,0,0,2.09-.37,3.91,3.91,0,0,0,.84-.58l.25-.23.15-.17a4.22,4.22,0,0,0,.6-1,2.6,2.6,0,0,0,.1-1.92,1.43,1.43,0,0,0-.13-.28.83.83,0,0,0-.07-.13l-.09-.12a2.06,2.06,0,0,0-1.29-.77,7.87,7.87,0,0,0-1.1-.14,2.35,2.35,0,0,1-.37-.05,1.86,1.86,0,0,1-.34-.07l-.13-.06a.51.51,0,0,1-.25-.18,1.66,1.66,0,0,1-.06-.16A1.4,1.4,0,0,1,57,16a1.94,1.94,0,0,1,1-.66l.12,0,.15,0a1.23,1.23,0,0,1,.8.17c.16.12.28.39.61.39a1,1,0,0,0,.86-.43.79.79,0,0,0,0-.76,1.12,1.12,0,0,0-.16-.22,2.14,2.14,0,0,0-1.62-.71,2.91,2.91,0,0,0-1,.12,3.72,3.72,0,0,0-1.16.58l-.11.09a4.37,4.37,0,0,0-.65.64,3.41,3.41,0,0,0-.45.65,3,3,0,0,0-.4,1.33Zm19.34,9.36a.69.69,0,0,0,.32-.16,2.28,2.28,0,0,0,.58-.89c.17,0,.16,0,.27.08A2.73,2.73,0,0,0,75,27.32a1.64,1.64,0,0,1,0,.23,1.66,1.66,0,0,0,1.22,1.82,2.61,2.61,0,0,0,1.18,0,2.72,2.72,0,0,0,.9-.49,2.22,2.22,0,0,0,.39-.47,3.08,3.08,0,0,0,.34-2,1.68,1.68,0,0,1,0-.18c0-.07,0-.1,0-.16s.18.19.21.29a1.93,1.93,0,0,1,.09.43c0,.52,0,.46.18.58a.87.87,0,0,0,.92-.22s0,0,0,0a.23.23,0,0,0,0-.12l-.18-.49-.12-.29-.36-.88c-.17-.4-.36-.61-.82-.23l-.17.15a1.21,1.21,0,0,1-.16.16l-.08-.06-.09-.06-.08-.05A3.5,3.5,0,0,0,77.9,25a2,2,0,0,0-1.66,0l-.1,0L76,25,76,24.9c-.09-.21-.45-.74-.66-.74a3.08,3.08,0,0,0-.6.49,4.74,4.74,0,0,0-.38.44,3.62,3.62,0,0,0-.38.58l0,.09-.09.19a.07.07,0,0,0,0,.09.58.58,0,0,0,.34.36.86.86,0,0,0,.23.05ZM60.54,28c.14,0,.61,0,.68.15s0,.13.07.2a2,2,0,0,0,.75.91,2.61,2.61,0,0,0,1,.37,1.59,1.59,0,0,0,1.16-.18,1.55,1.55,0,0,0,.71-1c0-.12,0-.23.07-.36a4.39,4.39,0,0,0,0-1c0-.08,0-.22,0-.31s0-.1,0-.15a2.92,2.92,0,0,0-.25-.94,2,2,0,0,0-.81-.88,2.67,2.67,0,0,0-1.32-.38,1.51,1.51,0,0,0-1.07.2A3.67,3.67,0,0,0,61,25l-.18.17a2.1,2.1,0,0,0-.58,1.37c0,.06,0,.11,0,.15a3.36,3.36,0,0,0,.2,1.06,1.45,1.45,0,0,0,.1.25ZM75.73,17v2.18a2.9,2.9,0,0,0,.58,2,1.56,1.56,0,0,0,.3.27,1.73,1.73,0,0,0,1.09.41.74.74,0,0,0,.44-.13.6.6,0,0,0,.19-.49,1.21,1.21,0,0,0-.92-1c0-.18,0-.28,0-.52s0-.36,0-.55l0-1.74c0-.18,0-.3,0-.48s0-.34,0-.49,0-.34,0-.49,0-.72,0-1l0-.46c0-.06,0-.06,0-.11v-.37a1.09,1.09,0,0,0-.29-.72,1.07,1.07,0,0,0-.65-.36.66.66,0,0,0-.52.17.7.7,0,0,0-.16.43l-.09,1.93a2.53,2.53,0,0,1,0,.28c0,.18,0,.4,0,.57a5.56,5.56,0,0,0,0,.58ZM62.51,7V6a.73.73,0,0,0-.07-.43.5.5,0,0,0-.84.16,3.29,3.29,0,0,0,0,.78c0,.28,0,.52,0,.8v.81c0,.28,0,.52,0,.8v1.6c0,.28.16.42.45.42a.74.74,0,0,0,.41-.18c.11-.11.1-.27.1-.49V9l.08.11A3.41,3.41,0,0,0,63,9.6l.35.29a.5.5,0,0,0,.12.08,3.26,3.26,0,0,0,.4.24c.28.14.68.36,1,.1a.43.43,0,0,0,0-.69c-.05,0-.41-.17-.68-.34a2.58,2.58,0,0,1-1-1.06A2.13,2.13,0,0,1,63,7.84c.07-.11.42-.52.53-.66l.76-.93L64.49,6c.14-.16.23-.33.11-.53a.45.45,0,0,0-.25-.22c-.37-.1-.5.07-.7.32l-.57.7-.18.24c-.07.08-.35.44-.39.47Zm2.56-.8v.56c0,.06,0,.08,0,.16a2.85,2.85,0,0,0,0,.29c0,.27,0,.6.09.9s.1.85.17,1.14a1.17,1.17,0,0,0,.71.93,1.06,1.06,0,0,0,1.09-.34l.38-.51c.06-.08,0,0,0,.07a3.18,3.18,0,0,0,.12.72.49.49,0,0,0,.91,0,.87.87,0,0,0,0-.32l-.11-1c0-.22,0-.45,0-.69,0-.09,0-.23,0-.33l0-.71c0-.11,0-.25,0-.36,0-.3.09-.67-.26-.84a.47.47,0,0,0-.67.14.57.57,0,0,0-.06.25,12.38,12.38,0,0,1-.2,1.34,7.16,7.16,0,0,1-.22.7,3.37,3.37,0,0,1-.45.78c-.06.06-.09.12-.16.16s0-.13-.05-.22a17.6,17.6,0,0,1-.27-2.41c0-.1,0-.09,0-.27a.5.5,0,0,0-.84-.44.52.52,0,0,0-.13.34Zm9.74,0a11,11,0,0,0,.48,1.57,15.44,15.44,0,0,0,.63,1.43l.4.74c.08.12.07.08,0,.27s-.1.24-.16.37a3,3,0,0,1-.62.92c-.19.19-.24.31-.11.56a.69.69,0,0,0,.48.4c.28.06.48-.23.66-.46a3.75,3.75,0,0,0,.44-.72.25.25,0,0,0,0-.09A7.09,7.09,0,0,0,77.49,10l.72-2.18a6,6,0,0,0,.26-.91.65.65,0,0,0-.18-.43.59.59,0,0,0-.54-.22.28.28,0,0,0-.15.08,5.36,5.36,0,0,0-.29.83c-.15.45-.3,1-.45,1.39a2.8,2.8,0,0,0-.1.36,5.19,5.19,0,0,1-.37-.79,12.75,12.75,0,0,1-.6-1.74A.83.83,0,0,0,75.6,6c-.26-.26-.79-.32-.79.18ZM72.33,17.41l0,1.54c0,.09,0,.17,0,.26l0,.36c0,.06,0,.06,0,.12a7.11,7.11,0,0,0,.11.94.91.91,0,0,0,.17.34,1.3,1.3,0,0,0,.73.32.7.7,0,0,0,.55-.16.94.94,0,0,0,.12-.74l0-.74c0-.06,0-.07,0-.14s0-.41,0-.61,0-1.25,0-1.41l0-.58c0-.07,0-.1,0-.18a.92.92,0,0,0,0-.35.82.82,0,0,0-.14-.26,1.06,1.06,0,0,0-.09-.11,1,1,0,0,0-.69-.32.62.62,0,0,0-.66.55l0,.57c0,.2,0,.38,0,.6ZM69.65,5.26l0,1.29a.81.81,0,0,0-.44.08c-.36.26-.19.88.44.88a5.6,5.6,0,0,0,0,.59,5.1,5.1,0,0,0,.06.8,1.23,1.23,0,0,0,1.18,1,1.41,1.41,0,0,0,1-.58l.11-.15c.31-.55-.54-1.11-.85-.61a1.23,1.23,0,0,1-.23.28.28.28,0,0,1-.23.11,1.14,1.14,0,0,1-.07-.31l0-1.15h.49a.29.29,0,0,0,.17-.07c.36-.27.06-.81-.33-.87l-.34,0c0-.38,0-.66,0-1a.82.82,0,0,0,0-.36.62.62,0,0,0-.48-.32h0a.36.36,0,0,0-.34.13.54.54,0,0,0-.11.29Zm3,.1c0-.45.47-.53.79-.23a.54.54,0,0,1,.18.36c0,.18,0,.36,0,.52s0,.53,0,.72l.33,0a.66.66,0,0,1,.5.63.35.35,0,0,1-.28.32,3.32,3.32,0,0,1-.53,0v.55c0,.18,0,.33,0,.5a1.23,1.23,0,0,0,.05.35s0,.05,0,.08a.41.41,0,0,0,.21-.1c.34-.29.25-.52.71-.4a.52.52,0,0,1,.13.06.56.56,0,0,1,.22.77,1.46,1.46,0,0,1-.95.61,1.13,1.13,0,0,1-.79-.24,1.54,1.54,0,0,1-.59-1.22c0-.08,0-.12,0-.21l0-.84A.62.62,0,0,1,72.09,7a.39.39,0,0,1,.37-.39l.25,0V5.36Zm-.48,8.76a1.13,1.13,0,0,0,1.1,1.13.76.76,0,0,0,.71-.41,1,1,0,0,0-.22-1.05l-.11-.11a1.1,1.1,0,0,0-.83-.29A.77.77,0,0,0,72.22,14.12Z" transform="translate(-48.48 -4.84)"/></svg>