<svg id="Layer_1" data-name="Layer 1" xmlns="http://www.w3.org/2000/svg" viewBox="0 0 115.3 41.91"><defs><style>.cls-1{fill:#eb8b23;fill-rule:evenodd;}</style></defs><path class="cls-1" d="M44.69,49.51c.05.14.08.19.15.19s.11-.06.2-.27c.22-.47.93-2.29,1-2.51h0l1.08,2.53c.07.19.11.25.18.25s.11-.06.17-.24c.26-.77.8-2.4,1.05-3,.11-.3.17-.49.3-.54a.58.58,0,0,1,.18,0c.05,0,.08,0,.08-.06s0,0-.1,0l-.44,0-.57,0c-.08,0-.12,0-.12,0s0,.06.09.06c.21,0,.26.06.26.14a1,1,0,0,1-.06.3c-.19.59-.59,2-.69,2.24h0L46.41,46c-.07-.17-.12-.24-.18-.24s-.1,0-.15.18l-1,2.63h0c-.07-.24-.56-1.79-.65-2.13a3.3,3.3,0,0,1-.11-.47s0-.08,0-.1a.3.3,0,0,1,.13,0c.06,0,.1,0,.1-.06s0,0-.11,0c-.31,0-.57,0-.62,0l-.62,0c-.07,0-.12,0-.12,0s0,.06.09.06a.36.36,0,0,1,.2,0c.08.05.12.17.19.35l1.12,3.26Zm5.51-1.37a10.66,10.66,0,0,1,0,1.1c0,.15,0,.24-.15.27l-.19,0c-.07,0-.08,0-.08,0s0,.05.1.05h1.28l1,0c.2,0,.25,0,.29-.14a3.43,3.43,0,0,0,.07-.56c0-.06,0-.12,0-.12s-.05,0-.06.07c0,.22-.1.32-.23.38a1.24,1.24,0,0,1-.5.07c-.54,0-.71-.08-.72-.43,0-.15,0-.58,0-.76v-.41s0,0,0,0l.83,0c.2,0,.27.1.3.2s0,.13,0,.19,0,0,0,0,0-.07,0-.11,0-.25,0-.35c0-.26,0-.34,0-.37a.06.06,0,0,0,0-.06s0,0-.08.07a.39.39,0,0,1-.25.08H51s0,0,0-.05V46.1s0-.05,0-.05l.83,0c.27,0,.31.1.35.19a.5.5,0,0,1,0,.19s0,.06,0,.06,0-.06.06-.08,0-.28,0-.34a2.33,2.33,0,0,1,0-.33s0,0,0,0l-.08,0-.22,0H50.55l-.77,0c-.08,0-.12,0-.12,0s0,.06.09.06H50c.17.05.22.11.23.28s0,.31,0,1.09v.9Zm3.73,0c0,.47,0,.88,0,1.1s0,.24-.16.27l-.19,0c-.07,0-.08,0-.08,0s0,.05.1.05h.67l.54,0,.63,0a2.47,2.47,0,0,0,1.78-.61,2,2,0,0,0,.58-1.43,1.8,1.8,0,0,0-.5-1.3,2.88,2.88,0,0,0-2.14-.59l-.86,0-.77,0c-.08,0-.12,0-.12,0s0,.06.09.06h.21c.17.05.22.11.23.28s0,.31,0,1.09v.9Zm.71-1c0-.4,0-.83,0-1s0-.09.06-.1A1,1,0,0,1,55,46a2.09,2.09,0,0,1,1.48.49,1.65,1.65,0,0,1,.5,1.28,1.57,1.57,0,0,1-.45,1.27,1.66,1.66,0,0,1-1.16.35.91.91,0,0,1-.7-.2,1.14,1.14,0,0,1-.06-.37c0-.1,0-.49,0-1v-.65Zm4.62,1a10.66,10.66,0,0,1,0,1.1c0,.15,0,.24-.15.27l-.19,0c-.07,0-.08,0-.08,0s0,.05.1.05h.67l.54,0,.63,0a2.47,2.47,0,0,0,1.78-.61,2,2,0,0,0,.58-1.43,1.8,1.8,0,0,0-.5-1.3,2.88,2.88,0,0,0-2.14-.59l-.86,0-.77,0c-.08,0-.12,0-.12,0s0,.06.09.06H59c.17.05.22.11.23.28s0,.31,0,1.09v.9Zm.71-1c0-.4,0-.83,0-1s0-.09.06-.1a1,1,0,0,1,.33,0,2.09,2.09,0,0,1,1.48.49,1.65,1.65,0,0,1,.5,1.28,1.57,1.57,0,0,1-.45,1.27,1.66,1.66,0,0,1-1.16.35.91.91,0,0,1-.7-.2,1.14,1.14,0,0,1-.06-.37c0-.1,0-.49,0-1v-.65Zm4.62,1a10.68,10.68,0,0,1,0,1.12c0,.15,0,.22-.15.25l-.19,0c-.07,0-.08,0-.08,0s0,.05.1.05h1.55c.06,0,.1,0,.1-.05s0,0-.08,0l-.27,0a.22.22,0,0,1-.21-.24,11,11,0,0,1,0-1.13v-.9c0-.78,0-.92,0-1.09s.06-.25.2-.28h.16s.08,0,.08-.06,0,0-.1,0l-.69,0-.71,0c-.08,0-.13,0-.13,0s0,.06.09.06a.58.58,0,0,1,.19,0c.12,0,.17.1.18.27s0,.31,0,1.09v.9Zm3.1-1.3h0c.1.09.66.71,1.24,1.27l1.55,1.48a.36.36,0,0,0,.22.11s.08-.05.08-.17l.07-3.23c0-.29,0-.38.19-.43h.16c.06,0,.09,0,.09-.06s0,0-.12,0l-.52,0-.67,0c-.08,0-.14,0-.14,0s0,.06.09.06a.83.83,0,0,1,.27,0c.13,0,.18.14.19.45l0,2.28h0l-1.15-1.15c-.77-.76-1.57-1.57-1.63-1.64s-.17-.17-.23-.17-.09.08-.09.18l0,3c0,.45,0,.59-.17.62a.93.93,0,0,1-.24,0s-.08,0-.08,0,0,.05.12.05h1.26c.07,0,.12,0,.12-.05s0,0-.09,0a1,1,0,0,1-.28,0c-.1,0-.17-.16-.18-.56l-.06-2.09Zm8.36,1.88c0-.25,0-.46,0-.61s.06-.26.2-.28l.15,0a.06.06,0,0,0,.06-.05s0,0-.1,0H74.93c-.07,0-.12,0-.12,0s0,.05.09.05l.2,0c.17.05.23.1.23.28s0,.35,0,.6v.47c0,.09,0,.15-.1.18a.82.82,0,0,1-.38.06A1.78,1.78,0,0,1,73,47.51a1.5,1.5,0,0,1,.48-1.25,1.53,1.53,0,0,1,1-.3,1.63,1.63,0,0,1,1.15.39.68.68,0,0,1,.18.42s0,.07.06.07.07,0,.07-.11a6.36,6.36,0,0,1,0-.85s0-.05-.08-.06l-.42,0a5.23,5.23,0,0,0-.94-.09,2.71,2.71,0,0,0-1.43.33,1.91,1.91,0,0,0-.93,1.68c0,1.42,1.15,2,2.46,2a3.16,3.16,0,0,0,1.3-.23c.06,0,.06,0,.06-.18v-.57Zm3.67,0c0,1,0,1.52-.4,1.91a1.2,1.2,0,0,1-.25.2c-.09,0-.12.06-.12.09A.05.05,0,0,0,79,51l.11,0a2.48,2.48,0,0,0,1.21-1.11,2.55,2.55,0,0,0,.13-.9c0-.26,0-.51,0-.73v-.95a10.48,10.48,0,0,1,0-1.09c0-.18,0-.25.19-.28h.16q.09,0,.09-.06s0,0-.11,0l-.67,0-.8,0c-.08,0-.13,0-.13,0s0,.06.09.06h.22c.17.05.21.11.23.28v2.56Zm2.63-.57a10.66,10.66,0,0,1,0,1.1c0,.15,0,.24-.15.27l-.19,0c-.07,0-.08,0-.08,0s0,.05.1.05h1.28l1,0c.2,0,.25,0,.28-.14a3.43,3.43,0,0,0,.08-.56c0-.06,0-.12-.05-.12s0,0-.06.07c0,.22-.1.32-.23.38a1.24,1.24,0,0,1-.5.07c-.55,0-.71-.08-.72-.43,0-.15,0-.58,0-.76v-.41s0,0,0,0l.83,0c.2,0,.27.1.3.2s0,.13,0,.19a0,0,0,0,0,0,0s.06-.07.06-.11,0-.25,0-.35c0-.26,0-.34,0-.37a.06.06,0,0,0,0-.06s0,0-.08.07a.41.41,0,0,1-.25.08H83.1s0,0,0-.05V46.1s0-.05,0-.05l.83,0c.26,0,.31.1.35.19a.5.5,0,0,1,0,.19s0,.06,0,.06,0-.06.06-.08,0-.28,0-.34a2.33,2.33,0,0,1,0-.33s0,0,0,0l-.08,0-.22,0H82.7l-.77,0c-.08,0-.12,0-.12,0s0,.06.09.06h.21c.17.05.22.11.23.28s0,.31,0,1.09v.9Zm4.48,1.37c0,.14.08.19.15.19s.11-.06.2-.27c.22-.47.93-2.29,1-2.51h0l1.09,2.53c.07.19.11.25.18.25s.11-.06.17-.24c.26-.77.8-2.4,1-3,.11-.3.17-.49.3-.54a.58.58,0,0,1,.18,0s.08,0,.08-.06,0,0-.1,0l-.44,0-.57,0c-.08,0-.12,0-.12,0s0,.06.09.06c.21,0,.26.06.26.14a1,1,0,0,1-.06.3c-.19.59-.59,2-.69,2.24h0L88.55,46c-.07-.17-.12-.24-.18-.24s-.1,0-.16.18l-1,2.63h0c-.08-.24-.56-1.79-.65-2.13a2.28,2.28,0,0,1-.11-.47s0-.08,0-.1a.3.3,0,0,1,.13,0c.06,0,.1,0,.1-.06s0,0-.11,0c-.31,0-.57,0-.62,0l-.62,0c-.07,0-.12,0-.12,0s0,.06.09.06a.36.36,0,0,1,.2,0c.08.05.12.17.19.35l1.12,3.26Zm5.51-1.37a10.66,10.66,0,0,1,0,1.1c0,.15,0,.24-.15.27l-.19,0c-.07,0-.08,0-.08,0s0,.05.1.05h1.28l1,0c.2,0,.25,0,.28-.14a3.43,3.43,0,0,0,.08-.56c0-.06,0-.12,0-.12s0,0-.06.07c0,.22-.1.32-.23.38a1.24,1.24,0,0,1-.5.07c-.55,0-.71-.08-.72-.43,0-.15,0-.58,0-.76v-.41s0,0,0,0l.83,0c.2,0,.27.1.3.2s0,.13,0,.19a0,0,0,0,0,0,0s.06-.07.06-.11,0-.25,0-.35c0-.26.05-.34.05-.37a.06.06,0,0,0-.05-.06s0,0-.08.07a.41.41,0,0,1-.25.08h-.93s0,0,0-.05V46.1s0-.05,0-.05l.83,0c.26,0,.31.1.35.19a.5.5,0,0,1,0,.19s0,.06,0,.06.05-.06.06-.08,0-.28,0-.34a2.33,2.33,0,0,1,0-.33s0,0,0,0l-.08,0-.22,0H92.69l-.77,0c-.08,0-.12,0-.12,0s0,.06.09.06h.21c.17.05.22.11.23.28s0,.31,0,1.09v.9Zm4.44-.9c0-.78,0-.92,0-1.09s.06-.25.2-.28h.21q.09,0,.09-.06s0,0-.11,0l-.77,0-.73,0c-.08,0-.11,0-.11,0s0,.06.09.06h.17c.17.05.22.11.23.28s0,.31,0,1.09v.9a10.66,10.66,0,0,1,0,1.1c0,.15,0,.24-.15.27l-.19,0c-.07,0-.08,0-.08,0s0,.05.1.05h1.37l1,0c.28,0,.3,0,.34-.14a4,4,0,0,0,.07-.59c0-.06,0-.12,0-.12s-.06,0-.06.08a.68.68,0,0,1-.14.31c-.13.14-.34.14-.62.14s-.61,0-.7-.11-.12-.42-.12-1.08v-.9Zm3.71,0c0-.78,0-.92,0-1.09s0-.25.2-.28h.2c.07,0,.1,0,.1-.06s0,0-.11,0l-.77,0-.73,0c-.08,0-.12,0-.12,0s0,.06.09.06h.18c.17.05.22.11.23.28v2c0,.47,0,.88,0,1.1s0,.24-.16.27l-.18,0c-.07,0-.09,0-.09,0s0,.05.1.05h1.38l1,0c.28,0,.31,0,.34-.14a4.23,4.23,0,0,0,.08-.59c0-.06,0-.12,0-.12s-.05,0-.06.08a.58.58,0,0,1-.13.31c-.13.14-.34.14-.62.14s-.62,0-.71-.11-.11-.42-.11-1.08v-.9Zm3,.9c0,.47,0,.88,0,1.1s0,.24-.16.27l-.19,0c-.06,0-.08,0-.08,0s0,.05.1.05h1.29l1,0c.2,0,.25,0,.29-.14a3.43,3.43,0,0,0,.07-.56c0-.06,0-.12,0-.12s0,0-.06.07c0,.22-.09.32-.23.38a1.24,1.24,0,0,1-.5.07c-.54,0-.7-.08-.72-.43V47.75s0,0,0,0l.84,0c.2,0,.26.1.29.2s0,.13,0,.19,0,0,0,0,0-.07,0-.11,0-.25,0-.35c0-.26,0-.34,0-.37s0-.06,0-.06,0,0-.09.07a.37.37,0,0,1-.25.08h-.93s0,0,0-.05V46.1a0,0,0,0,1,0-.05l.83,0c.27,0,.31.1.35.19a.5.5,0,0,1,0,.19s0,.06,0,.06.06-.06.06-.08,0-.28,0-.34a2.33,2.33,0,0,1,0-.33s0,0,0,0l-.09,0-.22,0h-1.45l-.77,0c-.07,0-.12,0-.12,0s0,.06.09.06h.22c.17.05.21.11.23.28v2Z" transform="translate(-12.35 -9.04)"/><path class="cls-1" d="M107.21,48.14c0,.47,0,.88,0,1.1s0,.24-.16.27l-.19,0c-.06,0-.08,0-.08,0s0,.05.1.05h1.48c.07,0,.11,0,.11-.05s0,0-.07,0l-.26,0c-.16,0-.18-.12-.2-.27a10.55,10.55,0,0,1,0-1.1v-.07a0,0,0,0,1,0,0h.48a.12.12,0,0,1,.09,0c.07.08.29.42.5.7a2.35,2.35,0,0,0,.73.75,1.18,1.18,0,0,0,.58.1h.51c.06,0,.1,0,.1-.05a.07.07,0,0,0-.07,0,.34.34,0,0,1-.13,0,.93.93,0,0,1-.56-.33c-.32-.32-.7-.79-1.17-1.37.52-.41.74-.75.74-1.13a.87.87,0,0,0-.38-.71,1.82,1.82,0,0,0-1-.22l-.83,0-.72,0c-.08,0-.13,0-.13,0s0,.06.1.06H107c.17.05.21.11.23.28v2Zm.68-2s0-.06,0-.07l.31,0a.81.81,0,0,1,.81.91.85.85,0,0,1-.35.76.5.5,0,0,1-.37.09,1.68,1.68,0,0,1-.4-.05s0,0,0-.09V46.11Zm4.29,2.61V48.3a1.05,1.05,0,0,0-.12-.54c0-.07-.76-1.2-1-1.47a1.25,1.25,0,0,0-.34-.37.65.65,0,0,0-.23-.06s-.07,0-.07-.06,0,0,.1,0l.66,0,.61,0s.07,0,.07,0,0,0-.12.07a.08.08,0,0,0-.07.08.43.43,0,0,0,.07.17c.09.16.79,1.36.88,1.5.07-.12.71-1.21.79-1.37a.83.83,0,0,0,.08-.27s0-.1-.12-.12-.09,0-.09-.06,0,0,.09,0l.52,0,.56,0c.06,0,.1,0,.1,0s0,.06-.1.06a.56.56,0,0,0-.23.06.61.61,0,0,0-.28.24,16,16,0,0,0-1,1.64,1.17,1.17,0,0,0-.07.51v.41c0,.09,0,.3,0,.52s.06.24.22.27l.27,0c.06,0,.09,0,.09,0s0,.05-.12.05h-1.52c-.07,0-.11,0-.11-.05s0,0,.08,0l.19,0c.11,0,.15-.12.16-.27S112.18,48.81,112.18,48.72Z" transform="translate(-12.35 -9.04)"/><path class="cls-1" d="M30.35,38.42a.25.25,0,0,1,.25.1c.11,2,1,3.13,2.57,3.4a3.09,3.09,0,0,0,1.6-.12,2.47,2.47,0,0,0,1.62-2,4.14,4.14,0,0,0-.06-1,3.5,3.5,0,0,0-.35-.9l-.34-.51-1-1a25.65,25.65,0,0,1-2.42-2,6.58,6.58,0,0,1-1.12-1.44,5.19,5.19,0,0,1-.66-2.41,3.6,3.6,0,0,1,.63-2.06,4.42,4.42,0,0,1,3.6-1.88,9.92,9.92,0,0,1,2.45.16c.71.13,1.05.24,1,.34l-.06,1.44V30c-.05.23-.1.35-.16.35h-.1c-.1,0-.15,0-.15-.08l-.16-.9a2.69,2.69,0,0,0-1.37-1.57,3.49,3.49,0,0,0-1.7-.22,2.17,2.17,0,0,0-1.94,1.91v.44a1.94,1.94,0,0,0,.25.84l.44.63.68.69c1.53,1.19,2.39,1.89,2.57,2.09a5.76,5.76,0,0,1,2.1,4.23,5.39,5.39,0,0,1-.28,1.69A4.68,4.68,0,0,1,33.83,43a6.9,6.9,0,0,1-2.91-.34c-.48-.18-.72-.3-.72-.35l-.13-.25c0-.89,0-2,.1-3.25A.51.51,0,0,1,30.35,38.42Z" transform="translate(-12.35 -9.04)"/><path class="cls-1" d="M39.31,30.9c1.68.06,3.13.06,4.33,0,.15,0,.23.07.21.12l-.07.16a2.31,2.31,0,0,0-.86.16l-.21.23a6.32,6.32,0,0,0-.14,2v4.35a6.32,6.32,0,0,0,.12,1.45l.21.84A2.78,2.78,0,0,0,45.18,42h.34a2.82,2.82,0,0,0,2.27-.92,4.14,4.14,0,0,0,.76-2.7v-6a1.42,1.42,0,0,0-.21-.92l-.21-.17a4.63,4.63,0,0,0-1-.14.2.2,0,0,1,0-.18l.18-.1L49.7,31,51,30.9l.18.1,0,.16-.09.05a2.34,2.34,0,0,0-.69.07.76.76,0,0,0-.38.37,2.86,2.86,0,0,0-.09.73l0,5.65a5,5,0,0,1-1.09,3.42,4.27,4.27,0,0,1-3.11,1.45,8,8,0,0,1-1.36-.06,3.74,3.74,0,0,1-3.26-2.37,6,6,0,0,1-.32-1.2l-.09-.89-.06-6.44a.69.69,0,0,0-.41-.61L40,31.26l-.75-.05-.11-.12A.17.17,0,0,1,39.31,30.9Z" transform="translate(-12.35 -9.04)"/><path class="cls-1" d="M55.41,31.79v4.12l0,.07.24.05a2.41,2.41,0,0,0,1.59-.25,2.27,2.27,0,0,0,.64-1.42,3.17,3.17,0,0,0-.49-2,1.75,1.75,0,0,0-1.13-.72h-.8l-.09.12Zm0,5v4.37a1.24,1.24,0,0,0,.14.64,1.73,1.73,0,0,0,1,.45h.35a1.79,1.79,0,0,0,2-1.73,4.12,4.12,0,0,0-.75-2.7,2.9,2.9,0,0,0-1-.85,4.47,4.47,0,0,0-1-.22l-.77,0ZM52.23,31l3.06.05L56.58,31a3.76,3.76,0,0,1,1,.14,2.3,2.3,0,0,1,1.93,2.08l0,.75A3.69,3.69,0,0,1,58,36.09l.73.33A3.52,3.52,0,0,1,60.6,38.5,3.47,3.47,0,0,1,57,43h-.34L55,42.86l-2.61,0-.11-.11c0-.09,0-.14,0-.15l.76-.1c.2,0,.33-.23.41-.61.06-.73.09-1.27.09-1.61v-8a1.12,1.12,0,0,0-.24-.85,1,1,0,0,0-.52-.21h-.66q-.15-.06-.12-.18T52.23,31Z" transform="translate(-12.35 -9.04)"/><path class="cls-1" d="M60.88,30.91l1.45,0h1.4l1.3,0,.19.08c0,.11,0,.18,0,.21a2.13,2.13,0,0,0-.9.17c-.22.1-.33.52-.33,1.23V41c0,.77.08,1.21.24,1.33l.2.14,1.19.13a.16.16,0,0,1,.05.11.52.52,0,0,1,0,.11l-.26.08-2.56-.06-2,0-.12-.09v-.12l.1-.08a2.67,2.67,0,0,0,.79-.08A.61.61,0,0,0,61.9,42a9.59,9.59,0,0,0,.1-1.91L62,32a1.26,1.26,0,0,0-.24-.57l-.22-.12-.76-.07a.18.18,0,0,1-.09-.22Z" transform="translate(-12.35 -9.04)"/><path class="cls-1" d="M66.49,30.88c.81,0,1.57.05,2.28.05s1.38,0,2-.05c.16,0,.23.08.21.12l-.07.18a2,2,0,0,0-.84.17.76.76,0,0,0-.26.34,23.7,23.7,0,0,0-.11,2.87c0,.49,0,1,0,1.63h.08q3-3.19,3.32-3.62a4.84,4.84,0,0,0,.64-1l0-.26-.1-.1-.24-.07a.24.24,0,0,1,0-.21l.14-.08c.56,0,1.13.05,1.74.05s1.21,0,1.86-.05c.11,0,.17.07.17.12l0,.17a3.87,3.87,0,0,0-2.57,1.24c-2.27,2.29-3.42,3.48-3.47,3.59.69.86,1.15,1.44,1.4,1.72.7.83,1.43,1.62,2.18,2.38l1.34,1.33.85.67a3.64,3.64,0,0,0,1,.42c.5.06.76.11.76.15s0,.18,0,.21l-.34,0L76,42.9a2.26,2.26,0,0,1-1.2-.38A9.77,9.77,0,0,1,73,40.78a46.13,46.13,0,0,1-3.18-3.88s-.05-.07-.09,0v4.51a3.31,3.31,0,0,0,.11.77c.1.23.19.35.26.35l.34.1h.65c.17,0,.24.08.2.23a.36.36,0,0,1-.29.12l-2.38-.06-2,0-.12-.1c0-.09,0-.15,0-.17l.73-.09c.19,0,.32-.24.4-.61.08-.74.12-1.29.12-1.64v-8a1.12,1.12,0,0,0-.24-.85.84.84,0,0,0-.52-.21l-.66,0a.15.15,0,0,1-.12-.17C66.34,30.92,66.41,30.87,66.49,30.88Z" transform="translate(-12.35 -9.04)"/><path class="cls-1" d="M79.19,39.57a.21.21,0,0,1,.18.08q.12,2.19,1.89,2.49a2.3,2.3,0,0,0,1.17-.09,1.82,1.82,0,0,0,1.19-1.45,3.62,3.62,0,0,0,0-.73,3,3,0,0,0-.26-.66l-.25-.37-.73-.73a18.2,18.2,0,0,1-1.76-1.49,4.83,4.83,0,0,1-.83-1,3.87,3.87,0,0,1-.48-1.77,2.63,2.63,0,0,1,.46-1.51,3.25,3.25,0,0,1,2.64-1.38,7,7,0,0,1,1.79.12c.51.09.76.18.75.25l0,1.06v1.07c0,.17-.07.25-.11.25s-.19,0-.19,0l-.11-.67a2,2,0,0,0-1-1.15,2.65,2.65,0,0,0-1.24-.15A1.58,1.58,0,0,0,80.79,33v.32A1.34,1.34,0,0,0,81,34l.33.46.5.5c1.11.87,1.74,1.39,1.87,1.54a4.21,4.21,0,0,1,1.53,3.1,4.16,4.16,0,0,1-.2,1.23,3.44,3.44,0,0,1-3.26,2.12,5,5,0,0,1-2.13-.25,1.55,1.55,0,0,1-.53-.25L79,42.25a23.32,23.32,0,0,1,.07-2.4A.36.36,0,0,1,79.19,39.57Z" transform="translate(-12.35 -9.04)"/><path class="cls-1" d="M86.26,30.88c.8,0,1.57.05,2.3.05s1.43,0,2.1-.05q.24,0,.21.12v.14l-.11.05a1.37,1.37,0,0,0-1,.23.65.65,0,0,0-.18.37,33.53,33.53,0,0,0-.05,4.15h6l0,0c0-.67,0-1.27,0-1.78a11.13,11.13,0,0,0-.11-2.4.66.66,0,0,0-.33-.39,5.87,5.87,0,0,0-1.07-.14.18.18,0,0,1,0-.2.19.19,0,0,1,.19-.1q2.52.09,4.44,0l.18.1c0,.13,0,.19,0,.19a2.22,2.22,0,0,0-.93.17q-.33.16-.33,1.23V40.8a6.58,6.58,0,0,0,.12,1.29q.12.36.33.42a6.77,6.77,0,0,0,1.15.12c.07,0,.11.1.11.15s0,0,0,0l-.12.1-2.53,0c-.79,0-1.52,0-2.2,0a.24.24,0,0,1-.14-.12c0-.1,0-.15.1-.17a2.13,2.13,0,0,0,.84-.12c.25-.11.38-.64.38-1.57l0-4.08-.07,0-6,0c0,2.35,0,3.88,0,4.6l.12.72a.7.7,0,0,0,.36.36l1.1.09c.08,0,.12.1.12.14l0,0-.15.1-2.52,0q-1.19,0-2.19,0l-.12-.1c0-.09,0-.15,0-.16l.76-.1c.19,0,.33-.23.4-.62.07-.74.1-1.28.1-1.64v-8a1.13,1.13,0,0,0-.24-.85.84.84,0,0,0-.52-.21l-.67,0A.15.15,0,0,1,86,31C86.11,30.92,86.18,30.87,86.26,30.88Z" transform="translate(-12.35 -9.04)"/><path class="cls-1" d="M103.87,38.09l0,.07h2.82l-1.39-4-.09.09-1.36,3.84ZM105.59,31c.17-.06.31.06.41.34l3.75,9.67a3.63,3.63,0,0,0,.57,1,1.61,1.61,0,0,0,.56.46,3.93,3.93,0,0,0,.84.09l.06.07a.16.16,0,0,1-.17.19l-.5,0c-.52,0-1,0-1.46,0-1.15,0-1.75-.06-1.76-.16v-.14a.36.36,0,0,1,.24-.09.33.33,0,0,0,.11-.22L107,39l-.08,0H103.6l-.11.18-.87,2.38-.11.49c0,.3,0,.49.15.55l.19.07a2.41,2.41,0,0,1,.67,0s0,.07,0,.11a.15.15,0,0,1-.1.14H99.79l-.1-.09,0-.15.15-.06a1.42,1.42,0,0,0,1-.24,3.27,3.27,0,0,0,.74-1.32l3.7-9.64A.69.69,0,0,1,105.59,31Z" transform="translate(-12.35 -9.04)"/><path class="cls-1" d="M115.12,30.91h.1a.22.22,0,0,1,.2.1s.35.67,1,2l3.33,7.06,4.17-9a.26.26,0,0,1,.21-.12.27.27,0,0,1,.12,0,.61.61,0,0,1,.15.3l1.41,10a1.69,1.69,0,0,0,.53,1.21,1.93,1.93,0,0,0,.62.19l.65,0,.08.07c0,.11-.06.18-.19.21-2.47,0-3.71-.07-3.71-.22V42.6l.16-.12a.19.19,0,0,0,.1-.16v-.46l-.9-6.81H123l-3.44,7.46c-.16.34-.28.48-.37.42s-.32-.33-.7-1.11L117,38.75l-1.58-3.52-.07,0-.81,6.48c-.06.42,0,.67.18.77a3.36,3.36,0,0,0,1.05.19.16.16,0,0,1,.08.13.13.13,0,0,1,0,.06l-.14.09-1.82,0c-.58,0-1.12,0-1.63,0l-.12-.11c0-.08,0-.13,0-.15l.72-.09c.27-.12.45-.53.56-1.24L115,31.18C115,31,115.09,30.91,115.12,30.91Z" transform="translate(-12.35 -9.04)"/><path class="cls-1" d="M21.86,44.83a3.73,3.73,0,0,1-1.55.29c.81-3.81,3.58-1.27,1.55-.29Zm-3.2,1.57a5.66,5.66,0,0,0,2.89-.51c2.27-1.1,1.32-3.36-.33-3.13a2.4,2.4,0,0,0-1.43.94A8.43,8.43,0,0,0,18.66,46.4Z" transform="translate(-12.35 -9.04)"/><path class="cls-1" d="M18.79,41.27a3.76,3.76,0,0,1-1.57-.1c1.74-3.49,3.78-.34,1.57.1ZM15.3,42a5.72,5.72,0,0,0,2.93.23c2.47-.5,2.12-2.93.47-3.12a2.43,2.43,0,0,0-1.62.56A8.35,8.35,0,0,0,15.3,42Z" transform="translate(-12.35 -9.04)"/><path class="cls-1" d="M16.71,37.06a3.74,3.74,0,0,1-1.49-.5c2.55-2.93,3.74.62,1.49.5Zm-3.56-.18a5.77,5.77,0,0,0,2.78,1c2.51.13,2.78-2.31,1.23-2.9a2.43,2.43,0,0,0-1.71.13A8.45,8.45,0,0,0,13.15,36.88Z" transform="translate(-12.35 -9.04)"/><path class="cls-1" d="M15.75,32.46a3.81,3.81,0,0,1-1.32-.85c3.21-2.21,3.47,1.53,1.32.85Zm-3.4-1.06A5.82,5.82,0,0,0,14.8,33c2.4.76,3.27-1.54,1.92-2.5a2.38,2.38,0,0,0-1.69-.3A8.07,8.07,0,0,0,12.35,31.4Z" transform="translate(-12.35 -9.04)"/><path class="cls-1" d="M16,27.76a3.68,3.68,0,0,1-1.07-1.15c3.66-1.34,3,2.35,1.07,1.15Zm-3-1.87a5.82,5.82,0,0,0,2,2.18c2.13,1.33,3.55-.67,2.48-1.94a2.43,2.43,0,0,0-1.56-.72A8.35,8.35,0,0,0,12.94,25.89Z" transform="translate(-12.35 -9.04)"/><path class="cls-1" d="M17.36,23.27a3.79,3.79,0,0,1-.75-1.38c3.88-.38,2.3,3,.75,1.38ZM14.9,20.7a5.67,5.67,0,0,0,1.35,2.6c1.74,1.83,3.61.24,2.89-1.26A2.39,2.39,0,0,0,17.81,21,8.19,8.19,0,0,0,14.9,20.7Z" transform="translate(-12.35 -9.04)"/><path class="cls-1" d="M19.82,19.27a3.75,3.75,0,0,1-.37-1.53c3.84.61,1.46,3.51.37,1.53Zm-1.74-3.1A5.69,5.69,0,0,0,18.75,19c1.22,2.2,3.43,1.13,3.11-.5a2.48,2.48,0,0,0-1-1.38A8.07,8.07,0,0,0,18.08,16.17Z" transform="translate(-12.35 -9.04)"/><path class="cls-1" d="M23.21,16a3.77,3.77,0,0,1,0-1.58c3.57,1.55.54,3.76,0,1.58Zm-.91-3.45a5.71,5.71,0,0,0-.07,2.94c.63,2.43,3,2,3.14.29a2.41,2.41,0,0,0-.65-1.58A8.25,8.25,0,0,0,22.3,12.57Z" transform="translate(-12.35 -9.04)"/><path class="cls-1" d="M27.3,13.71a3.8,3.8,0,0,1,.41-1.52c3.08,2.39-.41,3.77-.41,1.52Zm0-3.56a5.77,5.77,0,0,0-.8,2.82c0,2.52,2.46,2.65,3,1.07a2.5,2.5,0,0,0-.23-1.7A8.3,8.3,0,0,0,27.28,10.15Z" transform="translate(-12.35 -9.04)"/><path class="cls-1" d="M31.84,12.5a3.8,3.8,0,0,1,.78-1.37c2.38,3.08-1.34,3.55-.78,1.37ZM32.71,9a5.74,5.74,0,0,0-1.48,2.54C30.6,14,33,14.76,33.83,13.36A2.43,2.43,0,0,0,34,11.65,8.37,8.37,0,0,0,32.71,9Z" transform="translate(-12.35 -9.04)"/><path class="cls-1" d="M36.54,12.46a3.72,3.72,0,0,1,1.1-1.13c1.53,3.58-2.19,3.1-1.1,1.13Zm1.71-3.13a5.81,5.81,0,0,0-2.07,2.08c-1.22,2.21.87,3.52,2.07,2.38a2.42,2.42,0,0,0,.63-1.6A8.43,8.43,0,0,0,38.25,9.33Z" transform="translate(-12.35 -9.04)"/><path class="cls-1" d="M41.1,13.6a3.8,3.8,0,0,1,1.34-.83c.59,3.85-2.89,2.46-1.34.83ZM43.53,11A5.73,5.73,0,0,0,41,12.49c-1.73,1.84,0,3.62,1.42,2.82a2.49,2.49,0,0,0,1-1.39A8.21,8.21,0,0,0,43.53,11Z" transform="translate(-12.35 -9.04)"/><path class="cls-1" d="M45.23,15.84a3.56,3.56,0,0,1,1.51-.46c-.39,3.87-3.42,1.66-1.51.46Zm3-1.91a5.65,5.65,0,0,0-2.82.82c-2.13,1.34-.94,3.49.67,3.08a2.53,2.53,0,0,0,1.32-1.09A8.82,8.82,0,0,0,48.24,13.93Z" transform="translate(-12.35 -9.04)"/><path class="cls-1" d="M48.67,19A3.71,3.71,0,0,1,50.24,19c-1.34,3.65-3.72.75-1.57.07Zm3.39-1.1a5.78,5.78,0,0,0-2.94.09c-2.4.77-1.78,3.15-.12,3.15a2.42,2.42,0,0,0,1.55-.73A8.16,8.16,0,0,0,52.06,17.94Z" transform="translate(-12.35 -9.04)"/><path class="cls-1" d="M51.2,23a3.82,3.82,0,0,1,1.54.32c-2.22,3.21-3.79-.2-1.54-.32Zm3.55-.22a5.69,5.69,0,0,0-2.86-.64c-2.51.14-2.51,2.6-.91,3a2.5,2.5,0,0,0,1.69-.32A8.48,8.48,0,0,0,54.75,22.78Z" transform="translate(-12.35 -9.04)"/><path class="cls-1" d="M21.86,44.83a3.73,3.73,0,0,1-1.55.29c.81-3.81,3.58-1.27,1.55-.29Zm-3.2,1.57a5.66,5.66,0,0,0,2.89-.51c2.27-1.1,1.32-3.36-.33-3.13a2.4,2.4,0,0,0-1.43.94A8.43,8.43,0,0,0,18.66,46.4Z" transform="translate(-12.35 -9.04)"/><path class="cls-1" d="M25.89,41.33a2.26,2.26,0,0,1-1,.18c.51-2.37,2.24-.79,1-.18Zm-2,1A3.67,3.67,0,0,0,25.7,42c1.41-.68.82-2.1-.21-2a1.49,1.49,0,0,0-.89.58A5.34,5.34,0,0,0,23.89,42.31Z" transform="translate(-12.35 -9.04)"/><path class="cls-1" d="M23.58,38.89a2.37,2.37,0,0,1-1-.06c1.09-2.18,2.36-.21,1,.06Zm-2.18.45a3.71,3.71,0,0,0,1.83.15c1.54-.31,1.32-1.83.29-2a1.52,1.52,0,0,0-1,.35A5.23,5.23,0,0,0,21.4,39.34Z" transform="translate(-12.35 -9.04)"/><path class="cls-1" d="M22,36a2.31,2.31,0,0,1-.93-.31c1.6-1.83,2.33.4.93.31Zm-2.22-.11a3.65,3.65,0,0,0,1.73.6c1.57.09,1.74-1.43.78-1.81a1.59,1.59,0,0,0-1.07.08A5.11,5.11,0,0,0,19.74,35.84Z" transform="translate(-12.35 -9.04)"/><path class="cls-1" d="M21.13,32.7a2.33,2.33,0,0,1-.82-.53c2-1.37,2.16,1,.82.53ZM19,32a3.59,3.59,0,0,0,1.52,1c1.5.48,2-.95,1.21-1.56a1.56,1.56,0,0,0-1-.19A5.14,5.14,0,0,0,19,32Z" transform="translate(-12.35 -9.04)"/><path class="cls-1" d="M21.15,29.35a2.63,2.63,0,0,1-.67-.73c2.29-.82,1.85,1.48.67.73Zm-1.88-1.19a3.5,3.5,0,0,0,1.21,1.37c1.33.84,2.22-.4,1.56-1.2a1.52,1.52,0,0,0-1-.45A5.18,5.18,0,0,0,19.27,28.16Z" transform="translate(-12.35 -9.04)"/><path class="cls-1" d="M22,26.1a2.3,2.3,0,0,1-.46-.87C24,25,23,27.13,22,26.1Zm-1.53-1.62a3.65,3.65,0,0,0,.84,1.63c1.07,1.15,2.25.17,1.81-.77a1.57,1.57,0,0,0-.83-.68A5.32,5.32,0,0,0,20.48,24.48Z" transform="translate(-12.35 -9.04)"/><path class="cls-1" d="M23.66,23.18a2.34,2.34,0,0,1-.23-1c2.4.4.89,2.2.23,1Zm-1.07-1.95A3.46,3.46,0,0,0,23,23c.74,1.38,2.13.72,1.94-.29a1.5,1.5,0,0,0-.63-.87A5,5,0,0,0,22.59,21.23Z" transform="translate(-12.35 -9.04)"/><path class="cls-1" d="M26,20.76a2.44,2.44,0,0,1,0-1c2.22,1,.31,2.35,0,1Zm-.54-2.15a3.52,3.52,0,0,0-.07,1.83c.37,1.52,1.88,1.24,2,.21a1.55,1.55,0,0,0-.39-1A5.31,5.31,0,0,0,25.45,18.61Z" transform="translate(-12.35 -9.04)"/><path class="cls-1" d="M28.85,19a2.43,2.43,0,0,1,.27-.94c1.9,1.52-.29,2.35-.27.94Zm0-2.22a3.61,3.61,0,0,0-.53,1.76c0,1.57,1.52,1.67,1.85.69a1.52,1.52,0,0,0-.13-1.06A5.14,5.14,0,0,0,28.87,16.79Z" transform="translate(-12.35 -9.04)"/><path class="cls-1" d="M32.06,18a2.55,2.55,0,0,1,.5-.85c1.46,1.95-.87,2.21-.5.85Zm.58-2.14a3.52,3.52,0,0,0-.95,1.56c-.41,1.52,1,2,1.61,1.14a1.53,1.53,0,0,0,.14-1.06A4.91,4.91,0,0,0,32.64,15.9Z" transform="translate(-12.35 -9.04)"/><path class="cls-1" d="M35.42,17.91a2.42,2.42,0,0,1,.69-.7c.92,2.26-1.39,1.92-.69.7ZM36.52,16a3.63,3.63,0,0,0-1.32,1.27c-.78,1.37.51,2.2,1.27,1.51a1.53,1.53,0,0,0,.41-1A5.19,5.19,0,0,0,36.52,16Z" transform="translate(-12.35 -9.04)"/><path class="cls-1" d="M38.7,18.62a2.42,2.42,0,0,1,.85-.49c.32,2.41-1.84,1.5-.85.49ZM40.25,17a3.56,3.56,0,0,0-1.6.91c-1.1,1.12-.06,2.25.85,1.77a1.56,1.56,0,0,0,.65-.85A5.38,5.38,0,0,0,40.25,17Z" transform="translate(-12.35 -9.04)"/><path class="cls-1" d="M41.69,20.14a2.55,2.55,0,0,1,1-.27c-.3,2.42-2.16,1-1,.27ZM43.59,19a3.55,3.55,0,0,0-1.77.48c-1.35.8-.63,2.16.38,1.93a1.52,1.52,0,0,0,.84-.67A5.13,5.13,0,0,0,43.59,19Z" transform="translate(-12.35 -9.04)"/><path class="cls-1" d="M44.21,22.36a2.51,2.51,0,0,1,1,0c-.89,2.26-2.33.42-1,0Zm2.13-.63a3.59,3.59,0,0,0-1.84,0c-1.5.45-1.15,1.94-.12,2a1.5,1.5,0,0,0,1-.44A5.1,5.1,0,0,0,46.34,21.73Z" transform="translate(-12.35 -9.04)"/><path class="cls-1" d="M46.08,25.15a2.42,2.42,0,0,1,1,.23c-1.44,2-2.37-.19-1-.23Zm2.22-.08a3.55,3.55,0,0,0-1.77-.45c-1.58.05-1.61,1.59-.62,1.87A1.54,1.54,0,0,0,47,26.32,5.11,5.11,0,0,0,48.3,25.07Z" transform="translate(-12.35 -9.04)"/><path class="cls-1" d="M28.58,37a1.76,1.76,0,0,1-.71.13c.37-1.74,1.63-.58.71-.13Zm-1.46.71a2.49,2.49,0,0,0,1.32-.23c1-.5.6-1.54-.15-1.43a1.12,1.12,0,0,0-.65.43A3.8,3.8,0,0,0,27.12,37.69Z" transform="translate(-12.35 -9.04)"/><path class="cls-1" d="M27,34.8a1.68,1.68,0,0,1-.71-.11c.91-1.52,1.73,0,.71.11Zm-1.61.2a2.51,2.51,0,0,0,1.32.21c1.14-.14,1.07-1.26.32-1.4a1.1,1.1,0,0,0-.75.19A3.86,3.86,0,0,0,25.34,35Z" transform="translate(-12.35 -9.04)"/><path class="cls-1" d="M26.11,32.21a1.92,1.92,0,0,1-.64-.33c1.36-1.15,1.65.54.64.33Zm-1.59-.33a2.61,2.61,0,0,0,1.19.62c1.12.24,1.41-.85.75-1.22a1.12,1.12,0,0,0-.77-.06A3.85,3.85,0,0,0,24.52,31.88Z" transform="translate(-12.35 -9.04)"/><path class="cls-1" d="M26.16,29.48a1.51,1.51,0,0,1-.5-.51c1.65-.65,1.38,1,.5.51Zm-1.4-.82a2.68,2.68,0,0,0,.92,1c1,.58,1.61-.35,1.11-.92a1.13,1.13,0,0,0-.72-.31A4.12,4.12,0,0,0,24.76,28.66Z" transform="translate(-12.35 -9.04)"/><path class="cls-1" d="M27.08,26.92a1.74,1.74,0,0,1-.31-.65c1.78-.08,1,1.44.31.65ZM26,25.69a2.56,2.56,0,0,0,.56,1.22c.74.87,1.63.19,1.34-.51a1.14,1.14,0,0,0-.58-.52A4,4,0,0,0,26,25.69Z" transform="translate(-12.35 -9.04)"/><path class="cls-1" d="M28.78,24.8a1.73,1.73,0,0,1-.09-.72c1.71.5.47,1.67.09.72Zm-.61-1.51a2.56,2.56,0,0,0,.13,1.33c.43,1.07,1.49.71,1.44,0a1.17,1.17,0,0,0-.38-.69A3.81,3.81,0,0,0,28.17,23.29Z" transform="translate(-12.35 -9.04)"/><path class="cls-1" d="M31.07,23.33a1.77,1.77,0,0,1,.15-.7c1.46,1-.1,1.73-.15.7ZM31,21.71a2.55,2.55,0,0,0-.3,1.3c.06,1.15,1.18,1.16,1.37.42a1,1,0,0,0-.14-.76A3.69,3.69,0,0,0,31,21.71Z" transform="translate(-12.35 -9.04)"/><path class="cls-1" d="M33.71,22.68a1.87,1.87,0,0,1,.37-.61c1.05,1.43-.65,1.6-.37.61Zm.44-1.56a2.59,2.59,0,0,0-.7,1.14c-.32,1.1.74,1.47,1.16.84a1.13,1.13,0,0,0,.12-.77A3.76,3.76,0,0,0,34.15,21.12Z" transform="translate(-12.35 -9.04)"/><path class="cls-1" d="M36.42,22.92a2,2,0,0,1,.55-.46c.53,1.7-1.13,1.31-.55.46Zm.92-1.33a2.56,2.56,0,0,0-1,.84c-.66.95.23,1.64.83,1.18a1.16,1.16,0,0,0,.36-.7A3.66,3.66,0,0,0,37.34,21.59Z" transform="translate(-12.35 -9.04)"/><path class="cls-1" d="M38.91,24a1.77,1.77,0,0,1,.67-.26c0,1.77-1.5.87-.67.26Zm1.31-1a2.6,2.6,0,0,0-1.26.47c-.92.68-.31,1.62.41,1.37a1.09,1.09,0,0,0,.56-.54A4,4,0,0,0,40.22,23.06Z" transform="translate(-12.35 -9.04)"/><path class="cls-1" d="M40.91,25.87a2,2,0,0,1,.72,0c-.62,1.67-1.7.34-.72,0Zm1.55-.49a2.56,2.56,0,0,0-1.34,0c-1.1.34-.82,1.43-.06,1.43a1.14,1.14,0,0,0,.71-.33A3.7,3.7,0,0,0,42.46,25.38Z" transform="translate(-12.35 -9.04)"/><path class="cls-1" d="M42.21,28.27a1.7,1.7,0,0,1,.69.2c-1.13,1.38-1.72-.23-.69-.2Zm1.62,0a2.55,2.55,0,0,0-1.28-.4c-1.15,0-1.23,1.09-.52,1.34a1.18,1.18,0,0,0,.78-.08A4,4,0,0,0,43.83,28.3Z" transform="translate(-12.35 -9.04)"/><path class="cls-1" d="M69.16,20.89c0,.08-.07.15-.09.18a.22.22,0,0,1,0,.08,0,0,0,0,1,0,0v0a1.16,1.16,0,0,1,0,.18,1.38,1.38,0,0,0,0,.22h-.15s0,0,0,0h0l0,0v-.13s0-.06,0-.07H67.53l-.14,0-.1,0-.06,0,0,0v.44c0,.08,0,.18,0,.27v.94c0,.11,0,.22,0,.32v.33c0,.14,0,.36,0,.49v.41a.17.17,0,0,0,0,.07v.12a2.33,2.33,0,0,0,0,.29.64.64,0,0,0,.08.2l.05,0,.06,0,.11,0,.17,0a1.09,1.09,0,0,1-.24.24,1.47,1.47,0,0,0-.26-.05H66.7l0,0s0-.05-.06-.09c0-.28,0-.58,0-.92s0-.79,0-1.2v-.48c0-.14,0-.26,0-.36a2.36,2.36,0,0,0,0-.25c0-.1,0-.21,0-.34v-.2a1.69,1.69,0,0,1,0-.23h-1a1.49,1.49,0,0,0-.33,0h0a.05.05,0,0,0,0,0h0v0h0v0h0v0l0,0s0,0,0,0,0,0,0,0l0,.06-.12,0h0l0,0,0,0h0v-.07c0-.23.13-.48.15-.73l.67,0h1.24l.94,0c.35,0,.75,0,1.2,0,0,0,0,0,0,0v.05l.06.07ZM74,25.35h0l-.24,0h-.3l-.22,0h0l0,0h0l0,0,0,0v-2.1H70.51v.26s0,.07,0,.11V24a.92.92,0,0,0,0,.16v.5c0,.09,0,.16,0,.21a.24.24,0,0,0,0,.12.32.32,0,0,0,.13.07,1,1,0,0,0,.31,0l-.13.16a.17.17,0,0,0,0,.05,0,0,0,0,0,0,0l0,.09-.27,0h-.34a1.15,1.15,0,0,0-.2.05l0-.05,0,0h0s0,0,0,0,0,0,0-.05,0-.23,0-.33v-.29c0-.2,0-.37,0-.53v-.85a3.22,3.22,0,0,0,0-.33c0-.13,0-.25,0-.39s0-.3,0-.44,0-.27,0-.38,0-.2,0-.28a.34.34,0,0,0,0-.15.18.18,0,0,0-.08-.09.12.12,0,0,0-.08,0h-.11V21l0-.1h0l.07,0H70l.14,0,.34-.05a1.93,1.93,0,0,1,0,.34v.17a.13.13,0,0,0,0,.06v.12s0,0,0,.08v.16c0,.06,0,.12,0,.19v.6a2.09,2.09,0,0,1,0,.24H73v-.3c0-.07,0-.15,0-.24a2.53,2.53,0,0,0,0-.28v-.44a.2.2,0,0,1,0-.07V21.3a.15.15,0,0,0,0-.07l0-.06a.28.28,0,0,0-.11-.05l-.25,0a1.24,1.24,0,0,1,.1-.17l0-.06h0l0,0,0-.05h.37l.17,0,.32-.06c0,.32,0,.64,0,1v1.58c0,.18,0,.37,0,.57v.29a2.18,2.18,0,0,1,0,.25c0,.07,0,.14,0,.21v.17s0,0,0,.05a.08.08,0,0,0,0,0s0,0,0,.05,0,0,0,.05l0,0h0l0,0,0,0,.07,0,0,0,0,.27Zm5.29-.25h0c-.08.09-.13.2-.2.29l-.28,0h-.4l-.26,0c0-.1-.1-.2-.16-.3s-.11-.21-.18-.33l-.09-.17a1.62,1.62,0,0,0-.1-.18l-.09-.18-.1-.17-.15-.29-.12-.22H75.66a.77.77,0,0,0-.07.16l-.09.22c0,.09-.07.19-.11.29l-.12.29c0,.09-.07.18-.11.25l-.08.2h0v0h0v0a0,0,0,0,0,0,0v0s0,0,0,0l.07,0h.13v.3l-.27,0H74.7l-.25,0a.17.17,0,0,1,0-.07v0l0,0a.34.34,0,0,1,0-.08c.1-.16.18-.3.25-.43s.13-.24.19-.36.11-.21.16-.32l.13-.28c0-.08.09-.2.16-.36s.14-.36.24-.6a8,8,0,0,0,.36-.95,2.62,2.62,0,0,0,.12-.69h0v0h0l-.06-.08-.19-.26.31,0,.18,0h.18l.23,0a2.62,2.62,0,0,0,.16.42l.27.66.33.73.3.61s0,.05.08.13.12.21.21.39.15.3.22.42l.16.3.13.21a1.33,1.33,0,0,0,.14.19,1,1,0,0,0,.12.15l.11.09,0,0h.08l.12,0,.19,0Zm-2.17-1.84h0l-.08.06-.11-.23c0-.08-.09-.18-.15-.3s-.07-.16-.11-.23l-.11-.23-.05-.11,0-.11-.09-.19a1,1,0,0,1-.07-.15l0,.15a.75.75,0,0,0,0,.16l-.08.23c0,.08,0,.16-.07.23a.56.56,0,0,0,0,.12.76.76,0,0,1,0,.11q0,.12-.06.21c0,.06,0,.12,0,.17h1.26Z" transform="translate(-12.35 -9.04)"/><path class="cls-1" d="M79.93,20.89l.31.39.31.38.29.34.3.33.33.35c.12.12.24.25.38.38s.46.46.69.67.44.41.66.6c0-.07,0-.14,0-.21a1.94,1.94,0,0,0,0-.24v-.13a.66.66,0,0,1,0-.14c0-.14,0-.27,0-.4s0-.26,0-.4a1.21,1.21,0,0,1,0-.19,1.41,1.41,0,0,1,0-.2q0-.3,0-.54c0-.15,0-.29,0-.4a.09.09,0,0,0,0-.05.11.11,0,0,0,0-.05.09.09,0,0,0,0-.05s0,0,0,0a.11.11,0,0,1,0-.05s0,0,0,0v0h0l0,0h0l-.09,0-.21,0,.12-.15s0,0,0,0v0s0,0,.06-.07h.38l.09,0a.38.38,0,0,0,.13,0h.1l.07,0a.82.82,0,0,0,0,.14V21a0,0,0,0,0,0,0v.21s0,0,0,0v0s0,.06,0,.11v2.33c0,.18,0,.35,0,.48s0,.25,0,.33v0s0,0,0,0a.5.5,0,0,1,0,.12s0,.08,0,.12h0l0,.17c0,.06,0,.16,0,.29L83,25c-.11-.11-.22-.2-.32-.29l-.29-.26-.28-.26a4,4,0,0,0-.29-.29l-.34-.33L81,23.12c-.13-.14-.25-.27-.37-.38l-.29-.32L80,22a1.55,1.55,0,0,1,0,.22v1a.15.15,0,0,0,0,.07v.16c0,.16,0,.29,0,.41v.5c0,.06,0,.11,0,.16l0,.13c0,.05,0,.09,0,.14v0s0,0,0,0h0v0h0l0,0h.06l.11,0V25a.14.14,0,0,1,0,.06l-.06.09-.15,0a1.93,1.93,0,0,0-.34,0L79.66,25a1.45,1.45,0,0,1-.06-.19,1.87,1.87,0,0,1,0-.27V24.4c0-.22,0-.43,0-.63s0-.37,0-.54v-.46s0-.05,0-.08v-.5a2.33,2.33,0,0,0,0-.48,1,1,0,0,0-.13-.36.44.44,0,0,0-.08-.11.18.18,0,0,0-.09-.06l-.09,0h-.07V21l0-.1h0v0h.86Zm8.57.35h0l0,.12,0,.1a3.6,3.6,0,0,0-.12.44l-.18-.07a.25.25,0,0,0,0-.08.44.44,0,0,0,0-.1.09.09,0,0,0,0-.07l0-.06-.12-.05-.2-.06-.28-.06-.33-.06-.33,0h-.65l-.31,0a1.14,1.14,0,0,0-.26.09l-.23.14a.7.7,0,0,0-.18.2A1.46,1.46,0,0,0,85,22a1.77,1.77,0,0,0-.09.38,3.38,3.38,0,0,0,0,.47,2.64,2.64,0,0,0,.14.91,1.32,1.32,0,0,0,.43.59,2.46,2.46,0,0,0,.67.33,3.19,3.19,0,0,0,.79.12h.32a1.2,1.2,0,0,0,.28,0l.22-.05.17,0h0a.09.09,0,0,1,.07,0,.16.16,0,0,1,0,.07.14.14,0,0,1,0,.06s0,0,0,0v-.12H88V23.65a.52.52,0,0,0,0-.18.24.24,0,0,0-.07-.12l-.05,0-.07,0-.13,0h-.27l.12-.21a.15.15,0,0,1,0-.06h0s0,0,0,0,0,0,0,0h.51l.16,0,.27-.08,0,.05h0l0,.08v1.78l0,0h0l0,0h0l0,0h0l-.1.05a.38.38,0,0,0-.13.06l-.1,0L88,25h0l-.18.06-.2.09-.2.09-.19.05a.88.88,0,0,1-.2,0h-.45a5.82,5.82,0,0,1-.64-.06,2.36,2.36,0,0,1-.51-.14A2.25,2.25,0,0,1,85,25a1.38,1.38,0,0,1-.3-.29,1.59,1.59,0,0,1-.22-.35,1.74,1.74,0,0,1-.15-.4,2.92,2.92,0,0,1-.06-.44c0-.15,0-.32,0-.5s0-.21,0-.31a1.33,1.33,0,0,1,.06-.3,1.69,1.69,0,0,1,.1-.27,1.28,1.28,0,0,1,.15-.25l.18-.23a2.4,2.4,0,0,1,.23-.21l.06,0,0-.05s0,0,0,0l0,0a0,0,0,0,0,0,0,0,0,0,0,0,0,0,2.76,2.76,0,0,1,.81-.39,3.54,3.54,0,0,1,1-.14h.29l.31,0h.22l.2,0,.2,0a.34.34,0,0,1,.14,0l.1.09.12.09,0,.16Zm5.26,3.85h0c-.08.1-.13.2-.2.29l-.28,0h-.4l-.26,0c-.05-.1-.1-.2-.16-.3l-.17-.33a1,1,0,0,1-.1-.17l-.09-.18a1.62,1.62,0,0,1-.1-.18l-.09-.17c-.06-.11-.11-.21-.16-.29a1.45,1.45,0,0,0-.12-.22H90.18c0,.05-.05.1-.07.16l-.09.22c0,.09-.07.19-.11.29l-.12.29c0,.09-.07.18-.1.25l-.09.2h0v0h0v0s0,0,0,0v0s0,0,0,0l.07,0h.14v.29l-.27,0h-.33l-.25,0s0-.06,0-.07,0,0,0,0l0,0,0-.08c.1-.16.19-.3.26-.43a3,3,0,0,0,.18-.36c.06-.11.12-.21.17-.32s.09-.19.12-.28a3.56,3.56,0,0,0,.16-.36c.06-.17.14-.36.25-.6a9.83,9.83,0,0,0,.35-1,2.56,2.56,0,0,0,.12-.68h0v0h0a0,0,0,0,0,0,0l-.06-.08-.19-.26.32,0,.18,0h.17l.23,0c0,.11.09.25.16.42s.16.39.28.65l.32.73c.11.23.21.43.31.61l.07.13.21.39.22.42.17.3a2.39,2.39,0,0,0,.13.21,1.27,1.27,0,0,0,.13.19l.12.15a.87.87,0,0,0,.11.09l0,0h.07l.13,0,.18,0Zm-2.17-1.83h0l-.08.06-.11-.23-.15-.3c0-.08-.07-.16-.1-.23a1.63,1.63,0,0,1-.11-.23L91,22.22a.37.37,0,0,0,0-.11c0-.07-.06-.13-.08-.19a1.09,1.09,0,0,1-.08-.15.88.88,0,0,1,0,.15s0,.1,0,.16,0,.15-.07.23,0,.16-.08.23,0,.08,0,.12l0,.11a1.15,1.15,0,0,0-.06.21l-.06.17h1.26Z" transform="translate(-12.35 -9.04)"/><path class="cls-1" d="M99.24,25.29h0a2.71,2.71,0,0,0-.9,0c0-.31-.07-.58-.1-.83s0-.47-.07-.68c0,0,0-.08,0-.13a.49.49,0,0,0,0-.12c0-.08,0-.16,0-.24a1.94,1.94,0,0,1,0-.24.25.25,0,0,0,0-.08v-.09c0-.08,0-.17,0-.25a2.44,2.44,0,0,0,0-.27v-.11s0,0,0,0l0,0s0,0,0,0l0,0c0,.1-.07.2-.1.29l-.12.28c0,.09-.08.19-.14.3l-.17.37a2.1,2.1,0,0,1-.15.3c0,.1-.1.2-.16.3a1.4,1.4,0,0,1-.1.16l-.09.17a.36.36,0,0,0-.07.1.86.86,0,0,0-.07.1c-.06.07-.12.17-.2.28s-.17.25-.29.41L96,24.87c-.09-.15-.17-.28-.24-.38s-.14-.24-.21-.38-.16-.28-.25-.45-.18-.32-.25-.46-.15-.28-.21-.41a1.87,1.87,0,0,0-.12-.25l-.13-.28a1.21,1.21,0,0,1,0,.19,1.48,1.48,0,0,1,0,.21c0,.09,0,.17,0,.26s0,.16,0,.25,0,.17,0,.26a2.17,2.17,0,0,0,0,.26c0,.17,0,.32,0,.45s0,.24,0,.34a2.28,2.28,0,0,0,0,.26,1,1,0,0,0,.06.23h.08l.1,0,.2,0-.15.27a1.46,1.46,0,0,0-.72,0l0,0,0,0h0l-.07,0v0a.08.08,0,0,1,0,0h0A.77.77,0,0,1,94,25a1.76,1.76,0,0,1,0-.19c0-.09,0-.2,0-.32s0-.26,0-.42,0-.31.05-.48l0-.51c0-.18,0-.36,0-.53s0-.35,0-.51a2.41,2.41,0,0,0,0-.4.73.73,0,0,0-.08-.26.19.19,0,0,0,0-.09l0-.06a.1.1,0,0,0,0-.05s0,0,0,0l-.09,0h0L93.72,21h0v0s0,0,0,0v-.09h.44l.15,0,.23-.05c.11.25.21.46.3.64l.24.51.26.5.32.58c.14.26.28.52.43.78s.31.52.48.78l.21-.38.2-.37c.06-.12.12-.25.17-.37a2.5,2.5,0,0,0,.15-.38l.16-.38c0-.12.09-.23.13-.33s.07-.19.11-.28.05-.2.08-.29,0-.19.06-.3,0-.22,0-.34v0h0a0,0,0,0,0,0,0h0l0,0-.06-.07.06-.08v0h0l0-.06.21.05h.32l.26-.07V21c0,.13,0,.29,0,.47s0,.39,0,.6,0,.42,0,.6,0,.33,0,.45,0,.21,0,.31,0,.19,0,.28a.53.53,0,0,0,0,.13V24c0,.12,0,.23,0,.33s0,.21.06.3a1.71,1.71,0,0,0,.07.21.47.47,0,0,0,.11.13.29.29,0,0,0,.08,0l.12,0c0,.12.07.21,0,.28Zm5.17-.19h0c-.08.1-.13.2-.2.29l-.28,0h-.4l-.26,0c0-.1-.1-.2-.16-.3s-.12-.21-.18-.33l-.09-.17a1.62,1.62,0,0,0-.1-.18l-.09-.18a1,1,0,0,0-.1-.17c0-.11-.11-.21-.15-.29l-.12-.22h-1.45c0,.05,0,.1-.07.16l-.09.22c0,.09-.07.19-.11.29l-.12.29-.1.25a.64.64,0,0,0-.09.21.22.22,0,0,0,0,.11l.07,0h.13l0,.27s0,0,0,0l-.27,0h-.33l-.25,0a.17.17,0,0,1,0-.07v0l0,0a.34.34,0,0,1,0-.08c.1-.16.18-.3.25-.43s.13-.24.19-.36a2.39,2.39,0,0,0,.16-.32l.13-.28c0-.08.09-.2.16-.36s.14-.36.24-.6a8,8,0,0,0,.36-.95,2.56,2.56,0,0,0,.12-.68h0v0h0a0,0,0,0,1,0,0l-.06-.08-.19-.26.31,0,.18,0h.18l.23,0a2.62,2.62,0,0,0,.16.42l.27.65.33.73.3.61s0,.05.08.13.12.21.21.39.15.3.22.42l.16.3a2.39,2.39,0,0,1,.13.21,1.33,1.33,0,0,0,.14.19,1,1,0,0,0,.12.15L104,25l0,0h.08l.12,0,.19,0Zm-2.17-1.84h0l-.08.06-.11-.23c0-.08-.09-.18-.15-.3a1.63,1.63,0,0,0-.11-.23l-.11-.23-.05-.11,0-.11-.09-.19a1,1,0,0,1-.07-.15l0,.15a.75.75,0,0,0-.05.16l-.08.23c0,.08,0,.16-.07.23a.56.56,0,0,0,0,.12.76.76,0,0,1,0,.11L101,23c0,.06,0,.12,0,.17h1.26v.11Zm5-2.42,0,0v0l-.07-.08-.22.05-.17,0h-.28l-.14,0a.78.78,0,0,0-.06.31h.25a.1.1,0,0,1,0,0,.14.14,0,0,1,0,.07,1.51,1.51,0,0,1-.09.42,3.27,3.27,0,0,1-.23.53,2.43,2.43,0,0,1-.15.26,3.31,3.31,0,0,1-.18.29,2.22,2.22,0,0,0-.19.27l-.17.23v0h0l-.06.08a.43.43,0,0,1,0,.07c-.12-.24-.26-.48-.4-.71s-.29-.48-.44-.72-.26-.4-.4-.6-.29-.41-.46-.63l-.27.05-.14,0h-.52l0,.29h.1s0,0,0,0h.12s0,0,0,0h0l0,0,.13.11a.76.76,0,0,1,.11.14s0,0,0,0l0,.05.07.09a.47.47,0,0,1,.06.09l.11.15a.86.86,0,0,0,.1.16l.12.17a2,2,0,0,0,.14.22l.49.76c.15.24.28.45.39.66v.66c0,.08,0,0,0,.12v.61s0,0,0,0h0v0h0v0h0l0,0,0,.05.19-.06h.24l.14,0h.21l.13,0v-.08h0s0,0,0,0v-.06a.38.38,0,0,0,0-.12.53.53,0,0,1-.2,0,.14.14,0,0,1-.1-.06,1.42,1.42,0,0,1-.05-.16.71.71,0,0,1,0-.14v-1l.24-.31.17-.23.2-.29.29-.46a.75.75,0,0,1,.07-.12l.07-.12a.47.47,0,0,1,.05-.1l0-.09a1,1,0,0,1,.08-.15l.06-.15,0-.09,0-.1.1-.22.07-.18a1.16,1.16,0,0,0,.06-.16.18.18,0,0,0,0-.09Z" transform="translate(-12.35 -9.04)"/><path class="cls-1" d="M108,25.34l0-3.69a1.19,1.19,0,0,0,0-.29.3.3,0,0,0-.06-.17l-.08-.06a.23.23,0,0,0-.11,0c-.13-.16-.1-.2,0-.3h.57l.25-.06a.55.55,0,0,0,.1.17v2.36h-.19v-.18h.19v1.09a3.65,3.65,0,0,0,.1.92l.2.11s0,.16.09.16l-1,0Zm5-1.06h0l-.09.38,0,.2v0a0,0,0,0,1,0,0h0s0,0,0,0h0a1,1,0,0,1,0,.17,1.24,1.24,0,0,1,0,.23h-2.84c0-.19,0-.39,0-.59s0-.41,0-.64,0-.24,0-.36v-.31c0-.12,0-.24,0-.36s0-.23,0-.35,0-.45,0-.63,0-.35,0-.48a.66.66,0,0,0,0-.14.39.39,0,0,0,0-.14v0l0-.07,0-.06-.08-.06a.31.31,0,0,0-.1-.05c-.09-.14-.09-.16,0-.3a6.26,6.26,0,0,0,.87-.05h.06V22c0,.08,0,.17,0,.26v.57a2.62,2.62,0,0,1,0,.28c0,.14,0,.29,0,.46s0,.33,0,.54,0,.38,0,.49v.18h0v0l.45.06h.41c.32,0,.58,0,.77,0a.66.66,0,0,0,.35-.1.53.53,0,0,0,.09-.11s0-.1.07-.16h0l0,0Z" transform="translate(-12.35 -9.04)"/><path class="cls-1" d="M124.14,27.25v-2h-.75V25h1.79v.27h-.74v2Zm1.35,0V25h.45l.53,1.61c0,.15.09.26.11.33q0-.12.12-.36l.55-1.58h.4v2.27h-.29v-1.9l-.66,1.9h-.27l-.65-1.93v1.93Z" transform="translate(-12.35 -9.04)"/></svg>